<?xml version="1.0" standalone="no"?>
<!DOCTYPE svg PUBLIC "-//W3C//DTD SVG 1.1//EN" "http://www.w3.org/Graphics/SVG/1.1/DTD/svg11.dtd" >
<svg xmlns="http://www.w3.org/2000/svg" xmlns:xlink="http://www.w3.org/1999/xlink" version="1.1">
<metadata>
Created by FontForge 20170731 at Thu Feb  8 20:44:29 2018
 By Aleksey,,,
Copyright 2015-2018 Indian Type Foundry. All rights reserved.
</metadata>
<defs>
<font id="KohinoorBangla-Bold" horiz-adv-x="0" >
  <font-face 
    font-family="Kohinoor Bangla"
    font-weight="700"
    font-stretch="normal"
    units-per-em="1000"
    panose-1="0 0 8 0 0 0 0 0 0 0"
    ascent="800"
    descent="-200"
    x-height="565"
    cap-height="701"
    bbox="-629 -434 1533 1231"
    underline-thickness="50"
    underline-position="-200"
    unicode-range="U+0020-FB02"
  />
<missing-glyph horiz-adv-x="500" 
d="M0 0v700h500v-700h-500zM250 395l170 255h-340zM280 350l170 -255v510zM80 50h340l-170 255zM50 605v-510l170 255z" />
    <glyph glyph-name="fi" unicode="fi" horiz-adv-x="645" 
d="M252 0h-151v461h-83v104h86v42q0 175 244 175q143 0 207 -32l-32 -110q-64 23 -182 23q-53 0 -69.5 -17.5t-16.5 -53.5v-27h322v-565h-151v461h-174v-461z" />
    <glyph glyph-name="fl" unicode="fl" horiz-adv-x="672" 
d="M252 0h-151v461h-83v104h86v42q0 175 244 175q162 0 229 -37v-567q0 -56 47 -56q11 0 21 2v-119q-36 -14 -72 -14q-69 0 -108 39t-39 109v520q-36 4 -85 4q-53 0 -69.5 -17.5t-16.5 -53.5v-27h94v-104h-97v-461z" />
    <glyph glyph-name=".notdef" horiz-adv-x="500" 
d="M0 0v700h500v-700h-500zM250 395l170 255h-340zM280 350l170 -255v510zM80 50h340l-170 255zM50 605v-510l170 255z" />
    <glyph glyph-name=".null" 
 />
    <glyph glyph-name="nonmarkingreturn" horiz-adv-x="333" 
 />
    <glyph glyph-name="space" unicode=" " horiz-adv-x="280" 
 />
    <glyph glyph-name="exclam" unicode="!" horiz-adv-x="315" 
d="M219 280h-122q-5 76 -15 227.5t-15 227.5h181q-5 -76 -14.5 -227.5t-14.5 -227.5zM249 82q0 -37 -27 -63t-66 -26q-37 0 -63.5 26t-26.5 63q0 40 26 67t64 27q40 0 66.5 -27t26.5 -67z" />
    <glyph glyph-name="quotedbl" unicode="&#x22;" horiz-adv-x="414" 
d="M355 461h-108l-21 260h150zM167 461h-108l-21 260h150z" />
    <glyph glyph-name="numbersign" unicode="#" horiz-adv-x="705" 
d="M246 0h-127l26 185h-109l15 109h107l18 113h-109l15 109h109l26 185h127l-26 -185h125l26 185h127l-26 -185h99l-15 -109h-100l-15 -113h99l-15 -109h-99l-26 -185h-127l26 185h-125zM303 407l-18 -113h127l15 113h-124z" />
    <glyph glyph-name="dollar" unicode="$" horiz-adv-x="560" 
d="M344 -126h-122l3 131q-117 12 -199 85l83 112q79 -74 176 -74q41 0 63 17t22 45t-22.5 45.5t-86.5 46.5l-60 27q-147 65 -147 188q0 78 51.5 131t132.5 68l-4 128h122l-3 -128q43 -7 79 -25t49.5 -30t20.5 -22l-87 -103q-57 57 -130 57q-38 0 -58.5 -17.5t-20.5 -46.5
t23.5 -48.5t76.5 -43.5l49 -22q91 -41 128.5 -81t37.5 -108q0 -71 -46.5 -125t-133.5 -71z" />
    <glyph glyph-name="percent" unicode="%" horiz-adv-x="882" 
d="M770 616l-581 -587l-64 63l580 587zM384 524q0 -96 -45.5 -145.5t-128.5 -49.5q-168 0 -168 189q0 92 46 142t128 50q168 0 168 -186zM152 519q0 -105 62 -105q33 0 46.5 24.5t13.5 80.5q0 106 -64 106q-58 0 -58 -106zM840 186q0 -96 -45.5 -145.5t-128.5 -49.5
q-168 0 -168 189q0 92 46 142t128 50q168 0 168 -186zM608 181q0 -105 62 -105q33 0 46.5 24.5t13.5 80.5q0 106 -64 106q-58 0 -58 -106z" />
    <glyph glyph-name="ampersand" unicode="&#x26;" horiz-adv-x="724" 
d="M508 49q-89 -70 -236 -70q-124 0 -187.5 61.5t-63.5 144.5q0 75 41.5 121t116.5 77q-52 60 -52 136q0 79 56 133t148 54q91 0 144 -51t53 -131q0 -68 -39.5 -117t-110.5 -75q80 -80 123 -113q35 52 35 157h130q0 -63 -19.5 -127t-51.5 -106q22 -20 159 -123v-20h-180
q-6 4 -66 49zM260 519q0 -26 14.5 -56.5t29.5 -41.5q47 16 69.5 39t22.5 59q0 32 -19 51.5t-51 19.5q-30 0 -48 -18t-18 -53zM165 197q0 -42 35.5 -71t94.5 -29q69 0 116 32q-106 93 -164 157q-82 -23 -82 -89z" />
    <glyph glyph-name="quotesingle" unicode="'" horiz-adv-x="226" 
d="M167 461h-108l-21 260h150z" />
    <glyph glyph-name="parenleft" unicode="(" horiz-adv-x="379" 
d="M435 -264h-137q-20 16 -44 44.5t-56 80t-57.5 111.5t-43.5 144t-18 173t18 173t43.5 144t57.5 111.5t56 80t44 44.5h137v-14q-99 -94 -165 -232.5t-66 -306.5t66 -306.5t165 -232.5v-14z" />
    <glyph glyph-name="parenright" unicode=")" horiz-adv-x="379" 
d="M81 -264h-137v14q99 94 165 232.5t66 306.5t-66 306.5t-165 232.5v14h137q20 -16 44 -44.5t56 -80t57.5 -111.5t43.5 -144t18 -173t-18 -173t-43.5 -144t-57.5 -111.5t-56 -80t-44 -44.5z" />
    <glyph glyph-name="asterisk" unicode="*" horiz-adv-x="425" 
d="M190 387l-35 -48l-90 66l34 47l53 41l-67 4l-56 18l35 106l55 -18l55 -37l-17 64v59h112v-58l-18 -64l55 37l57 18l33 -107l-54 -18l-68 -2l53 -42l35 -48l-91 -65l-34 46l-24 63z" />
    <glyph glyph-name="plus" unicode="+" horiz-adv-x="558" 
d="M339 102h-120v188h-187v118h187v188h120v-188h187v-118h-187v-188z" />
    <glyph glyph-name="comma" unicode="," horiz-adv-x="295" 
d="M252 58q0 -80 -54.5 -147t-128.5 -91l-47 67q105 46 105 113q0 54 -69 77v14q0 36 25 61t64 25q48 0 76.5 -33.5t28.5 -85.5z" />
    <glyph glyph-name="hyphen" unicode="-" horiz-adv-x="382" 
d="M358 260h-334v121h334v-121z" />
    <glyph glyph-name="period" unicode="." horiz-adv-x="295" 
d="M246 87q0 -40 -29 -68t-71 -28q-40 0 -68.5 28t-28.5 68q0 43 28 72t69 29q43 0 71.5 -29t28.5 -72z" />
    <glyph glyph-name="slash" unicode="/" horiz-adv-x="396" 
d="M119 -159h-125l283 889h125z" />
    <glyph glyph-name="zero" unicode="0" horiz-adv-x="592" 
d="M550 346q0 -356 -262 -356q-131 0 -188.5 85.5t-57.5 265.5q0 360 261 360q130 0 188.5 -86.5t58.5 -268.5zM193 346q0 -120 25 -174.5t80 -54.5q59 0 80 51t21 173q0 119 -25.5 176t-81.5 57q-58 0 -78.5 -52t-20.5 -176z" />
    <glyph glyph-name="one" unicode="1" horiz-adv-x="478" 
d="M381 0h-150v323q0 121 5 203h-4l-69 -47l-70 -48l-85 119l222 141h151v-691z" />
    <glyph glyph-name="two" unicode="2" horiz-adv-x="535" 
d="M495 0h-428l-26 126q183 175 240 254q49 69 49 116q0 78 -64 78q-33 0 -50.5 -26.5t-17.5 -65.5l-153 27q8 83 66.5 137.5t162.5 54.5q98 0 155 -50t57 -134q0 -111 -86 -217q-38 -46 -93 -102q-22 -21 -85 -76v-4q72 7 163 7h110v-125z" />
    <glyph glyph-name="three" unicode="3" horiz-adv-x="535" 
d="M493 212q0 -107 -67.5 -164.5t-185.5 -57.5q-89 0 -148.5 41.5t-80.5 103.5l141 64q36 -85 107 -85q85 0 85 91q0 82 -118 82h-46v124h45q50 0 72 21t22 69q0 76 -69 76q-33 0 -51.5 -21t-19.5 -59l-145 13q3 83 60 137t155 54q219 0 219 -187q0 -57 -29 -96.5t-75 -54.5
v-4q55 -5 92 -40.5t37 -106.5z" />
    <glyph glyph-name="four" unicode="4" horiz-adv-x="578" 
d="M467 0h-145v152h-269l-31 117l274 422h171v-416h92v-123h-92v-152zM255 406l-81 -131h148v55q0 112 10 205h-4q-33 -64 -73 -129z" />
    <glyph glyph-name="five" unicode="5" horiz-adv-x="573" 
d="M517 239q0 -113 -65 -181t-179 -68q-180 0 -235 145l148 63q29 -84 97 -84q85 0 85 106q0 111 -94 111q-44 0 -75 -33l-125 44l29 349h379v-124h-246l-15 -146h4q14 11 40 18.5t48 7.5q204 0 204 -208z" />
    <glyph glyph-name="six" unicode="6" horiz-adv-x="573" 
d="M528 245q0 -116 -67.5 -185.5t-176.5 -69.5q-230 0 -230 266q0 133 65 249.5t163 185.5h192v-20q-147 -83 -221 -217l2 -3q22 10 62 10q97 0 154 -52.5t57 -163.5zM203 261q0 -147 97 -147q41 0 60 27t19 87q0 51 -26.5 81t-77.5 30q-34 0 -67 -9q-5 -29 -5 -69z" />
    <glyph glyph-name="seven" unicode="7" horiz-adv-x="481" 
d="M251 0h-151v18q0 118 47 258t152 285v4q-79 -7 -165 -7h-134v133h432l30 -139q-124 -163 -167.5 -291t-43.5 -245v-16z" />
    <glyph glyph-name="eight" unicode="8" horiz-adv-x="587" 
d="M537 206q0 -107 -65 -161.5t-180 -54.5q-242 0 -242 200q0 61 34 101t91 58v4q-47 12 -77 51t-30 97q0 96 59.5 148t167.5 52q225 0 225 -189q0 -54 -30.5 -93.5t-76.5 -56.5v-4q124 -25 124 -152zM198 199q0 -89 97 -89q95 0 95 91q0 88 -97 88q-52 0 -73.5 -25.5
t-21.5 -64.5zM216 500q0 -91 78 -91q42 0 60 23t18 68q0 36 -19.5 57.5t-58.5 21.5q-78 0 -78 -79z" />
    <glyph glyph-name="nine" unicode="9" horiz-adv-x="548" 
d="M281 0h-192v20q157 90 222 223l-2 3q-18 -5 -58 -5q-98 0 -158.5 52t-60.5 161q0 116 67 181.5t178 65.5q228 0 228 -263q0 -127 -64.5 -247.5t-159.5 -190.5zM180 473q0 -109 101 -109q38 0 71 11q4 31 4 57q0 76 -27 110.5t-66 34.5q-42 0 -62.5 -24t-20.5 -80z" />
    <glyph glyph-name="colon" unicode=":" horiz-adv-x="295" 
d="M246 465q0 -40 -29 -68t-71 -28q-40 0 -68.5 28t-28.5 68q0 43 28 72t69 29q43 0 71.5 -29t28.5 -72zM246 87q0 -40 -29 -68t-71 -28q-40 0 -68.5 28t-28.5 68q0 43 28 72t69 29q43 0 71.5 -29t28.5 -72z" />
    <glyph glyph-name="semicolon" unicode=";" horiz-adv-x="295" 
d="M244 58q0 -80 -54.5 -147t-128.5 -91l-47 67q105 46 105 113q0 54 -69 77v14q0 36 25 61t64 25q48 0 76.5 -33.5t28.5 -85.5zM247 465q0 -40 -29 -68t-71 -28q-40 0 -68.5 28t-28.5 68q0 43 28 72t69 29q43 0 71.5 -29t28.5 -72z" />
    <glyph glyph-name="less" unicode="&#x3c;" horiz-adv-x="558" 
d="M526 231v-149l-494 211v110l494 212v-149l-172 -65l-148 -49v-4l147 -50z" />
    <glyph glyph-name="equal" unicode="=" horiz-adv-x="558" 
d="M526 406h-494v119h494v-119zM526 173h-494v119h494v-119z" />
    <glyph glyph-name="greater" unicode="&#x3e;" horiz-adv-x="558" 
d="M526 294l-494 -212v149l172 65l148 49v4l-147 50l-173 67v149l494 -211v-110z" />
    <glyph glyph-name="question" unicode="?" horiz-adv-x="453" 
d="M314 367l-139 -118q-67 23 -67 83q0 35 25.5 64.5t55.5 47t55.5 45t25.5 58.5q0 30 -19 48t-51 18q-64 0 -116 -66l-98 110q77 84 231 84q97 0 151 -45.5t54 -126.5q0 -61 -22.5 -105t-85.5 -97zM309 82q0 -38 -26 -63.5t-67 -25.5q-40 0 -65 25t-25 64q0 41 26.5 67.5
t64.5 26.5q42 0 67 -25.5t25 -68.5z" />
    <glyph glyph-name="at" unicode="@" horiz-adv-x="1016" 
d="M664 -112q-86 -48 -214 -48q-192 0 -291 99t-99 275q0 219 139.5 359.5t364.5 140.5q179 0 285.5 -92.5t106.5 -247.5q0 -146 -72.5 -234t-191.5 -88q-91 0 -122 54h-4q-38 -52 -112 -52q-81 0 -121 45.5t-40 119.5q0 63 17 113.5t43.5 81.5t63 51t73 28t75.5 8
q98 0 156 -41l-38 -229q-4 -24 -4 -34q0 -35 31 -35q56 0 88.5 61.5t32.5 131.5q0 117 -73 181.5t-214 64.5q-161 0 -259.5 -106t-98.5 -264q0 -140 73.5 -209.5t211.5 -69.5q89 0 148 36zM423 242q0 -43 14 -60.5t45 -17.5q36 0 68 26q0 20 5 48l25 146q-25 5 -38 5
q-49 0 -84 -39.5t-35 -107.5z" />
    <glyph glyph-name="A" unicode="A" horiz-adv-x="666" 
d="M277 389l-29 -102h165l-27 98q-41 146 -53 210h-4q-15 -72 -52 -206zM168 0h-154l212 701h213l213 -701h-160l-44 161h-235z" />
    <glyph glyph-name="B" unicode="B" horiz-adv-x="642" 
d="M309 0h-232v701h251q226 0 226 -182q0 -56 -29.5 -94t-72.5 -54v-4q57 -7 96.5 -45t39.5 -107q0 -39 -11.5 -73t-40 -68t-86.5 -54t-141 -20zM228 294v-168h105q53 0 76.5 24.5t23.5 59.5q0 43 -30.5 63.5t-77.5 20.5h-97zM228 575v-155h76q52 0 77.5 22.5t25.5 55.5
q0 77 -97 77h-82z" />
    <glyph glyph-name="C" unicode="C" horiz-adv-x="591" 
d="M567 72q-27 -33 -83.5 -57.5t-138.5 -24.5q-155 0 -227 94t-72 259q0 170 80 268.5t230 98.5q145 0 219 -82l-100 -111q-15 18 -28 29.5t-40.5 23t-61.5 11.5q-142 0 -142 -228q0 -111 39 -171.5t116 -60.5q75 0 125 59z" />
    <glyph glyph-name="D" unicode="D" horiz-adv-x="676" 
d="M301 0h-220v701h218q170 0 250.5 -83t80.5 -252q0 -72 -16 -133.5t-51.5 -116t-102 -85.5t-159.5 -31zM233 575v-449h56q101 0 142.5 58t41.5 168q0 120 -48 171.5t-137 51.5h-55z" />
    <glyph glyph-name="E" unicode="E" horiz-adv-x="563" 
d="M508 0h-427v701h415v-126h-263v-156h226v-126h-226v-167h275v-126z" />
    <glyph glyph-name="F" unicode="F" horiz-adv-x="536" 
d="M233 0h-152v701h415v-126h-263v-186h226v-126h-226v-263z" />
    <glyph glyph-name="G" unicode="G" horiz-adv-x="658" 
d="M595 52q-90 -62 -251 -62q-298 0 -298 354q0 181 92.5 274t240.5 93q150 0 220 -81l-98 -107q-52 56 -128 56q-170 0 -170 -217q0 -129 42.5 -188.5t130.5 -59.5q43 0 66 10v237h153v-309z" />
    <glyph glyph-name="H" unicode="H" horiz-adv-x="723" 
d="M234 0h-153v701h153v-288h255v288h153v-701h-153v287h-255v-287z" />
    <glyph glyph-name="I" unicode="I" horiz-adv-x="331" 
d="M242 0h-153v701h153v-701z" />
    <glyph glyph-name="J" unicode="J" horiz-adv-x="444" 
d="M363 170q0 -83 -51.5 -133t-156.5 -50q-97 0 -146 30l47 135q43 -32 95 -32q33 0 46 14.5t13 46.5v520h153v-531z" />
    <glyph glyph-name="K" unicode="K" horiz-adv-x="648" 
d="M644 0h-191l-215 353v4l208 344h176l-218 -341zM234 0h-153v701h153v-701z" />
    <glyph glyph-name="L" unicode="L" horiz-adv-x="508" 
d="M492 0h-411v701h153v-575h258v-126z" />
    <glyph glyph-name="M" unicode="M" horiz-adv-x="898" 
d="M223 0h-140v701h235l133 -378h4l131 378h229v-701h-146v519h-4l-156 -435h-126l-154 435h-6v-519z" />
    <glyph glyph-name="N" unicode="N" horiz-adv-x="732" 
d="M229 0h-146v701h183l143 -276q66 -127 99 -215h4q-8 98 -8 269v222h145v-701h-179l-154 296q-46 90 -93 214h-4q10 -100 10 -245v-265z" />
    <glyph glyph-name="O" unicode="O" horiz-adv-x="673" 
d="M627 354q0 -183 -80.5 -273.5t-215.5 -90.5q-138 0 -211.5 83.5t-73.5 272.5q0 184 80 274.5t214 90.5q287 0 287 -357zM203 356q0 -128 35 -183.5t102 -55.5q63 0 96 53t33 177q0 126 -35.5 181.5t-102.5 55.5q-128 0 -128 -228z" />
    <glyph glyph-name="P" unicode="P" horiz-adv-x="599" 
d="M234 0h-153v701h240q245 0 245 -208q0 -109 -65 -176.5t-209 -67.5h-58v-249zM234 572v-198h50q71 0 97.5 26t26.5 72q0 52 -27 76t-85 24h-62z" />
    <glyph glyph-name="Q" unicode="Q" horiz-adv-x="699" 
d="M680 -74l-145 -84l-185 153q-66 0 -117 17t-92 56t-63 109.5t-22 169.5q0 183 80.5 273.5t215.5 90.5q291 0 291 -358q0 -128 -38 -208.5t-98 -108.5v-4zM213 356q0 -239 139 -239q66 0 99.5 52.5t33.5 178.5q0 127 -35.5 181.5t-104.5 54.5q-64 0 -98 -52t-34 -176z" />
    <glyph glyph-name="R" unicode="R" horiz-adv-x="613" 
d="M232 0h-151v701h228q120 0 181.5 -49.5t61.5 -156.5q0 -86 -40.5 -134t-107.5 -61v-4q28 -13 48 -35.5t45 -67.5l107 -193h-182l-116 228q-17 33 -64 33h-10v-261zM232 575v-193h58q59 0 83 24.5t24 75.5q0 93 -105 93h-60z" />
    <glyph glyph-name="S" unicode="S" horiz-adv-x="573" 
d="M534 197q0 -85 -69.5 -146t-195.5 -61q-89 0 -153 28.5t-90 58.5l87 126q84 -84 176 -84q44 0 67 19.5t23 48.5q0 30 -33.5 53.5t-80.5 43t-94.5 44.5t-81 70t-33.5 106q0 88 69.5 147.5t177.5 59.5q78 0 134 -27t79 -57l-95 -113q-53 65 -131 65q-36 0 -57 -18t-21 -45
q0 -31 33 -54.5t80.5 -43t95 -44.5t80.5 -70t33 -107z" />
    <glyph glyph-name="T" unicode="T" horiz-adv-x="507" 
d="M330 0h-153v575h-174v126h501v-126h-174v-575z" />
    <glyph glyph-name="U" unicode="U" horiz-adv-x="699" 
d="M621 276q0 -150 -79 -218t-207 -68q-130 0 -193.5 69t-63.5 184v458h153v-428q0 -77 29.5 -116t95.5 -39q56 0 84 32.5t28 103.5v447h153v-425z" />
    <glyph glyph-name="V" unicode="V" horiz-adv-x="664" 
d="M431 0h-198l-225 701h170l108 -380q39 -139 50 -194h4q19 94 47 195l108 379h161z" />
    <glyph glyph-name="W" unicode="W" horiz-adv-x="962" 
d="M366 0h-181l-178 701h165l69 -283q37 -153 41 -247h4q6 56 34 187l75 343h181l79 -342q26 -109 35 -186h4q8 98 39 228l70 300h152l-179 -701h-180l-71 311q-29 126 -40 218h-4q-15 -107 -34 -186z" />
    <glyph glyph-name="X" unicode="X" horiz-adv-x="630" 
d="M182 0h-176l225 358l-213 343h184l118 -215h4l112 215h176l-212 -343l224 -358h-183l-131 227h-4z" />
    <glyph glyph-name="Y" unicode="Y" horiz-adv-x="627" 
d="M390 0h-153v225l-236 476h170l143 -323h4l146 323h162l-236 -476v-225z" />
    <glyph glyph-name="Z" unicode="Z" horiz-adv-x="556" 
d="M522 0h-478l-21 120l310 448v4h-275v129h440l21 -120l-307 -448v-4h310v-129z" />
    <glyph glyph-name="bracketleft" unicode="[" horiz-adv-x="368" 
d="M381 -260h-276v1101h276v-100h-147v-902h147v-99z" />
    <glyph glyph-name="backslash" unicode="\" horiz-adv-x="396" 
d="M402 -159h-125l-283 889h125z" />
    <glyph glyph-name="bracketright" unicode="]" horiz-adv-x="368" 
d="M263 -260h-276v99h147v902h-147v100h276v-1101z" />
    <glyph glyph-name="asciicircum" unicode="^" horiz-adv-x="572" 
d="M172 277h-142l182 424h148l182 -424h-146l-60 151l-50 149h-4l-50 -149z" />
    <glyph glyph-name="underscore" unicode="_" horiz-adv-x="530" 
d="M526 -142h-522v108h522v-108z" />
    <glyph glyph-name="grave" unicode="`" horiz-adv-x="508" 
d="M411 682l-78 -66l-237 141l131 77z" />
    <glyph glyph-name="a" unicode="a" horiz-adv-x="547" 
d="M348 54q-47 -63 -144 -63q-79 0 -123 45.5t-44 110.5q0 95 79 141.5t216 39.5v44q0 82 -81 82q-70 0 -97 -64l-107 79q75 106 203 106q112 0 168 -43.5t56 -143.5v-226q0 -46 39 -46h16v-104q-30 -19 -75 -19q-72 0 -102 61h-4zM184 161q0 -25 16 -40t45 -15q57 0 87 40
v80q-148 10 -148 -65z" />
    <glyph glyph-name="b" unicode="b" horiz-adv-x="592" 
d="M554 293q0 -134 -76 -218.5t-213 -84.5q-118 0 -197 36v732h149v-218h4q45 31 110 31q223 0 223 -278zM219 118q23 -8 57 -8q128 0 128 171q0 166 -109 166q-50 0 -76 -30v-299z" />
    <glyph glyph-name="c" unicode="c" horiz-adv-x="504" 
d="M490 79q-67 -90 -206 -90q-246 0 -246 288q0 145 71 222t190 77q134 0 195 -82l-101 -96q-31 54 -94 54q-52 0 -79.5 -37.5t-27.5 -125.5q0 -176 106 -176q65 0 96 55z" />
    <glyph glyph-name="d" unicode="d" horiz-adv-x="596" 
d="M382 46q-55 -55 -138 -55q-94 0 -150 65t-56 197q0 85 21.5 149t58 98.5t78.5 51t89 16.5q50 0 93 -12v202h150v-758h-118l-24 46h-4zM191 266q0 -79 26 -117.5t72 -38.5q58 0 93 48v268q-25 20 -75 20q-26 0 -45 -7t-36 -25.5t-26 -55.5t-9 -92z" />
    <glyph glyph-name="e" unicode="e" horiz-adv-x="571" 
d="M514 52q-77 -63 -207 -63q-269 0 -269 295q0 137 71 214.5t194 77.5q107 0 167 -62t60 -167q0 -50 -7 -101h-337q3 -138 138 -138q75 0 124 51zM299 462q-50 0 -79 -32.5t-31 -83.5h199v15q0 101 -89 101z" />
    <glyph glyph-name="f" unicode="f" horiz-adv-x="391" 
d="M252 0h-151v461h-83v104h86v40q0 76 51.5 126.5t150.5 50.5q52 0 92 -10l-21 -122q-38 10 -65 10q-31 0 -44 -14.5t-13 -44.5v-36h123v-104h-126v-461z" />
    <glyph glyph-name="g" unicode="g" horiz-adv-x="591" 
d="M523 25q0 -112 -71 -171t-188 -59q-162 0 -227 77l85 111q21 -30 59.5 -48t82.5 -18q59 0 85 25t26 84v29h-4q-35 -32 -111 -32q-99 0 -160.5 60t-61.5 201q0 126 71 207t204 81t210 -34v-513zM188 290q0 -82 26.5 -113.5t80.5 -31.5q50 0 79 29v269q-30 10 -62 10
q-60 0 -92 -41.5t-32 -121.5z" />
    <glyph glyph-name="h" unicode="h" horiz-adv-x="611" 
d="M219 0h-151v758h151v-250h4q59 61 149 61q84 0 128.5 -47t44.5 -141v-381h-151v351q0 90 -78 90q-27 0 -55 -18t-42 -44v-379z" />
    <glyph glyph-name="i" unicode="i" horiz-adv-x="295" 
d="M223 0h-151v565h151v-565zM234 712q0 -36 -25.5 -60.5t-63.5 -24.5q-36 0 -61 25t-25 60q0 39 25 64.5t61 25.5q38 0 63.5 -25.5t25.5 -64.5z" />
    <glyph glyph-name="j" unicode="j" horiz-adv-x="289" 
d="M221 78q0 -37 -4 -69t-17 -68.5t-34.5 -65t-59 -54t-88.5 -40.5l-48 119q57 25 78.5 62t21.5 121v482h151v-487zM233 712q0 -36 -25.5 -60.5t-63.5 -24.5q-36 0 -61 25t-25 60q0 39 25 64.5t61 25.5q38 0 63.5 -25.5t25.5 -64.5z" />
    <glyph glyph-name="k" unicode="k" horiz-adv-x="572" 
d="M554 0h-179l-152 299v4l154 262h173l-166 -260v-4zM219 0h-151v758h151v-758z" />
    <glyph glyph-name="l" unicode="l" horiz-adv-x="314" 
d="M287 5q-36 -14 -72 -14q-69 0 -108 39t-39 109v619h151v-580q0 -56 47 -56q11 0 21 2v-119z" />
    <glyph glyph-name="m" unicode="m" horiz-adv-x="921" 
d="M219 0h-151v565h124l25 -53h4q51 66 149 66q103 0 141 -76h4q57 76 166 76q174 0 174 -188v-390h-151v363q0 88 -73 88q-29 0 -55 -17.5t-39 -47.5v-386h-151v352q0 99 -80 99q-27 0 -51.5 -19.5t-35.5 -47.5v-384z" />
    <glyph glyph-name="n" unicode="n" horiz-adv-x="611" 
d="M219 0h-151v565h118l30 -53h4q25 31 66.5 49t85.5 18q84 0 128.5 -47t44.5 -141v-391h-151v359q0 44 -20 68t-58 24q-69 0 -97 -67v-384z" />
    <glyph glyph-name="o" unicode="o" horiz-adv-x="592" 
d="M554 284q0 -138 -63.5 -216.5t-197.5 -78.5q-138 0 -196.5 75t-58.5 216q0 138 63 216.5t197 78.5q139 0 197.5 -75t58.5 -216zM193 286q0 -90 24.5 -134.5t80.5 -44.5t78.5 41t22.5 130q0 90 -25 134.5t-82 44.5q-51 0 -75 -42t-24 -129z" />
    <glyph glyph-name="p" unicode="p" horiz-adv-x="597" 
d="M218 -194h-150v759h111l32 -48h4q49 58 135 58q95 0 152 -70t57 -199q0 -149 -72.5 -229t-181.5 -80q-47 0 -87 9v-200zM216 136q29 -17 71 -17q58 0 88 39.5t30 134.5q0 80 -29.5 120t-76.5 40q-54 0 -83 -43v-274z" />
    <glyph glyph-name="q" unicode="q" horiz-adv-x="590" 
d="M522 -194h-145v215h-4q-39 -31 -118 -31q-98 0 -157.5 67t-59.5 214q0 132 71 215.5t208 83.5q132 0 205 -35v-729zM188 277q0 -94 28 -128.5t81 -34.5t79 28v299q-30 10 -70 10q-118 0 -118 -174z" />
    <glyph glyph-name="r" unicode="r" horiz-adv-x="419" 
d="M218 0h-150v565h118l31 -83h4q40 95 146 95q26 0 48 -5v-149q-25 5 -65 5q-77 0 -132 -45v-383z" />
    <glyph glyph-name="s" unicode="s" horiz-adv-x="496" 
d="M462 166q0 -67 -55.5 -121.5t-167.5 -54.5q-83 0 -141 26t-89 59l90 104q23 -27 62.5 -48.5t85.5 -21.5q65 0 65 48q0 22 -27.5 38t-66.5 29.5t-78 31.5t-66.5 55t-27.5 89q0 72 57.5 123.5t152.5 51.5q136 0 204 -79l-97 -95q-46 53 -111 53q-25 0 -40.5 -12t-15.5 -32
q0 -23 27.5 -39.5t66.5 -29.5t78 -31t66.5 -55t27.5 -89z" />
    <glyph glyph-name="t" unicode="t" horiz-adv-x="402" 
d="M404 30q-48 -35 -157 -35q-167 0 -167 186v269h-72v94l73 30l52 133h96v-142h141v-115h-141v-273q0 -59 59 -59q45 0 77 25z" />
    <glyph glyph-name="u" unicode="u" horiz-adv-x="615" 
d="M394 52q-52 -63 -149 -63q-91 0 -135 48.5t-44 148.5v379h151v-365q0 -46 21 -70t60 -24q68 0 98 68v391h151v-565h-128l-21 52h-4z" />
    <glyph glyph-name="v" unicode="v" horiz-adv-x="549" 
d="M366 0h-169l-192 565h163l77 -270q26 -90 37 -153h4q8 58 34 153l73 270h151z" />
    <glyph glyph-name="w" unicode="w" horiz-adv-x="829" 
d="M328 0h-173l-147 565h151l60 -261q21 -95 29 -176h4q8 84 31 175l70 262h144l61 -258q28 -118 31 -179h4q8 73 34 181l60 256h134l-146 -565h-176l-75 378h-4z" />
    <glyph glyph-name="x" unicode="x" horiz-adv-x="531" 
d="M179 0h-175l178 292l-168 273h168l90 -166h4l66 166h177l-164 -275l172 -290h-168l-94 178h-4z" />
    <glyph glyph-name="y" unicode="y" horiz-adv-x="545" 
d="M352 -28q-28 -86 -78.5 -135.5t-141.5 -49.5q-58 0 -92 17l25 124q26 -14 61 -14q83 0 91 88l-212 563h169l63 -192q38 -117 50 -197h4q16 104 42 197l53 192h156z" />
    <glyph glyph-name="z" unicode="z" horiz-adv-x="506" 
d="M472 0h-414l-20 113l242 327v4h-228v121h387l20 -114l-238 -326v-4h251v-121z" />
    <glyph glyph-name="braceleft" unicode="{" horiz-adv-x="370" 
d="M364 -249q-29 -12 -69 -12q-84 0 -128.5 41t-44.5 116q0 44 15 132.5t15 144.5q0 26 -20 45.5t-68 19.5v116q48 0 68 19.5t20 45.5q0 57 -15 139t-15 126q0 157 164 157q49 0 78 -12l-13 -98q-24 6 -44 6q-55 0 -55 -56q0 -47 13.5 -122.5t13.5 -121.5q0 -115 -98 -139
v-4q98 -24 98 -139q0 -46 -13.5 -127.5t-13.5 -128.5q0 -56 55 -56q20 0 44 6z" />
    <glyph glyph-name="bar" unicode="|" horiz-adv-x="282" 
d="M192 -280h-102v1142h102v-1142z" />
    <glyph glyph-name="braceright" unicode="}" horiz-adv-x="370" 
d="M248 -104q0 -75 -44.5 -116t-128.5 -41q-40 0 -69 12l13 98q24 -6 44 -6q55 0 55 56q0 47 -13.5 128.5t-13.5 127.5q0 115 98 139v4q-98 24 -98 139q0 46 13.5 121.5t13.5 122.5q0 56 -55 56q-20 0 -44 -6l-13 98q29 12 78 12q164 0 164 -157q0 -44 -15 -126t-15 -139
q0 -26 20 -45.5t68 -19.5v-116q-48 0 -68 -19.5t-20 -45.5q0 -56 15 -144.5t15 -132.5z" />
    <glyph glyph-name="asciitilde" unicode="~" horiz-adv-x="570" 
d="M143 210q0 -9 2 -27l-119 21q0 2 -0.5 8t-0.5 8q0 71 36 118.5t107 47.5q46 0 121 -34.5t102 -34.5q37 0 37 55q0 8 -2 26l119 -21q0 -15 -2 -43q-18 -139 -139 -139q-48 0 -123 34.5t-101 34.5q-37 0 -37 -54z" />
    <glyph glyph-name="exclamdown" unicode="&#xa1;" horiz-adv-x="319" 
d="M253 -167h-187l30 455h126zM251 486q0 -40 -26 -67t-64 -27q-40 0 -66.5 27t-26.5 67q0 37 27 63t66 26q37 0 63.5 -26t26.5 -63z" />
    <glyph glyph-name="cent" unicode="&#xa2;" horiz-adv-x="505" 
d="M194 -136h-72l52 144q-136 55 -136 269q0 145 71.5 222t188.5 77q45 0 78 -9l49 134h72l-58 -160q31 -20 52 -52l-106 -96l-101 -279q5 -1 16 -1q58 0 94 60l94 -94q-12 -19 -30.5 -36.5t-66 -35.5t-108.5 -18q-23 0 -43 3zM188 289q0 -95 33 -141h4l109 302q-18 6 -39 6
q-107 0 -107 -167z" />
    <glyph glyph-name="sterling" unicode="&#xa3;" horiz-adv-x="576" 
d="M539 0h-466l-24 107q33 13 51.5 38.5t21.5 79.5l4 73h-72v117h80l7 84q9 103 73 158.5t158 55.5q75 0 117 -22t72 -63l-95 -97q-39 56 -102 56q-36 0 -53.5 -21t-21.5 -65l-7 -86h177v-117h-184l-4 -59q-5 -75 -46 -108v-4h314v-127z" />
    <glyph glyph-name="currency" unicode="&#xa4;" horiz-adv-x="558" 
d="M164 132l-58 -57l-85 82l59 57q-29 52 -29 112q0 59 28 110l-58 57l85 82l58 -57q51 28 115 28q62 0 114 -27l58 56l85 -82l-58 -57q29 -53 29 -110q0 -59 -30 -112l59 -57l-85 -82l-59 56q-50 -26 -113 -26q-64 0 -115 27zM173 326q0 -44 30 -75.5t76 -31.5t76 31.5
t30 75.5t-30 75.5t-76 31.5t-76 -31.5t-30 -75.5z" />
    <glyph glyph-name="yen" unicode="&#xa5;" horiz-adv-x="618" 
d="M385 0h-153v214h-186v117h131l-168 370h170l80 -197l50 -159h4l51 159l83 197h162l-170 -370h128v-117h-182v-214z" />
    <glyph glyph-name="brokenbar" unicode="&#xa6;" horiz-adv-x="282" 
d="M192 410h-102v356h102v-356zM192 -194h-102v356h102v-356z" />
    <glyph glyph-name="section" unicode="&#xa7;" horiz-adv-x="560" 
d="M522 158q0 -114 -81 -197t-217 -83q-48 0 -89 9l21 94q38 -16 80 -16q58 0 81.5 24.5t23.5 54.5q0 35 -27 68.5t-66 64.5t-78 66.5t-66 88.5t-27 116q0 117 86.5 204.5t224.5 87.5q41 0 78 -8l-25 -92q-33 14 -76 14q-48 0 -76.5 -22t-28.5 -59q0 -33 27 -68.5t65.5 -70
t77 -73t65.5 -91.5t27 -112zM416 86q1 -6 1 -17h5q19 40 19 90q0 45 -24.5 85.5t-59.5 72t-71 62t-64 70t-32 81.5q-1 6 -1 17h-5q-23 -35 -23 -94q0 -44 24.5 -85t60.5 -73t72.5 -63t64.5 -69t33 -77z" />
    <glyph glyph-name="dieresis" unicode="&#xa8;" horiz-adv-x="508" 
d="M459 717q0 -33 -23 -56t-57 -23t-57 23t-23 56t23 56t57 23t57 -23t23 -56zM209 717q0 -33 -23 -56t-57 -23t-57 23t-23 56t23 56t57 23t57 -23t23 -56z" />
    <glyph glyph-name="copyright" unicode="&#xa9;" horiz-adv-x="836" 
d="M795 347q0 -157 -108.5 -262.5t-268.5 -105.5q-163 0 -271 104.5t-108 263.5t109 264.5t270 105.5q163 0 270 -104.5t107 -265.5zM556 193q-46 -54 -130 -54q-91 0 -134.5 57t-43.5 152q0 94 46.5 150.5t131.5 56.5q54 0 86.5 -16t44.5 -35l-59 -71q-24 38 -72 38
q-72 0 -72 -123t72 -123q48 0 73 38zM144 347q0 -117 76.5 -192t197.5 -75q118 0 195 76t77 191q0 119 -74.5 193.5t-197.5 74.5t-198.5 -75t-75.5 -193z" />
    <glyph glyph-name="guillemotleft" unicode="&#xab;" horiz-adv-x="607" 
d="M581 101l-94 -75l-202 257l202 258l94 -75l-142 -183zM322 101l-94 -75l-202 257l202 258l94 -75l-142 -183z" />
    <glyph glyph-name="logicalnot" unicode="&#xac;" horiz-adv-x="558" 
d="M535 166h-110v175h-403v106h513v-281z" />
    <glyph glyph-name="registered" unicode="&#xae;" horiz-adv-x="492" 
d="M464 492q0 -99 -62 -157t-157 -58q-92 0 -154.5 57.5t-62.5 157.5t63 158t155 58q93 0 155.5 -58t62.5 -158zM85 492q0 -79 45.5 -121.5t114.5 -42.5q70 0 116 42.5t46 121.5q0 80 -47 122.5t-114 42.5q-68 0 -114.5 -42.5t-46.5 -122.5zM224 381h-53v233h79
q38 0 61 -17.5t23 -52.5q0 -58 -44 -67l60 -96h-63l-46 84h-17v-84zM224 571v-63h19q21 0 29 7.5t8 25.5q0 30 -33 30h-23z" />
    <glyph glyph-name="macron" unicode="&#xaf;" horiz-adv-x="508" 
d="M412 639h-316v119h316v-119z" />
    <glyph glyph-name="degree" unicode="&#xb0;" horiz-adv-x="418" 
d="M372 555q0 -71 -46.5 -115.5t-118.5 -44.5q-71 0 -116 42.5t-45 113.5t47 115.5t118 44.5q72 0 116.5 -42.5t44.5 -113.5zM131 555q0 -36 22.5 -60.5t57.5 -24.5q36 0 55.5 22.5t19.5 58.5t-21.5 60t-57.5 24q-35 0 -55.5 -22t-20.5 -58z" />
    <glyph glyph-name="plusminus" unicode="&#xb1;" horiz-adv-x="558" 
d="M526 0h-494v118h187v172h-187v118h187v188h120v-188h187v-118h-187v-172h187v-118z" />
    <glyph glyph-name="twosuperior" unicode="&#xb2;" horiz-adv-x="393" 
d="M346 379h-296l-18 77q5 5 33.5 28.5t50.5 43.5t49.5 48.5t42.5 50.5q20 32 20 51q0 44 -38 44q-20 0 -31 -16t-12 -40l-110 18q6 54 45.5 86.5t114.5 32.5q71 0 106.5 -31t35.5 -86q0 -56 -47 -115q-26 -33 -72 -73l-53 -43l75 4h104v-80z" />
    <glyph glyph-name="threesuperior" unicode="&#xb3;" horiz-adv-x="385" 
d="M352 511q0 -65 -46.5 -101t-126.5 -36q-60 0 -99 25.5t-54 64.5l101 44q19 -55 68 -55q28 0 39 13t11 38q0 49 -80 49h-29v76h33q37 0 49.5 12.5t12.5 38.5q0 45 -47 45q-37 0 -39 -48l-107 8q2 52 41.5 85.5t107.5 33.5q149 0 149 -110q0 -72 -62 -94q78 -11 78 -89z
" />
    <glyph glyph-name="acute" unicode="&#xb4;" horiz-adv-x="508" 
d="M411 757l-237 -141l-78 66l184 152z" />
    <glyph glyph-name="uni00B5" unicode="&#xb5;" horiz-adv-x="630" 
d="M218 -194h-150v759h151v-365q0 -45 21.5 -69.5t59.5 -24.5q56 0 77 29t21 87v343h151v-402q0 -50 41 -50q12 0 24 4v-106q-32 -19 -74 -19t-72 21t-37 65h-4q-36 -85 -145 -85q-33 0 -64 13v-200z" />
    <glyph glyph-name="paragraph" unicode="&#xb6;" horiz-adv-x="631" 
d="M347 25q0 -150 -116 -236l-77 77q48 42 65 75.5t17 105.5v257q-18 -2 -28 -2q-171 0 -171 186q0 102 66.5 157.5t176.5 55.5h67v-676zM545 0h-108v701h108v-701z" />
    <glyph glyph-name="periodcentered" unicode="&#xb7;" horiz-adv-x="295" 
d="M246 347q0 -40 -29 -68t-71 -28q-40 0 -68.5 28t-28.5 68q0 43 28 72t69 29q43 0 71.5 -29t28.5 -72z" />
    <glyph glyph-name="cedilla" unicode="&#xb8;" horiz-adv-x="508" 
d="M341 -118q0 -109 -133 -143l-41 72q70 27 70 76q0 35 -26 58v4h113q17 -25 17 -67z" />
    <glyph glyph-name="onesuperior" unicode="&#xb9;" horiz-adv-x="333" 
d="M278 379h-112v211q0 18 1 54.5t2 54.5h-4l-60 -45l-40 -25l-53 85l154 85h112v-420z" />
    <glyph glyph-name="guillemotright" unicode="&#xbb;" horiz-adv-x="607" 
d="M581 283l-202 -257l-94 75l142 182l-142 183l94 75zM322 283l-202 -257l-94 75l142 182l-142 183l94 75z" />
    <glyph glyph-name="questiondown" unicode="&#xbf;" horiz-adv-x="453" 
d="M131 200l139 118q67 -23 67 -83q0 -35 -25.5 -64.5t-55.5 -47t-55.5 -45t-25.5 -58.5q0 -30 19 -48t51 -18q64 0 116 66l98 -110q-77 -84 -231 -84q-97 0 -151 45.5t-54 126.5q0 61 22.5 105t85.5 97zM136 485q0 38 26 63.5t67 25.5q40 0 65 -25t25 -64
q0 -41 -26.5 -67.5t-64.5 -26.5q-42 0 -67 25.5t-25 68.5z" />
    <glyph glyph-name="Agrave" unicode="&#xc0;" horiz-adv-x="666" 
d="M277 389l-29 -102h165l-27 98q-41 146 -53 210h-4q-15 -72 -52 -206zM168 0h-154l212 701h213l213 -701h-160l-44 161h-235zM408 818l-78 -66l-237 141l131 77z" />
    <glyph glyph-name="Aacute" unicode="&#xc1;" horiz-adv-x="666" 
d="M277 389l-29 -102h165l-27 98q-41 146 -53 210h-4q-15 -72 -52 -206zM168 0h-154l212 701h213l213 -701h-160l-44 161h-235zM576 893l-237 -141l-78 66l184 152z" />
    <glyph glyph-name="Acircumflex" unicode="&#xc2;" horiz-adv-x="666" 
d="M277 389l-29 -102h165l-27 98q-41 146 -53 210h-4q-15 -72 -52 -206zM168 0h-154l212 701h213l213 -701h-160l-44 161h-235zM331 836l-154 -84l-50 89l204 125l207 -125l-56 -90z" />
    <glyph glyph-name="Atilde" unicode="&#xc3;" horiz-adv-x="666" 
d="M277 389l-29 -102h165l-27 98q-41 146 -53 210h-4q-15 -72 -52 -206zM168 0h-154l212 701h213l213 -701h-160l-44 161h-235zM264 814q-45 0 -76 -44l-59 86q15 25 45.5 47t69.5 22q33 0 85 -20.5t73 -20.5q26 0 41 9.5t34 34.5l59 -86q-15 -25 -45.5 -47t-69.5 -22
q-29 0 -84 20.5t-73 20.5z" />
    <glyph glyph-name="Adieresis" unicode="&#xc4;" horiz-adv-x="666" 
d="M277 389l-29 -102h165l-27 98q-41 146 -53 210h-4q-15 -72 -52 -206zM168 0h-154l212 701h213l213 -701h-160l-44 161h-235zM288 853q0 -33 -23 -56t-57 -23t-57 23t-23 56t23 56t57 23t57 -23t23 -56zM538 853q0 -33 -23 -56t-57 -23t-57 23t-23 56t23 56t57 23t57 -23
t23 -56z" />
    <glyph glyph-name="Aring" unicode="&#xc5;" horiz-adv-x="666" 
d="M277 389l-29 -102h165l-27 98q-41 146 -53 210h-4q-15 -72 -52 -206zM168 0h-154l212 701h213l213 -701h-160l-44 161h-235zM279 850q0 -24 13.5 -39t39.5 -15q54 0 54 52q0 54 -54 54q-53 0 -53 -52zM464 852q0 -54 -37 -91t-96 -37q-60 0 -95 34t-35 88q0 55 36.5 91.5
t95.5 36.5q60 0 95.5 -34t35.5 -88z" />
    <glyph glyph-name="AE" unicode="&#xc6;" horiz-adv-x="925" 
d="M153 0h-159l350 701h514v-126h-269v-156h232v-126h-232v-167h281v-126h-427v181h-201zM439 579l-135 -274h139v274h-4z" />
    <glyph glyph-name="Ccedilla" unicode="&#xc7;" horiz-adv-x="591" 
d="M567 72q-27 -33 -83.5 -57.5t-138.5 -24.5q-155 0 -227 94t-72 259q0 170 80 268.5t230 98.5q145 0 219 -82l-100 -111q-15 18 -28 29.5t-40.5 23t-61.5 11.5q-142 0 -142 -228q0 -111 39 -171.5t116 -60.5q75 0 125 59zM382 -118q0 -109 -133 -143l-41 72q70 27 70 76
q0 35 -26 58v4h113q17 -25 17 -67z" />
    <glyph glyph-name="Egrave" unicode="&#xc8;" horiz-adv-x="563" 
d="M508 0h-427v701h415v-126h-263v-156h226v-126h-226v-167h275v-126zM375 818l-78 -66l-237 141l131 77z" />
    <glyph glyph-name="Eacute" unicode="&#xc9;" horiz-adv-x="563" 
d="M508 0h-427v701h415v-126h-263v-156h226v-126h-226v-167h275v-126zM521 893l-237 -141l-78 66l184 152z" />
    <glyph glyph-name="Ecircumflex" unicode="&#xca;" horiz-adv-x="563" 
d="M508 0h-427v701h415v-126h-263v-156h226v-126h-226v-167h275v-126zM289 836l-154 -84l-50 89l204 125l207 -125l-56 -90z" />
    <glyph glyph-name="Edieresis" unicode="&#xcb;" horiz-adv-x="563" 
d="M508 0h-427v701h415v-126h-263v-156h226v-126h-226v-167h275v-126zM496 853q0 -33 -23 -56t-57 -23t-57 23t-23 56t23 56t57 23t57 -23t23 -56zM246 853q0 -33 -23 -56t-57 -23t-57 23t-23 56t23 56t57 23t57 -23t23 -56z" />
    <glyph glyph-name="Igrave" unicode="&#xcc;" horiz-adv-x="331" 
d="M242 0h-153v701h153v-701zM255 818l-78 -66l-237 141l131 77z" />
    <glyph glyph-name="Iacute" unicode="&#xcd;" horiz-adv-x="331" 
d="M242 0h-153v701h153v-701zM385 893l-237 -141l-78 66l184 152z" />
    <glyph glyph-name="Icircumflex" unicode="&#xce;" horiz-adv-x="331" 
d="M242 0h-153v701h153v-701zM164 836l-154 -84l-50 89l204 125l207 -125l-56 -90z" />
    <glyph glyph-name="Idieresis" unicode="&#xcf;" horiz-adv-x="331" 
d="M242 0h-153v701h153v-701zM371 853q0 -33 -23 -56t-57 -23t-57 23t-23 56t23 56t57 23t57 -23t23 -56zM121 853q0 -33 -23 -56t-57 -23t-57 23t-23 56t23 56t57 23t57 -23t23 -56z" />
    <glyph glyph-name="Eth" unicode="&#xd0;" horiz-adv-x="684" 
d="M309 0h-220v317h-77v101h77v283h218q170 0 250.5 -83t80.5 -252q0 -72 -16 -133.5t-51.5 -116t-102 -85.5t-159.5 -31zM241 575v-157h120v-101h-120v-191h56q101 0 142.5 58t41.5 168q0 120 -48 171.5t-137 51.5h-55z" />
    <glyph glyph-name="Ntilde" unicode="&#xd1;" horiz-adv-x="732" 
d="M229 0h-146v701h183l143 -276q66 -127 99 -215h4q-8 98 -8 269v222h145v-701h-179l-154 296q-46 90 -93 214h-4q10 -100 10 -245v-265zM297 814q-45 0 -76 -44l-59 86q15 25 45.5 47t69.5 22q33 0 85 -20.5t73 -20.5q26 0 41 9.5t34 34.5l59 -86q-15 -25 -45.5 -47
t-69.5 -22q-29 0 -84 20.5t-73 20.5z" />
    <glyph glyph-name="Ograve" unicode="&#xd2;" horiz-adv-x="699" 
d="M640 354q0 -183 -80.5 -273.5t-215.5 -90.5q-138 0 -211.5 83.5t-73.5 272.5q0 184 80 274.5t214 90.5q287 0 287 -357zM216 356q0 -128 35 -183.5t102 -55.5q63 0 96 53t33 177q0 126 -35.5 181.5t-102.5 55.5q-128 0 -128 -228zM443 818l-78 -66l-237 141l131 77z" />
    <glyph glyph-name="Oacute" unicode="&#xd3;" horiz-adv-x="699" 
d="M640 354q0 -183 -80.5 -273.5t-215.5 -90.5q-138 0 -211.5 83.5t-73.5 272.5q0 184 80 274.5t214 90.5q287 0 287 -357zM216 356q0 -128 35 -183.5t102 -55.5q63 0 96 53t33 177q0 126 -35.5 181.5t-102.5 55.5q-128 0 -128 -228zM578 893l-237 -141l-78 66l184 152z" />
    <glyph glyph-name="Ocircumflex" unicode="&#xd4;" horiz-adv-x="699" 
d="M640 354q0 -183 -80.5 -273.5t-215.5 -90.5q-138 0 -211.5 83.5t-73.5 272.5q0 184 80 274.5t214 90.5q287 0 287 -357zM216 356q0 -128 35 -183.5t102 -55.5q63 0 96 53t33 177q0 126 -35.5 181.5t-102.5 55.5q-128 0 -128 -228zM348 836l-154 -84l-50 89l204 125
l207 -125l-56 -90z" />
    <glyph glyph-name="Otilde" unicode="&#xd5;" horiz-adv-x="699" 
d="M640 354q0 -183 -80.5 -273.5t-215.5 -90.5q-138 0 -211.5 83.5t-73.5 272.5q0 184 80 274.5t214 90.5q287 0 287 -357zM216 356q0 -128 35 -183.5t102 -55.5q63 0 96 53t33 177q0 126 -35.5 181.5t-102.5 55.5q-128 0 -128 -228zM281 814q-45 0 -76 -44l-59 86
q15 25 45.5 47t69.5 22q33 0 85 -20.5t73 -20.5q26 0 41 9.5t34 34.5l59 -86q-15 -25 -45.5 -47t-69.5 -22q-29 0 -84 20.5t-73 20.5z" />
    <glyph glyph-name="Odieresis" unicode="&#xd6;" horiz-adv-x="699" 
d="M640 354q0 -183 -80.5 -273.5t-215.5 -90.5q-138 0 -211.5 83.5t-73.5 272.5q0 184 80 274.5t214 90.5q287 0 287 -357zM216 356q0 -128 35 -183.5t102 -55.5q63 0 96 53t33 177q0 126 -35.5 181.5t-102.5 55.5q-128 0 -128 -228zM554 853q0 -33 -23 -56t-57 -23t-57 23
t-23 56t23 56t57 23t57 -23t23 -56zM304 853q0 -33 -23 -56t-57 -23t-57 23t-23 56t23 56t57 23t57 -23t23 -56z" />
    <glyph glyph-name="multiply" unicode="&#xd7;" horiz-adv-x="558" 
d="M279 271l-141 -145l-82 82l145 141l-145 141l82 82l141 -145l141 145l82 -82l-145 -141l145 -141l-82 -82z" />
    <glyph glyph-name="Oslash" unicode="&#xd8;" horiz-adv-x="699" 
d="M653 354q0 -183 -85 -273.5t-224 -90.5q-86 0 -148 29l-19 -29h-131v4l64 97q-64 89 -64 255q0 183 84.5 274t222.5 91q85 0 148 -31l21 31h131v-4l-66 -99q66 -90 66 -254zM276 140q33 -23 77 -23q142 0 142 230q0 59 -11 106zM203 356q0 -62 11 -109l208 314
q-32 23 -78 23q-141 0 -141 -228z" />
    <glyph glyph-name="Ugrave" unicode="&#xd9;" horiz-adv-x="699" 
d="M621 276q0 -150 -79 -218t-207 -68q-130 0 -193.5 69t-63.5 184v458h153v-428q0 -77 29.5 -116t95.5 -39q56 0 84 32.5t28 103.5v447h153v-425zM425 818l-78 -66l-237 141l131 77z" />
    <glyph glyph-name="Uacute" unicode="&#xda;" horiz-adv-x="699" 
d="M621 276q0 -150 -79 -218t-207 -68q-130 0 -193.5 69t-63.5 184v458h153v-428q0 -77 29.5 -116t95.5 -39q56 0 84 32.5t28 103.5v447h153v-425zM587 893l-237 -141l-78 66l184 152z" />
    <glyph glyph-name="Ucircumflex" unicode="&#xdb;" horiz-adv-x="699" 
d="M621 276q0 -150 -79 -218t-207 -68q-130 0 -193.5 69t-63.5 184v458h153v-428q0 -77 29.5 -116t95.5 -39q56 0 84 32.5t28 103.5v447h153v-425zM348 836l-154 -84l-50 89l204 125l207 -125l-56 -90z" />
    <glyph glyph-name="Udieresis" unicode="&#xdc;" horiz-adv-x="699" 
d="M621 276q0 -150 -79 -218t-207 -68q-130 0 -193.5 69t-63.5 184v458h153v-428q0 -77 29.5 -116t95.5 -39q56 0 84 32.5t28 103.5v447h153v-425zM554 853q0 -33 -23 -56t-57 -23t-57 23t-23 56t23 56t57 23t57 -23t23 -56zM304 853q0 -33 -23 -56t-57 -23t-57 23t-23 56
t23 56t57 23t57 -23t23 -56z" />
    <glyph glyph-name="Yacute" unicode="&#xdd;" horiz-adv-x="627" 
d="M390 0h-153v225l-236 476h170l143 -323h4l146 323h162l-236 -476v-225zM550 893l-237 -141l-78 66l184 152z" />
    <glyph glyph-name="Thorn" unicode="&#xde;" horiz-adv-x="590" 
d="M234 258h43q76 0 103.5 27t27.5 70q0 52 -27 76.5t-86 24.5h-61v-198zM234 0h-153v701h153v-116h88q244 0 244 -208q0 -51 -14.5 -93t-45 -77t-85.5 -54.5t-130 -19.5h-57v-133z" />
    <glyph glyph-name="germandbls" unicode="&#xdf;" horiz-adv-x="645" 
d="M631 167q0 -77 -54.5 -128t-162.5 -51q-88 0 -156 38l60 117q51 -35 106 -35q65 0 65 54q0 28 -31.5 52t-68.5 40t-68.5 47t-31.5 71q0 39 48 102.5t48 103.5q0 74 -78 74q-48 0 -70 -29t-22 -94v-529h-146v525q0 121 61.5 184.5t176.5 63.5q107 0 165 -49t58 -124
q0 -39 -14 -74t-30.5 -55.5t-30.5 -41.5t-14 -34q0 -12 19.5 -25.5t47.5 -29.5t56 -36.5t47.5 -56t19.5 -80.5z" />
    <glyph glyph-name="agrave" unicode="&#xe0;" horiz-adv-x="556" 
d="M350 54q-47 -63 -144 -63q-79 0 -123 45.5t-44 110.5q0 95 79 141.5t216 39.5v44q0 82 -81 82q-70 0 -97 -64l-107 79q75 106 203 106q112 0 168 -43.5t56 -143.5v-226q0 -46 39 -46h16v-104q-30 -19 -75 -19q-72 0 -102 61h-4zM186 161q0 -25 16 -40t45 -15q57 0 87 40
v80q-148 10 -148 -65zM339 682l-78 -66l-237 141l131 77z" />
    <glyph glyph-name="aacute" unicode="&#xe1;" horiz-adv-x="556" 
d="M350 54q-47 -63 -144 -63q-79 0 -123 45.5t-44 110.5q0 95 79 141.5t216 39.5v44q0 82 -81 82q-70 0 -97 -64l-107 79q75 106 203 106q112 0 168 -43.5t56 -143.5v-226q0 -46 39 -46h16v-104q-30 -19 -75 -19q-72 0 -102 61h-4zM186 161q0 -25 16 -40t45 -15q57 0 87 40
v80q-148 10 -148 -65zM501 757l-237 -141l-78 66l184 152z" />
    <glyph glyph-name="acircumflex" unicode="&#xe2;" horiz-adv-x="556" 
d="M350 54q-47 -63 -144 -63q-79 0 -123 45.5t-44 110.5q0 95 79 141.5t216 39.5v44q0 82 -81 82q-70 0 -97 -64l-107 79q75 106 203 106q112 0 168 -43.5t56 -143.5v-226q0 -46 39 -46h16v-104q-30 -19 -75 -19q-72 0 -102 61h-4zM186 161q0 -25 16 -40t45 -15q57 0 87 40
v80q-148 10 -148 -65zM276 700l-154 -84l-50 89l204 125l207 -125l-56 -90z" />
    <glyph glyph-name="atilde" unicode="&#xe3;" horiz-adv-x="556" 
d="M350 54q-47 -63 -144 -63q-79 0 -123 45.5t-44 110.5q0 95 79 141.5t216 39.5v44q0 82 -81 82q-70 0 -97 -64l-107 79q75 106 203 106q112 0 168 -43.5t56 -143.5v-226q0 -46 39 -46h16v-104q-30 -19 -75 -19q-72 0 -102 61h-4zM186 161q0 -25 16 -40t45 -15q57 0 87 40
v80q-148 10 -148 -65zM209 678q-45 0 -76 -44l-59 86q15 25 45.5 47t69.5 22q33 0 85 -20.5t73 -20.5q26 0 41 9.5t34 34.5l59 -86q-15 -25 -45.5 -47t-69.5 -22q-29 0 -84 20.5t-73 20.5z" />
    <glyph glyph-name="adieresis" unicode="&#xe4;" horiz-adv-x="556" 
d="M350 54q-47 -63 -144 -63q-79 0 -123 45.5t-44 110.5q0 95 79 141.5t216 39.5v44q0 82 -81 82q-70 0 -97 -64l-107 79q75 106 203 106q112 0 168 -43.5t56 -143.5v-226q0 -46 39 -46h16v-104q-30 -19 -75 -19q-72 0 -102 61h-4zM186 161q0 -25 16 -40t45 -15q57 0 87 40
v80q-148 10 -148 -65zM483 717q0 -33 -23 -56t-57 -23t-57 23t-23 56t23 56t57 23t57 -23t23 -56zM233 717q0 -33 -23 -56t-57 -23t-57 23t-23 56t23 56t57 23t57 -23t23 -56z" />
    <glyph glyph-name="aring" unicode="&#xe5;" horiz-adv-x="556" 
d="M350 54q-47 -63 -144 -63q-79 0 -123 45.5t-44 110.5q0 95 79 141.5t216 39.5v44q0 82 -81 82q-70 0 -97 -64l-107 79q75 106 203 106q112 0 168 -43.5t56 -143.5v-226q0 -46 39 -46h16v-104q-30 -19 -75 -19q-72 0 -102 61h-4zM186 161q0 -25 16 -40t45 -15q57 0 87 40
v80q-148 10 -148 -65zM409 716q0 -54 -36.5 -91t-96.5 -37t-95 34t-35 88q0 55 36.5 91.5t95.5 36.5q60 0 95.5 -34t35.5 -88zM224 714q0 -24 13.5 -39t39.5 -15q54 0 54 52q0 54 -54 54q-53 0 -53 -52z" />
    <glyph glyph-name="ae" unicode="&#xe6;" horiz-adv-x="867" 
d="M406 72q-25 -42 -67.5 -64t-130.5 -22q-97 0 -145.5 45t-48.5 114q0 190 326 190v29q0 42 -22 66t-64 24q-76 0 -124 -63l-88 104q63 80 214 80q130 0 177 -70h4q57 71 158 71q112 0 173 -62.5t61 -172.5q0 -66 -13 -100h-335q7 -69 41 -101t99 -32q77 0 132 57l76 -99
q-75 -77 -222 -77q-143 0 -197 83h-4zM166 160q0 -22 18.5 -41t53.5 -19q102 0 102 101v35q-94 0 -134 -16.5t-40 -59.5zM587 462q-43 0 -70.5 -30t-33.5 -87h198v16q0 101 -94 101z" />
    <glyph glyph-name="ccedilla" unicode="&#xe7;" horiz-adv-x="504" 
d="M490 79q-67 -90 -206 -90q-246 0 -246 288q0 145 71 222t190 77q134 0 195 -82l-101 -96q-31 54 -94 54q-52 0 -79.5 -37.5t-27.5 -125.5q0 -176 106 -176q65 0 96 55zM379 -118q0 -109 -133 -143l-41 72q70 27 70 76q0 35 -26 58v4h113q17 -25 17 -67z" />
    <glyph glyph-name="egrave" unicode="&#xe8;" horiz-adv-x="571" 
d="M514 52q-77 -63 -207 -63q-269 0 -269 295q0 137 71 214.5t194 77.5q107 0 167 -62t60 -167q0 -50 -7 -101h-337q3 -138 138 -138q75 0 124 51zM299 462q-50 0 -79 -32.5t-31 -83.5h199v15q0 101 -89 101zM379 682l-78 -66l-237 141l131 77z" />
    <glyph glyph-name="eacute" unicode="&#xe9;" horiz-adv-x="571" 
d="M514 52q-77 -63 -207 -63q-269 0 -269 295q0 137 71 214.5t194 77.5q107 0 167 -62t60 -167q0 -50 -7 -101h-337q3 -138 138 -138q75 0 124 51zM299 462q-50 0 -79 -32.5t-31 -83.5h199v15q0 101 -89 101zM532 757l-237 -141l-78 66l184 152z" />
    <glyph glyph-name="ecircumflex" unicode="&#xea;" horiz-adv-x="571" 
d="M514 52q-77 -63 -207 -63q-269 0 -269 295q0 137 71 214.5t194 77.5q107 0 167 -62t60 -167q0 -50 -7 -101h-337q3 -138 138 -138q75 0 124 51zM299 462q-50 0 -79 -32.5t-31 -83.5h199v15q0 101 -89 101zM284 700l-154 -84l-50 89l204 125l207 -125l-56 -90z" />
    <glyph glyph-name="edieresis" unicode="&#xeb;" horiz-adv-x="571" 
d="M514 52q-77 -63 -207 -63q-269 0 -269 295q0 137 71 214.5t194 77.5q107 0 167 -62t60 -167q0 -50 -7 -101h-337q3 -138 138 -138q75 0 124 51zM299 462q-50 0 -79 -32.5t-31 -83.5h199v15q0 101 -89 101zM240 717q0 -33 -23 -56t-57 -23t-57 23t-23 56t23 56t57 23
t57 -23t23 -56zM490 717q0 -33 -23 -56t-57 -23t-57 23t-23 56t23 56t57 23t57 -23t23 -56z" />
    <glyph glyph-name="igrave" unicode="&#xec;" horiz-adv-x="295" 
d="M223 0h-151v565h151v-565zM236 682l-78 -66l-237 141l131 77z" />
    <glyph glyph-name="iacute" unicode="&#xed;" horiz-adv-x="295" 
d="M223 0h-151v565h151v-565zM369 757l-237 -141l-78 66l184 152z" />
    <glyph glyph-name="icircumflex" unicode="&#xee;" horiz-adv-x="295" 
d="M223 0h-151v565h151v-565zM146 700l-154 -84l-50 89l204 125l207 -125l-56 -90z" />
    <glyph glyph-name="idieresis" unicode="&#xef;" horiz-adv-x="295" 
d="M223 0h-151v565h151v-565zM353 717q0 -33 -23 -56t-57 -23t-57 23t-23 56t23 56t57 23t57 -23t23 -56zM103 717q0 -33 -23 -56t-57 -23t-57 23t-23 56t23 56t57 23t57 -23t23 -56z" />
    <glyph glyph-name="eth" unicode="&#xf0;" horiz-adv-x="557" 
d="M510 292q0 -147 -65 -224t-177 -77q-104 0 -165 58.5t-61 165.5q0 117 63.5 177t150.5 60q50 0 86 -10q-16 48 -53 95l-175 -70v84l112 45q-50 38 -165 95v10h212q41 -21 78 -55l152 61v-84l-96 -39q103 -133 103 -292zM185 226q0 -56 26.5 -85t65.5 -29q52 0 75.5 34.5
t23.5 113.5q0 43 -4 64q-39 15 -88 15q-50 0 -74.5 -26t-24.5 -87z" />
    <glyph glyph-name="ntilde" unicode="&#xf1;" horiz-adv-x="611" 
d="M219 0h-151v565h118l30 -53h4q25 31 66.5 49t85.5 18q84 0 128.5 -47t44.5 -141v-391h-151v359q0 44 -20 68t-58 24q-69 0 -97 -67v-384zM237 678q-45 0 -76 -44l-59 86q15 25 45.5 47t69.5 22q33 0 85 -20.5t73 -20.5q26 0 41 9.5t34 34.5l59 -86q-15 -25 -45.5 -47
t-69.5 -22q-29 0 -84 20.5t-73 20.5z" />
    <glyph glyph-name="ograve" unicode="&#xf2;" horiz-adv-x="592" 
d="M554 284q0 -138 -63.5 -216.5t-197.5 -78.5q-138 0 -196.5 75t-58.5 216q0 138 63 216.5t197 78.5q139 0 197.5 -75t58.5 -216zM193 286q0 -90 24.5 -134.5t80.5 -44.5t78.5 41t22.5 130q0 90 -25 134.5t-82 44.5q-51 0 -75 -42t-24 -129zM377 682l-78 -66l-237 141
l131 77z" />
    <glyph glyph-name="oacute" unicode="&#xf3;" horiz-adv-x="592" 
d="M554 284q0 -138 -63.5 -216.5t-197.5 -78.5q-138 0 -196.5 75t-58.5 216q0 138 63 216.5t197 78.5q139 0 197.5 -75t58.5 -216zM193 286q0 -90 24.5 -134.5t80.5 -44.5t78.5 41t22.5 130q0 90 -25 134.5t-82 44.5q-51 0 -75 -42t-24 -129zM531 757l-237 -141l-78 66
l184 152z" />
    <glyph glyph-name="ocircumflex" unicode="&#xf4;" horiz-adv-x="592" 
d="M554 284q0 -138 -63.5 -216.5t-197.5 -78.5q-138 0 -196.5 75t-58.5 216q0 138 63 216.5t197 78.5q139 0 197.5 -75t58.5 -216zM193 286q0 -90 24.5 -134.5t80.5 -44.5t78.5 41t22.5 130q0 90 -25 134.5t-82 44.5q-51 0 -75 -42t-24 -129zM294 700l-154 -84l-50 89
l204 125l207 -125l-56 -90z" />
    <glyph glyph-name="otilde" unicode="&#xf5;" horiz-adv-x="592" 
d="M554 284q0 -138 -63.5 -216.5t-197.5 -78.5q-138 0 -196.5 75t-58.5 216q0 138 63 216.5t197 78.5q139 0 197.5 -75t58.5 -216zM193 286q0 -90 24.5 -134.5t80.5 -44.5t78.5 41t22.5 130q0 90 -25 134.5t-82 44.5q-51 0 -75 -42t-24 -129zM227 678q-45 0 -76 -44l-59 86
q15 25 45.5 47t69.5 22q33 0 85 -20.5t73 -20.5q26 0 41 9.5t34 34.5l59 -86q-15 -25 -45.5 -47t-69.5 -22q-29 0 -84 20.5t-73 20.5z" />
    <glyph glyph-name="odieresis" unicode="&#xf6;" horiz-adv-x="592" 
d="M554 284q0 -138 -63.5 -216.5t-197.5 -78.5q-138 0 -196.5 75t-58.5 216q0 138 63 216.5t197 78.5q139 0 197.5 -75t58.5 -216zM193 286q0 -90 24.5 -134.5t80.5 -44.5t78.5 41t22.5 130q0 90 -25 134.5t-82 44.5q-51 0 -75 -42t-24 -129zM501 717q0 -33 -23 -56t-57 -23
t-57 23t-23 56t23 56t57 23t57 -23t23 -56zM251 717q0 -33 -23 -56t-57 -23t-57 23t-23 56t23 56t57 23t57 -23t23 -56z" />
    <glyph glyph-name="divide" unicode="&#xf7;" horiz-adv-x="558" 
d="M526 290h-494v118h494v-118zM360 160q0 -34 -23.5 -57.5t-58.5 -23.5t-58.5 23.5t-23.5 57.5t23.5 57.5t58.5 23.5t58.5 -23.5t23.5 -57.5zM360 537q0 -34 -23.5 -57.5t-58.5 -23.5t-58.5 23.5t-23.5 57.5t23.5 57.5t58.5 23.5t58.5 -23.5t23.5 -57.5z" />
    <glyph glyph-name="oslash" unicode="&#xf8;" horiz-adv-x="592" 
d="M160 -11h-122v4l53 78q-53 71 -53 209t63 216.5t197 78.5q69 0 120 -20l14 20h122v-4l-53 -79q53 -70 53 -208t-63.5 -216.5t-197.5 -78.5q-69 0 -120 20zM248 119q20 -12 50 -12q57 0 81 41.5t24 129.5q0 27 -4 63zM189 286q0 -28 4 -64l150 222q-20 13 -51 13
q-103 0 -103 -171z" />
    <glyph glyph-name="ugrave" unicode="&#xf9;" horiz-adv-x="615" 
d="M394 52q-52 -63 -149 -63q-91 0 -135 48.5t-44 148.5v379h151v-365q0 -46 21 -70t60 -24q68 0 98 68v391h151v-565h-128l-21 52h-4zM378 682l-78 -66l-237 141l131 77z" />
    <glyph glyph-name="uacute" unicode="&#xfa;" horiz-adv-x="615" 
d="M394 52q-52 -63 -149 -63q-91 0 -135 48.5t-44 148.5v379h151v-365q0 -46 21 -70t60 -24q68 0 98 68v391h151v-565h-128l-21 52h-4zM546 757l-237 -141l-78 66l184 152z" />
    <glyph glyph-name="ucircumflex" unicode="&#xfb;" horiz-adv-x="615" 
d="M394 52q-52 -63 -149 -63q-91 0 -135 48.5t-44 148.5v379h151v-365q0 -46 21 -70t60 -24q68 0 98 68v391h151v-565h-128l-21 52h-4zM306 700l-154 -84l-50 89l204 125l207 -125l-56 -90z" />
    <glyph glyph-name="udieresis" unicode="&#xfc;" horiz-adv-x="615" 
d="M394 52q-52 -63 -149 -63q-91 0 -135 48.5t-44 148.5v379h151v-365q0 -46 21 -70t60 -24q68 0 98 68v391h151v-565h-128l-21 52h-4zM512 717q0 -33 -23 -56t-57 -23t-57 23t-23 56t23 56t57 23t57 -23t23 -56zM262 717q0 -33 -23 -56t-57 -23t-57 23t-23 56t23 56t57 23
t57 -23t23 -56z" />
    <glyph glyph-name="yacute" unicode="&#xfd;" horiz-adv-x="545" 
d="M352 -28q-28 -86 -78.5 -135.5t-141.5 -49.5q-58 0 -92 17l25 124q26 -14 61 -14q83 0 91 88l-212 563h169l63 -192q38 -117 50 -197h4q16 104 42 197l53 192h156zM519 757l-237 -141l-78 66l184 152z" />
    <glyph glyph-name="thorn" unicode="&#xfe;" horiz-adv-x="597" 
d="M218 -194h-150v952h147v-241h4q16 23 50.5 40.5t80.5 17.5q95 0 152 -70t57 -199q0 -149 -72.5 -229t-181.5 -80q-47 0 -87 9v-200zM216 136q29 -17 71 -17q58 0 88 39.5t30 134.5q0 80 -29.5 120t-76.5 40q-54 0 -83 -43v-274z" />
    <glyph glyph-name="ydieresis" unicode="&#xff;" horiz-adv-x="545" 
d="M352 -28q-28 -86 -78.5 -135.5t-141.5 -49.5q-58 0 -92 17l25 124q26 -14 61 -14q83 0 91 88l-212 563h169l63 -192q38 -117 50 -197h4q16 104 42 197l53 192h156zM477 717q0 -33 -23 -56t-57 -23t-57 23t-23 56t23 56t57 23t57 -23t23 -56zM227 717q0 -33 -23 -56
t-57 -23t-57 23t-23 56t23 56t57 23t57 -23t23 -56z" />
    <glyph glyph-name="dotlessi" unicode="&#x131;" horiz-adv-x="295" 
d="M223 0h-151v565h151v-565z" />
    <glyph glyph-name="Lslash" unicode="&#x141;" horiz-adv-x="513" 
d="M497 0h-411v203l-77 -43v111l77 43v387h153v-301l168 94v-111l-168 -94v-163h258v-126z" />
    <glyph glyph-name="lslash" unicode="&#x142;" horiz-adv-x="326" 
d="M287 5q-36 -14 -72 -14q-69 0 -108 39t-39 109v145l-65 -44v111l65 44v363h151v-259l90 61v-111l-90 -61v-210q0 -56 47 -56q11 0 21 2v-119z" />
    <glyph glyph-name="OE" unicode="&#x152;" horiz-adv-x="990" 
d="M525 60q-18 -29 -65 -49.5t-116 -20.5q-298 0 -298 356q0 183 85 274t223 91q125 0 171 -60v50h398v-126h-269v-156h232v-126h-232v-167h281v-126h-410v60zM203 356q0 -125 41.5 -182t110.5 -57q67 0 103.5 53t36.5 177q0 237 -149 237q-143 0 -143 -228z" />
    <glyph glyph-name="oe" unicode="&#x153;" horiz-adv-x="932" 
d="M471 70q-59 -81 -178 -81q-138 0 -196.5 75t-58.5 216q0 295 258 295q119 0 174 -74h5q62 75 184 75q112 0 173.5 -62.5t61.5 -172.5q0 -66 -13 -100h-332q0 -2 0.5 -4.5t0.5 -3.5q10 -65 43 -95t93 -30q77 0 132 57l76 -99q-75 -77 -223 -77q-134 0 -196 81h-4zM193 286
q0 -179 107 -179q57 0 78 40t21 131q0 90 -26 134.5t-83 44.5q-52 0 -74.5 -41.5t-22.5 -129.5zM551 354q0 -2 -0.5 -5t-0.5 -4h196v16q0 101 -94 101q-82 0 -101 -108z" />
    <glyph glyph-name="Scaron" unicode="&#x160;" horiz-adv-x="573" 
d="M534 197q0 -85 -69.5 -146t-195.5 -61q-89 0 -153 28.5t-90 58.5l87 126q84 -84 176 -84q44 0 67 19.5t23 48.5q0 30 -33.5 53.5t-80.5 43t-94.5 44.5t-81 70t-33.5 106q0 88 69.5 147.5t177.5 59.5q78 0 134 -27t79 -57l-95 -113q-53 65 -131 65q-36 0 -57 -18t-21 -45
q0 -31 33 -54.5t80.5 -43t95 -44.5t80.5 -70t33 -107zM500 867l-207 -125l-204 125l50 89l154 -84l151 85z" />
    <glyph glyph-name="scaron" unicode="&#x161;" horiz-adv-x="496" 
d="M462 166q0 -67 -55.5 -121.5t-167.5 -54.5q-83 0 -141 26t-89 59l90 104q23 -27 62.5 -48.5t85.5 -21.5q65 0 65 48q0 22 -27.5 38t-66.5 29.5t-78 31.5t-66.5 55t-27.5 89q0 72 57.5 123.5t152.5 51.5q136 0 204 -79l-97 -95q-46 53 -111 53q-25 0 -40.5 -12t-15.5 -32
q0 -23 27.5 -39.5t66.5 -29.5t78 -31t66.5 -55t27.5 -89zM454 731l-207 -125l-204 125l50 89l154 -84l151 85z" />
    <glyph glyph-name="Ydieresis" unicode="&#x178;" horiz-adv-x="627" 
d="M390 0h-153v225l-236 476h170l143 -323h4l146 323h162l-236 -476v-225zM518 853q0 -33 -23 -56t-57 -23t-57 23t-23 56t23 56t57 23t57 -23t23 -56zM268 853q0 -33 -23 -56t-57 -23t-57 23t-23 56t23 56t57 23t57 -23t23 -56z" />
    <glyph glyph-name="Zcaron" unicode="&#x17d;" horiz-adv-x="556" 
d="M522 0h-478l-21 120l310 448v4h-275v129h440l21 -120l-307 -448v-4h310v-129zM483 867l-207 -125l-204 125l50 89l154 -84l151 85z" />
    <glyph glyph-name="zcaron" unicode="&#x17e;" horiz-adv-x="506" 
d="M472 0h-414l-20 113l242 327v4h-228v121h387l20 -114l-238 -326v-4h251v-121zM459 731l-207 -125l-204 125l50 89l154 -84l151 85z" />
    <glyph glyph-name="florin" unicode="&#x192;" horiz-adv-x="564" 
d="M304 11q-14 -102 -81 -157t-155 -55q-91 0 -134 27l50 128q43 -31 83 -31q39 0 60 18.5t27 71.5l39 291h-103v114h117l9 70q14 103 78.5 157.5t152.5 54.5q93 0 134 -26l-48 -125q-36 26 -83 26q-38 0 -58 -18t-26 -71l-8 -68h121v-114h-135z" />
    <glyph glyph-name="circumflex" unicode="&#x2c6;" horiz-adv-x="508" 
d="M252 700l-154 -84l-50 89l204 125l207 -125l-56 -90z" />
    <glyph glyph-name="caron" unicode="&#x2c7;" horiz-adv-x="508" 
d="M459 731l-207 -125l-204 125l50 89l154 -84l151 85z" />
    <glyph glyph-name="breve" unicode="&#x2d8;" horiz-adv-x="508" 
d="M459 741q-65 -125 -205 -125t-205 125l97 57q32 -75 108 -75q44 0 70.5 23.5t38.5 51.5z" />
    <glyph glyph-name="dotaccent" unicode="&#x2d9;" horiz-adv-x="508" 
d="M346 723q0 -39 -26 -65t-66 -26t-66 26t-26 65t26 65t66 26t66 -26t26 -65z" />
    <glyph glyph-name="ring" unicode="&#x2da;" horiz-adv-x="508" 
d="M385 716q0 -54 -36.5 -91t-96.5 -37t-95 34t-35 88q0 55 36.5 91.5t95.5 36.5q60 0 95.5 -34t35.5 -88zM200 714q0 -24 13.5 -39t39.5 -15q54 0 54 52q0 54 -54 54q-53 0 -53 -52z" />
    <glyph glyph-name="ogonek" unicode="&#x2db;" horiz-adv-x="508" 
d="M377 -221q-44 -25 -109 -25q-70 0 -103.5 33t-33.5 84q0 39 20 75t52 62t59 42t54 28l49 -64q-123 -69 -123 -126q0 -42 45 -42q29 0 62 18z" />
    <glyph glyph-name="tilde" unicode="&#x2dc;" horiz-adv-x="508" 
d="M185 678q-45 0 -76 -44l-59 86q15 25 45.5 47t69.5 22q33 0 85 -20.5t73 -20.5q26 0 41 9.5t34 34.5l59 -86q-15 -25 -45.5 -47t-69.5 -22q-29 0 -84 20.5t-73 20.5z" />
    <glyph glyph-name="hungarumlaut" unicode="&#x2dd;" horiz-adv-x="508" 
d="M259 752l-204 -160l-66 78l191 174zM519 705l-236 -111l-46 91l227 128z" />
    <glyph glyph-name="danda" unicode="&#x964;" horiz-adv-x="542" 
d="M342 0h-142v672h142v-672z" />
    <glyph glyph-name="doubledanda" unicode="&#x965;" horiz-adv-x="791" 
d="M591 0h-142v672h142v-672zM342 0h-142v672h142v-672z" />
    <glyph glyph-name="bnAnji" unicode="&#x980;" horiz-adv-x="599" 
d="M623 36q-17 -15 -46 -25.5t-56 -10.5q-74 0 -121 45.5t-47 131.5v320q0 47 -49 47t-86.5 -36t-37.5 -89q0 -70 83 -70q21 0 35 3l17 -117q-33 -10 -67 -10q-93 0 -146.5 49.5t-53.5 144.5q0 98 73.5 175t189.5 77q88 0 132 -45.5t44 -117.5v-331q0 -50 40 -50q25 0 39 17
z" />
    <glyph glyph-name="bnCandrabindu" unicode="&#x981;" 
d="M79 871q-25 -58 -83 -93t-138 -35t-138.5 35t-83.5 93l95 49q36 -77 127 -77q90 0 126 77zM-79 973q0 -28 -17.5 -47t-45.5 -19q-29 0 -46.5 19t-17.5 47t18 47.5t46 19.5t45.5 -19.5t17.5 -47.5z" />
    <glyph glyph-name="bnAnusvara" unicode="&#x982;" horiz-adv-x="492" 
d="M413 70l-84 -72l-297 238l115 82zM422 535q0 -71 -50.5 -118t-122.5 -47q-78 0 -129.5 40t-51.5 111t50.5 118t122.5 47q78 0 129.5 -40t51.5 -111zM188 531q0 -28 16.5 -47t38.5 -19q25 0 42 15.5t17 44.5q0 28 -16.5 47t-38.5 19q-25 0 -41.5 -15.5t-17.5 -44.5z" />
    <glyph glyph-name="bnVisarga" unicode="&#x983;" horiz-adv-x="472" 
d="M411 535q0 -71 -50.5 -118t-122.5 -47q-78 0 -129.5 40t-51.5 111t50.5 118t122.5 47q78 0 129.5 -40t51.5 -111zM411 160q0 -71 -50.5 -118t-122.5 -47q-78 0 -129.5 40t-51.5 111t50.5 118t122.5 47q78 0 129.5 -40t51.5 -111zM177 156q0 -28 16.5 -47t38.5 -19
q25 0 42 15.5t17 44.5q0 28 -16.5 47t-38.5 19q-25 0 -41.5 -15.5t-17.5 -44.5zM177 531q0 -28 16.5 -47t38.5 -19q25 0 42 15.5t17 44.5q0 28 -16.5 47t-38.5 19q-25 0 -41.5 -15.5t-17.5 -44.5z" />
    <glyph glyph-name="bnA" unicode="&#x985;" horiz-adv-x="948" 
d="M968 562h-100v-458l49 -29l-89 -91l-238 139q-71 -66 -189 -66q-145 0 -240.5 104.5t-141.5 282.5l125 60q32 -147 96.5 -234.5t159.5 -87.5q63 0 97.5 36.5t34.5 97.5q0 40 -18 64t-48 24q-21 0 -33 -12t-12 -30q0 -33 38 -48l-90 -69q-41 13 -64.5 49t-23.5 80
q0 65 49.5 110.5t124.5 45.5q93 0 152.5 -61t59.5 -154q0 -47 -12 -88l85 -50l3 2q-12 37 -12 155v228h-751v109h988v-109z" />
    <glyph glyph-name="bnAA" unicode="&#x986;" horiz-adv-x="1248" 
d="M1168 0h-140v445q0 70 -22.5 93.5t-73.5 23.5h-64v-458l49 -29l-89 -91l-238 139q-71 -66 -189 -66q-145 0 -240.5 104.5t-141.5 282.5l125 60q32 -147 96.5 -234.5t159.5 -87.5q63 0 97.5 36.5t34.5 97.5q0 40 -18 64t-48 24q-21 0 -33 -12t-12 -30q0 -33 38 -48
l-90 -69q-41 13 -64.5 49t-23.5 80q0 65 49.5 110.5t124.5 45.5q93 0 152.5 -61t59.5 -154q0 -47 -12 -88l85 -50l3 2q-12 37 -12 155v228h-751v109h989q54 0 82 -35h7q-24 63 -24 127v10h134v-102h100v-109h-100v-562z" />
    <glyph glyph-name="bnI" unicode="&#x987;" horiz-adv-x="516" 
d="M481 27l-92 -93q-22 13 -59 36q-128 78 -171 97.5t-104 24.5v110h68q91 0 142.5 31.5t51.5 89.5q0 38 -19.5 61t-53.5 23q-22 0 -36 -12t-14 -33q0 -34 39 -48l-92 -69q-42 16 -63.5 50.5t-21.5 78.5q0 66 51 111t138 45q93 0 150 -58t57 -149q0 -84 -50 -132.5
t-128 -59.5v-4q56 -13 135 -58zM456 689q0 -12 -1 -18h81v-109h-556v109h342v9q0 39 -23.5 54.5t-74.5 15.5h-9q-117 0 -168 50t-51 124q0 10 2 30l133 21q-5 -20 -5 -38q0 -71 95 -71h30q87 0 146 -46.5t59 -130.5z" />
    <glyph glyph-name="bnII" unicode="&#x988;" horiz-adv-x="698" 
d="M621 -18h-122q-21 59 -21 161q0 101 24 167l-92 -89q-20 -93 -75.5 -139.5t-121.5 -46.5q-72 0 -120 36t-68 90l105 64q15 -34 33.5 -52.5t50.5 -18.5q41 0 63.5 42t22.5 112q0 56 -20 84t-51 28q-21 0 -33.5 -12t-12.5 -30q0 -39 35 -52l-87 -66q-36 15 -57 49t-21 77
q0 61 47 102.5t121 41.5t123 -40t66 -111l128 112l109 -43q-43 -118 -43 -296q0 -75 17 -170zM718 562h-738v109h518v9q0 39 -23.5 54.5t-74.5 15.5h-129q-119 0 -175.5 52t-56.5 127q0 9 2 25l133 21q-3 -13 -3 -27q0 -82 106 -82h150q87 0 146 -46.5t59 -130.5
q0 -12 -1 -18h87v-109z" />
    <glyph glyph-name="bnU" unicode="&#x989;" horiz-adv-x="726" 
d="M662 689q0 -12 -1 -18h85v-109h-348v-128q0 -33 25 -33q20 0 70 26t98 60q42 -26 71 -77.5t29 -110.5q0 -110 -80.5 -185t-212.5 -75q-161 0 -261 113.5t-102 277.5l131 30q0 -148 69 -222.5t163 -74.5q72 0 116 37.5t44 90.5q0 22 -9 40q-70 -55 -147 -55
q-70 0 -106.5 41t-36.5 112v133h-279v109h548v9q0 39 -23.5 54.5t-74.5 15.5h-159q-119 0 -175.5 52t-56.5 127q0 9 2 25l133 21q-3 -13 -3 -27q0 -82 106 -82h180q87 0 146 -46.5t59 -130.5z" />
    <glyph glyph-name="bnUU" unicode="&#x98a;" horiz-adv-x="742" 
d="M669 689q0 -12 -1 -18h94v-109h-347v-125q0 -35 25 -35q43 0 165 85q43 -26 72.5 -81.5t29.5 -116.5q0 -103 -76.5 -175t-203.5 -72q-158 0 -269 94.5t-142 221.5l79 28q10 -48 31.5 -94.5t64 -91t97.5 -65.5l5 6q-75 41 -119 126.5t-51 176.5l87 26q0 -158 61.5 -234.5
t156.5 -76.5q71 0 111 38t40 90q0 32 -9 50q-79 -55 -155 -55q-69 0 -104 41.5t-35 109.5v129h-296v109h555v9q0 39 -23.5 54.5t-74.5 15.5h-159q-119 0 -175.5 52t-56.5 127q0 9 2 25l133 21q-3 -13 -3 -27q0 -82 106 -82h180q87 0 146 -46.5t59 -130.5z" />
    <glyph glyph-name="bnvR" unicode="&#x98b;" horiz-adv-x="795" 
d="M190 269l161 -93h4q-9 78 -9 145v36q-49 -15 -93 -41.5t-63 -46.5zM725 214l-116 -56l-130 74v-128l49 -29l-88 -91l-385 224v118q61 62 146 103.5t157 55.5v4q-18 14 -47 34.5t-36 26.5q-53 -78 -152 -78q-71 0 -112.5 40t-41.5 98q0 36 13 61h125q-13 -20 -13 -42
t14 -35.5t34 -13.5q64 0 105 101h42q43 -22 64 -41q-9 51 -9 117v16h135v-399l121 -70h4q-13 41 -13 156v313h134v-102h90v-109h-90v-348z" />
    <glyph glyph-name="bnvL" unicode="&#x98c;" horiz-adv-x="656" 
d="M625 288q0 -137 -98.5 -212t-248.5 -84l-56 86q83 60 83 162q0 89 -68 89q-21 0 -34.5 -12t-13.5 -33q0 -46 58 -46l-26 -104q-71 1 -116 38.5t-45 111.5q0 75 49 117.5t120 42.5q90 0 139.5 -56.5t49.5 -144.5q0 -64 -29 -121q105 40 105 166q0 50 -20 87.5t-51.5 60.5
t-69.5 42.5t-76.5 38.5t-70 42t-51.5 60t-20 86q0 26 5 46l133 23q-6 -18 -6 -38q0 -34 19.5 -59.5t51.5 -44t70 -36.5t76 -43t70 -57t51.5 -85.5t19.5 -122.5z" />
    <glyph glyph-name="bnE" unicode="&#x98f;" horiz-adv-x="754" 
d="M674 0h-130q-15 58 -144 58q-18 0 -63 -0.5t-59 -0.5q-113 0 -176.5 52.5t-63.5 145.5q0 71 44 126l127 -53q-31 -29 -31 -72q0 -81 140 -81q16 0 48.5 1t47.5 1q93 0 136 -32h4q-13 61 -13 219v170q0 26 -21 26q-43 0 -92.5 -49.5t-49.5 -92.5q0 -39 34 -39q26 0 43 19
l44 -98q-37 -33 -101 -33q-73 0 -112.5 40t-39.5 108q0 92 84.5 179t199.5 87q144 0 144 -131v-550z" />
    <glyph glyph-name="bnAI" unicode="&#x990;" horiz-adv-x="854" 
d="M853 607q0 -71 -49 -126.5t-130 -66.5v-414h-130q-15 58 -144 58q-18 0 -63 -0.5t-59 -0.5q-113 0 -176.5 52.5t-63.5 145.5q0 71 44 126l127 -53q-31 -29 -31 -72q0 -81 140 -81q16 0 48.5 1t47.5 1q93 0 136 -32h4q-13 61 -13 219v170q0 26 -21 26q-43 0 -92.5 -49.5
t-49.5 -92.5q0 -39 34 -39q26 0 43 19l44 -98q-37 -33 -101 -33q-73 0 -112.5 40t-39.5 108q0 92 84.5 179t199.5 87q144 0 144 -131v-18q45 21 45 75q0 38 -25.5 62t-79.5 40l-195 60q-80 25 -131.5 72.5t-51.5 118.5q0 60 42 107l125 -51q-27 -26 -27 -57
q0 -30 27.5 -48.5t80.5 -34.5l157 -49q110 -34 161 -88t51 -132z" />
    <glyph glyph-name="bnO" unicode="&#x993;" horiz-adv-x="637" 
d="M545 495q0 -74 -51 -130q103 -60 103 -171q0 -85 -59.5 -144.5t-162.5 -59.5q-74 0 -136.5 36t-104.5 96.5t-69.5 124t-44.5 133.5l127 50q25 -138 87 -225t140 -87q41 0 64 22.5t23 59.5q0 32 -21.5 57.5t-50.5 37.5q-34 -15 -66 -23l-69 111q156 36 156 115
q0 30 -19 45t-48 15q-55 0 -107 -56l-89 92q78 85 194 85q85 0 144.5 -49t59.5 -135z" />
    <glyph glyph-name="bnAU" unicode="&#x994;" horiz-adv-x="799" 
d="M769 572q0 -98 -63.5 -151t-152.5 -53q-36 0 -53 4q-1 -1 -3 -3.5t-3 -3.5q103 -60 103 -171q0 -85 -59.5 -144.5t-162.5 -59.5q-74 0 -136.5 36t-104.5 96.5t-69.5 124t-44.5 133.5l127 50q25 -138 87 -225t140 -87q41 0 64 22.5t23 59.5q0 32 -21.5 57.5t-50.5 37.5
q-34 -15 -66 -23l-69 111q156 36 156 115q0 30 -19 45t-48 15q-55 0 -107 -56l-89 92q78 85 194 85q85 0 144.5 -49t59.5 -135q0 -10 -2 -28q87 20 87 104q0 37 -26.5 67.5t-65.5 49.5t-85.5 43t-85.5 48.5t-65.5 66.5t-26.5 95q0 60 42 107l125 -52q-27 -26 -27 -57
q0 -35 36.5 -63.5t88.5 -52.5t104 -53t88.5 -79.5t36.5 -118.5z" />
    <glyph glyph-name="bnKA" unicode="&#x995;" horiz-adv-x="737" 
d="M517 69l-96 -81l-386 257v120q141 105 294 130v67h-349v109h777v-109h-293v-59q114 -7 176.5 -69.5t62.5 -146.5q0 -60 -31 -108.5t-85 -74.5l-86 98q33 11 53.5 35t20.5 55q0 37 -29.5 62t-81.5 28v-278zM166 300l167 -109h4q-8 67 -8 175v6q-86 -20 -163 -72z" />
    <glyph glyph-name="bnKHA" unicode="&#x996;" horiz-adv-x="727" 
d="M703 84l-87 -101l-571 247v113q146 8 212 46.5t66 94.5q0 24 -9 36q-43 -96 -148 -96q-70 0 -118.5 44t-48.5 109q0 57 30 94h133q-27 -43 -27 -82q0 -22 12.5 -35.5t35.5 -13.5q32 0 53.5 31t47.5 100h59q42 -30 73.5 -79.5t31.5 -110.5q0 -162 -179 -205v-4l245 -106
l3 2q-8 118 -8 235v370h138v-102h100v-109h-100v-454z" />
    <glyph glyph-name="bnGA" unicode="&#x997;" horiz-adv-x="687" 
d="M607 0h-139v365q0 85 -47 131.5t-124 46.5q-76 0 -124 -48q25 7 57 7q59 0 103.5 -38t44.5 -107q0 -68 -51 -133t-139 -112l-102 105q152 73 152 146q0 21 -15 35.5t-43 14.5q-40 0 -75 -12l-85 96q33 73 103.5 123.5t161.5 50.5q130 0 203 -78h4q-25 69 -25 156v24h140
v-102h100v-109h-100v-562z" />
    <glyph glyph-name="bnGHA" unicode="&#x998;" horiz-adv-x="648" 
d="M624 81l-83 -97l-491 211v109l41 25q18 11 37.5 19.5t29.5 11.5l11 3v5q-54 10 -89 39.5t-35 80.5q0 42 26 74h-91v109h688v-109h-100v-457zM440 160l3 2q-14 44 -14 137v263h-209q-35 -25 -35 -66q0 -27 18.5 -45t53.5 -18q33 0 74 27l52 -109l-171 -93z" />
    <glyph glyph-name="bnNGA" unicode="&#x999;" horiz-adv-x="725" 
d="M407 504q60 0 60 49q0 16 -11 26t-29 10q-38 0 -38 -39v-45q6 -1 18 -1zM693 241q0 -101 -78.5 -173t-212.5 -72q-165 0 -266.5 111t-103.5 270l123 25q1 -74 22.5 -131t57.5 -89.5t78 -48.5t89 -16q72 0 115.5 34t43.5 81q0 22 -7 34q-80 -40 -148 -40q-71 0 -108.5 41
t-37.5 110v67q-73 39 -124 118h-156v109h240q21 -66 51 -103q2 49 43 84.5t109 35.5q70 0 116.5 -39.5t46.5 -100.5q0 -66 -48.5 -102.5t-128.5 -36.5q-13 0 -20 1v-33q0 -32 26 -32q64 0 184 74q94 -64 94 -178z" />
    <glyph glyph-name="bnCA" unicode="&#x99a;" horiz-adv-x="543" 
d="M507 256q0 -98 -76 -180.5t-188 -82.5q-82 0 -125 42.5t-43 115.5v411h-95v109h583v-109h-362v-4q0 -34 24 -57t89 -46l37 -13q77 -27 116.5 -69.5t39.5 -116.5zM209 150q0 -36 41 -36q42 0 83.5 43.5t41.5 97.5q0 49 -67 72l-28 10q-50 18 -74 39h-4q7 -50 7 -132v-94z
" />
    <glyph glyph-name="bnCHA" unicode="&#x99b;" horiz-adv-x="622" 
d="M190 363q0 -20 21 -20q25 0 40 16t15 39q0 21 -36.5 33t-39.5 15v-83zM514 -93q-176 87 -239.5 115.5t-103 40t-105.5 19.5v110h146q113 0 169 34.5t56 89.5q0 63 -52 74q-2 -64 -51.5 -109t-123.5 -45q-70 0 -109 32t-39 88v206h-82v109h662v-109h-448q3 -12 22 -20
t51 -18t52 -21q28 7 58 7q85 0 140.5 -52.5t55.5 -143.5q0 -79 -54 -135.5t-159 -72.5v-4q48 -12 125 -47l112 -51z" />
    <glyph glyph-name="bnJA" unicode="&#x99c;" horiz-adv-x="891" 
d="M792 -14h-138v142q0 136 50 212q-92 10 -151.5 55t-84.5 102q-77 -58 -77 -107q0 -23 39 -28l109 -13q62 -62 62 -140q0 -79 -62.5 -139.5t-172.5 -60.5q-140 0 -236 101.5t-119 252.5l127 46q13 -119 73.5 -197t152.5 -78q48 0 73 20.5t25 51.5q0 19 -10 34l-83 10
q-126 15 -126 113q0 105 119 199h-382v109h931v-109h-342q16 -45 65 -75t130 -30h33l48 -104q-53 -95 -53 -235v-132z" />
    <glyph glyph-name="bnJHA" unicode="&#x99d;" horiz-adv-x="820" 
d="M538 75l-89 -91l-414 241v111q46 49 131.5 105.5t185.5 83.5v37h-372v109h509v-295l120 -75h4q-12 38 -12 156v316h139v-102h100v-109h-100v-352l-121 -56l-130 81v-131zM177 284l183 -106h4q-12 37 -12 156v60q-56 -21 -105.5 -54t-69.5 -56z" />
    <glyph glyph-name="bnNYA" unicode="&#x99e;" horiz-adv-x="1023" 
d="M679 0h-135q0 64 -43 87t-158 32q-158 12 -235.5 70.5t-77.5 156.5q0 71 42 126l125 -47q-27 -33 -27 -79q0 -47 43.5 -74t140.5 -34q65 -5 105 -13t56.5 -15.5t40.5 -22.5h4q-19 77 -19 189v144q0 38 -41 38q-45 0 -80 -34.5t-35 -76.5q0 -43 37 -43q26 0 43 19l44 -95
q-35 -31 -106 -31q-76 0 -114.5 37.5t-38.5 102.5q0 95 75.5 169.5t191.5 74.5q92 0 120 -61q55 65 156 65q79 0 123.5 -39.5t44.5 -104.5q0 -42 -23 -73.5t-62 -41.5v-4q47 -11 73 -42t26 -78q0 -61 -43.5 -104.5t-121.5 -43.5q-38 0 -80.5 13.5t-61.5 38.5q11 -50 11 -159
v-47zM674 421q0 -70 31.5 -112.5t82.5 -42.5q23 0 38 12.5t15 35.5q0 52 -75 52h-26v109h26q62 0 62 55q0 21 -13.5 33t-38.5 12q-41 0 -71.5 -39.5t-30.5 -114.5z" />
    <glyph glyph-name="bnTTA" unicode="&#x99f;" horiz-adv-x="559" 
d="M487 689q0 -12 -1 -18h93v-109h-370v-348q0 -47 45 -47q47 0 87.5 39t40.5 85q0 50 -44 50q-24 0 -37 -16l-57 107q17 15 46 25.5t56 10.5q72 0 120 -45t48 -131q0 -93 -79 -172.5t-194 -79.5q-81 0 -123.5 46t-42.5 117v359h-95v109h373v9q0 39 -23.5 54.5t-74.5 15.5
h-23q-119 0 -175.5 52t-56.5 127q0 9 2 25l133 21q-3 -13 -3 -27q0 -82 106 -82h44q87 0 146 -46.5t59 -130.5z" />
    <glyph glyph-name="bnTTHA" unicode="&#x9a0;" horiz-adv-x="598" 
d="M561 237q0 -107 -69 -176.5t-182 -69.5q-127 0 -205 84t-78 204q202 52 202 201v76l-5 6h-244v109h166q-43 62 -43 124q0 80 52.5 129t140.5 44l26 -120q-39 5 -60 -11.5t-21 -48.5q0 -53 47 -117h330v-109h-243q46 -50 71.5 -80.5t56 -74.5t44.5 -85.5t14 -84.5z
M183 213q6 -35 39 -68.5t90 -33.5q50 0 83 35.5t33 89.5q0 35 -13.5 69t-29 56t-45.5 59q-6 -88 -53 -138t-104 -69z" />
    <glyph glyph-name="bnDDA" unicode="&#x9a1;" horiz-adv-x="726" 
d="M746 562h-348v-128q0 -33 25 -33q20 0 70 26t98 60q42 -26 71 -77.5t29 -110.5q0 -110 -80.5 -185t-212.5 -75q-161 0 -261 113.5t-102 277.5l131 30q0 -148 69 -222.5t163 -74.5q72 0 116 37.5t44 90.5q0 22 -9 40q-70 -55 -147 -55q-70 0 -106.5 41t-36.5 112v133h-279
v109h766v-109z" />
    <glyph glyph-name="bnDDHA" unicode="&#x9a2;" horiz-adv-x="569" 
d="M525 287q0 -100 -77 -178.5t-190 -78.5q-92 0 -137.5 45.5t-45.5 117.5v369h-95v109h607v-109h-378v-358q0 -47 50 -47q49 0 91.5 39.5t42.5 90.5q0 26 -11.5 40t-30.5 14q-25 0 -42 -21l-57 108q46 40 105 40q71 0 119.5 -48.5t48.5 -132.5z" />
    <glyph glyph-name="bnNNA" unicode="&#x9a3;" horiz-adv-x="665" 
d="M585 0h-141v293q0 255 -156 255q-52 0 -81 -26.5t-29 -72.5q0 -38 23.5 -60t63.5 -22q39 0 74 29l44 -119q-48 -37 -121 -37q-104 0 -162.5 60t-58.5 149q0 98 62 159.5t170 61.5q126 0 190 -89l5 3q-20 46 -20 159v30h137v-102h100v-109h-100v-562z" />
    <glyph glyph-name="bnTA" unicode="&#x9a4;" horiz-adv-x="721" 
d="M682 290q0 -120 -75 -193.5t-197 -73.5q-152 0 -245.5 112t-135.5 307l127 56q27 -159 90.5 -254.5t162.5 -95.5q64 0 100.5 41.5t36.5 103.5q0 43 -17.5 70t-48.5 27q-19 0 -32.5 -12t-13.5 -31q0 -38 40 -51l-86 -82q-41 16 -66.5 55t-25.5 89q0 69 49 113t124 44
q99 0 156 -63.5t57 -161.5zM741 562h-761v109h761v-109z" />
    <glyph glyph-name="bnTHA" unicode="&#x9a5;" horiz-adv-x="712" 
d="M687 84l-86 -101l-551 237v122q142 3 201 44.5t59 95.5q0 31 -18 50.5t-48 19.5q-31 0 -46.5 -16t-15.5 -40q0 -31 24 -53l-116 -55q-47 45 -47 110q0 78 55 127t142 49q86 0 145 -50t59 -140q0 -74 -50 -133t-143 -78v-4l246 -107h4q-8 67 -8 175v436h139v-102h100v-109
h-100v-453z" />
    <glyph glyph-name="bnDA" unicode="&#x9a6;" horiz-adv-x="584" 
d="M497 0h-140v151q0 115 34 191q-44 -28 -97.5 -84.5t-86.5 -112.5l-132 48v369h-95v109h624v-109h-389v-209q36 42 96 82.5t121 62.5l106 -62q-41 -107 -41 -284v-152z" />
    <glyph glyph-name="bnDHA" unicode="&#x9a7;" horiz-adv-x="621" 
d="M592 84l-81 -99l-449 211v113l56 33l63 32v5q-50 9 -90 44t-40 96q0 74 48.5 117t129.5 43q63 0 114 -25l-35 -105q-29 13 -62 13q-60 0 -60 -51q0 -26 23.5 -41.5t65.5 -15.5q59 0 130 44v173h237v-109h-101v-454zM413 168h4q-12 86 -12 186v11l-191 -104z" />
    <glyph glyph-name="bnNA" unicode="&#x9a8;" horiz-adv-x="676" 
d="M596 0h-140v6q0 73 -26 147.5t-74.5 126.5t-105.5 52q-33 0 -52 -15t-19 -44q0 -41 35 -65l-125 -52q-51 44 -51 118q0 87 56.5 136t147.5 49q146 0 219 -117l4 1q-9 67 -9 141v78h-475v109h715v-109h-100v-562z" />
    <glyph glyph-name="bnPA" unicode="&#x9aa;" horiz-adv-x="697" 
d="M187 529q92 -29 129 -133l125 84q-47 84 -142 84q-63 0 -112 -35zM617 0h-138v305q0 30 -3 59l-279 -193l-67 99l87 58q-31 91 -93 112q-20 7 -42 8l-64 94q41 58 112 98t159 40q75 0 128 -29t82 -66l3 2q-25 74 -25 163v23h140v-102h100v-109h-100v-562z" />
    <glyph glyph-name="bnPHA" unicode="&#x9ab;" horiz-adv-x="809" 
d="M561 75l-87 -91l-424 236v111l120 91l-120 101v39h-70v109h849v-109h-639v-4l111 -93v-94l-115 -87l199 -110h4q-12 86 -12 195v111q69 38 165 38q97 0 160 -53t63 -147q0 -136 -131 -190l-69 108q28 7 49.5 28t21.5 56q0 38 -23 58t-60 20q-18 0 -39 -7v-289z" />
    <glyph glyph-name="bnBA" unicode="&#x9ac;" horiz-adv-x="569" 
d="M538 75l-89 -91l-414 241v111q46 49 131.5 105.5t185.5 83.5v37h-372v109h609v-109h-100v-458zM177 284l183 -106h4q-12 37 -12 156v60q-56 -21 -105.5 -54t-69.5 -56z" />
    <glyph glyph-name="bnBHA" unicode="&#x9ad;" horiz-adv-x="791" 
d="M757 278q0 -112 -77 -185t-225 -73q-72 0 -134.5 23.5t-109 62t-85.5 92t-65 108.5t-45 118l119 64q13 -46 30 -87.5t45.5 -89t62 -82t81.5 -57t103 -22.5q82 0 124.5 38t42.5 97q0 40 -18 65h-4q-12 -40 -51.5 -73.5t-105.5 -33.5q-76 0 -119 42.5t-43 105.5q0 43 19 81
l129 -17q-15 -25 -15 -54q0 -41 41 -41q61 0 101 133h103q35 -28 65.5 -86.5t30.5 -128.5zM811 562h-831v109h831v-109z" />
    <glyph glyph-name="bnMA" unicode="&#x9ae;" horiz-adv-x="624" 
d="M644 562h-100v-562h-127q-18 66 -59 122.5t-96 89.5q-37 -69 -105 -69q-40 0 -68 24.5t-28 67.5q0 40 24 70t66 42q-7 61 -40 113.5t-80 79.5v22h-51v109h664v-109zM416 235l4 2q-10 55 -10 187v138h-214v-5q29 -29 56 -87t31 -134q82 -31 133 -101z" />
    <glyph glyph-name="bnYA" unicode="&#x9af;" horiz-adv-x="594" 
d="M389 174q-12 86 -12 195v193h-187v-4l111 -93v-94l-115 -87l199 -110h4zM561 75l-87 -91l-424 236v111l120 91l-120 101v39h-70v109h634v-109h-100v-460z" />
    <glyph glyph-name="bnRA" unicode="&#x9b0;" horiz-adv-x="569" 
d="M227 -40q0 -38 -23 -61t-58 -23t-58.5 23t-23.5 61q0 37 23.5 60t58.5 23t58 -22.5t23 -60.5zM538 75l-89 -91l-414 241v111q46 49 131.5 105.5t185.5 83.5v37h-372v109h609v-109h-100v-458zM177 284l183 -106h4q-12 37 -12 156v60q-56 -21 -105.5 -54t-69.5 -56z" />
    <glyph glyph-name="bnLA" unicode="&#x9b2;" horiz-adv-x="783" 
d="M703 0h-138v334q-17 35 -63 35q-31 0 -50 -21.5t-19 -59.5v-32h-128v32q0 78 -61 78q-28 0 -47.5 -20.5t-19.5 -58.5q0 -48 30.5 -76t78.5 -28q32 0 58 12l17 -120q-36 -11 -83 -11q-110 0 -174.5 62t-64.5 158q0 93 57 149t135 56q56 0 92 -24.5t47 -56.5h4
q8 34 38.5 58.5t71.5 24.5q52 0 76 -24h5v95h-585v109h823v-109h-100v-562z" />
    <glyph glyph-name="bnSHA" unicode="&#x9b6;" horiz-adv-x="719" 
d="M639 0h-138v431q0 59 -30 90.5t-79 31.5q-41 0 -67.5 -25.5t-26.5 -68.5q0 -42 26.5 -66t67.5 -24q23 0 43 7v-122q-17 -7 -51 -7q-93 0 -154 67q-60 -70 -154 -70q-15 0 -30.5 2.5t-23.5 5.5l-7 2v120q22 -8 53 -8q44 0 69 24t25 70q0 45 -25 73.5t-74 28.5h-83v109h90
q102 0 161 -64q64 67 162 67q80 0 122 -47h4q-14 54 -14 114v32h134v-102h100v-109h-100v-562z" />
    <glyph glyph-name="bnSSA" unicode="&#x9b7;" horiz-adv-x="622" 
d="M576 75l-87 -91l-439 236v111l119 106l-119 86v39h-70v109h662v-109h-113v-462zM190 558l202 -146v150h-202v-4zM400 169h4q-6 37 -9 105l-121 88l-88 -78z" />
    <glyph glyph-name="bnSA" unicode="&#x9b8;" horiz-adv-x="698" 
d="M618 0h-141v244q0 17 -9 26.5t-25 9.5q-13 0 -26.5 -8.5t-22.5 -18.5t-26 -30.5t-27 -31.5q-73 -81 -161 -81q-74 0 -121.5 37t-68.5 92l105 64q15 -34 33.5 -52.5t50.5 -18.5t49.5 21t17.5 53q0 50 -25 91t-70 87l-38 39v39h-133v109h737v-109h-99v-562zM348 412
q5 -20 7 -44q50 45 86 45q22 0 39 -7q-3 35 -3 89v67h-219v-4l28 -34q48 -59 62 -112z" />
    <glyph glyph-name="bnHA" unicode="&#x9b9;" horiz-adv-x="506" 
d="M481 27l-92 -93q-22 13 -59 36q-128 78 -171 97.5t-104 24.5v110h68q91 0 142.5 31.5t51.5 89.5q0 38 -19.5 61t-53.5 23q-22 0 -36 -12t-14 -33q0 -34 39 -48l-92 -69q-42 16 -63.5 50.5t-21.5 78.5q0 66 51 111t138 45q93 0 150 -58t57 -149q0 -84 -50 -132.5
t-128 -59.5v-4q56 -13 135 -58zM526 562h-546v109h546v-109z" />
    <glyph glyph-name="bnNukta" unicode="&#x9bc;" 
d="M-408 -109q0 -38 -23 -61.5t-58 -23.5q-36 0 -59.5 23.5t-23.5 61.5t23.5 60.5t59.5 22.5q35 0 58 -22.5t23 -60.5z" />
    <glyph glyph-name="bnAvagraha" unicode="&#x9bd;" horiz-adv-x="498" 
d="M450 -7q-34 16 -88 41.5t-75.5 36t-57 27t-51.5 22.5t-38.5 14t-38 11t-31.5 4v110h61q167 0 167 93q0 33 -14.5 53t-41.5 20q-19 0 -29.5 -11.5t-10.5 -29.5q0 -29 31 -41l-80 -57q-77 28 -77 110q0 71 61 108q-27 58 -113 58h-14v109h19q176 0 227 -142
q77 -4 123.5 -53.5t46.5 -123.5q0 -73 -43.5 -115.5t-114.5 -52.5v-4q29 -3 50.5 -9.5t72.5 -28.5l127 -54z" />
    <glyph glyph-name="bnmAA" unicode="&#x9be;" horiz-adv-x="300" 
d="M220 0h-140v445q0 70 -22.5 93.5t-73.5 23.5h-4v109h41q54 0 82 -35h7q-24 63 -24 127v10h134v-102h100v-109h-100v-562z" />
    <glyph glyph-name="bnmI" unicode="&#x9bf;" horiz-adv-x="299" 
d="M219 0h-139v562h-100v109h100v64q0 101 71 166.5t197 65.5q195 0 347 -115l-77 -99q-123 91 -267 91q-63 0 -97.5 -30.5t-34.5 -86.5v-56h100v-109h-100v-562z" />
    <glyph glyph-name="bnmII" unicode="&#x9c0;" horiz-adv-x="300" 
d="M220 0h-140v562h-100v109h100q-7 83 -58.5 138.5t-127.5 79.5t-175 24q-120 0 -120 -50q0 -42 112 -42q90 0 196 25l13 -11v-164h-125v57q-38 -14 -120 -14q-99 0 -159 40.5t-60 111.5q0 73 68.5 118t185.5 45q210 0 355 -99.5t155 -258.5h100v-109h-100v-562z" />
    <glyph glyph-name="bnmU" unicode="&#x9c1;" 
d="M-293 -255q34 0 55.5 29.5t21.5 73.5v14q-37 14 -73 14q-37 0 -58.5 -18t-21.5 -50q0 -29 20 -46t56 -17zM22 -335q-61 71 -113 116q-39 -144 -206 -144q-91 0 -146 49t-55 123q0 78 53.5 126.5t131.5 48.5q50 0 97 -12v90h136v-151q93 -58 192 -172z" />
    <glyph glyph-name="bnmUU" unicode="&#x9c2;" 
d="M120 -324l-89 -74q-45 52 -87 92q-62 -57 -167 -57q-91 0 -146 48.5t-55 122.5q0 72 45 119t114 56q15 3 49 1v78h136v-189q-41 13 -105 13q-51 0 -80 -20t-29 -57q0 -30 20 -47.5t56 -17.5q90 0 160 105q104 -84 178 -173z" />
    <glyph glyph-name="bnmvR" unicode="&#x9c3;" 
d="M62 -232l-77 -90l-367 183l191 195l111 -56l-103 -110z" />
    <glyph glyph-name="bnmvRR" unicode="&#x9c4;" 
d="M-92 -323l-90 -74l-248 187l166 176l98 -63l-92 -98zM123 -235l-69 -57l-166 125l130 147l84 -45l-82 -92z" />
    <glyph glyph-name="bnmE" unicode="&#x9c7;" horiz-adv-x="308" 
d="M315 81l-64 -110q-93 30 -149.5 111.5t-56.5 206.5q0 145 66 273h-131v109h348v-109h-72q-73 -144 -73 -274q0 -153 132 -207z" />
    <glyph glyph-name="bnmAI" unicode="&#x9c8;" horiz-adv-x="308" 
d="M299 689q0 -12 -1 -18h30v-109h-72q-73 -144 -73 -274q0 -153 132 -207l-64 -110q-93 30 -149.5 111.5t-56.5 206.5q0 145 66 273h-131v109h185v9q0 33 -20.5 49t-69.5 21q-221 23 -221 179q0 9 2 25l133 21q-3 -13 -3 -27q0 -69 110 -82q103 -12 153 -53.5t50 -123.5z
" />
    <glyph glyph-name="bnmO" unicode="&#x9cb;" horiz-adv-x="1268" 
d="M315 81l-64 -110q-93 30 -149.5 111.5t-56.5 206.5q0 145 66 273h-131v109h348v-109h-72q-73 -144 -73 -274q0 -153 132 -207zM594 90q0 -20 -12.5 -33t-31.5 -13t-32 13t-13 33q0 18 13 31t32 13t31.5 -13t12.5 -31zM492 165q0 -19 -12.5 -31.5t-31.5 -12.5
q-20 0 -32 12.5t-12 31.5t12.5 31.5t31.5 12.5t31.5 -12.5t12.5 -31.5zM440 281q0 -19 -12.5 -31t-31.5 -12t-31.5 12t-12.5 31t12.5 32t31.5 13t31.5 -12.5t12.5 -32.5zM721 74q0 -19 -12.5 -31.5t-32.5 -12.5t-32 12t-12 32t12 32t32 12t32.5 -12.5t12.5 -31.5zM455 407
q0 -19 -13 -31.5t-31 -12.5q-20 0 -33 12.5t-13 31.5t13 31.5t33 12.5q18 0 31 -12.5t13 -31.5zM842 127q0 -19 -13 -31.5t-32 -12.5t-31.5 12.5t-12.5 31.5t12.5 31.5t31.5 12.5t32 -12.5t13 -31.5zM535 517q0 -20 -12.5 -32.5t-31.5 -12.5t-31.5 12.5t-12.5 32.5
q0 19 12.5 31.5t31.5 12.5t31.5 -12.5t12.5 -31.5zM914 225q0 -19 -12.5 -31.5t-30.5 -12.5q-19 0 -32 12.5t-13 31.5t13 32t32 13q18 0 30.5 -13t12.5 -32zM653 560q0 -20 -12.5 -32t-31.5 -12t-31.5 12t-12.5 32t12.5 32t31.5 12t31.5 -12t12.5 -32zM924 359
q0 -19 -12.5 -31.5t-31.5 -12.5q-20 0 -32 12.5t-12 31.5t12 31.5t32 12.5q19 0 31.5 -12.5t12.5 -31.5zM779 545q0 -18 -12.5 -31t-30.5 -13q-19 0 -32 13t-13 31q0 19 12.5 32t32.5 13q19 0 31 -12.5t12 -32.5zM874 477q0 -19 -12.5 -31.5t-31.5 -12.5t-31.5 12.5
t-12.5 31.5t12.5 32t31.5 13t31.5 -12.5t12.5 -32.5zM1188 0h-140v445q0 70 -22.5 93.5t-73.5 23.5h-4v109h41q54 0 82 -35h7q-24 63 -24 127v10h134v-102h100v-109h-100v-562z" />
    <glyph glyph-name="bnmAU" unicode="&#x9cc;" horiz-adv-x="1268" 
d="M315 81l-64 -110q-93 30 -149.5 111.5t-56.5 206.5q0 145 66 273h-131v109h348v-109h-72q-73 -144 -73 -274q0 -153 132 -207zM594 90q0 -20 -12.5 -33t-31.5 -13t-32 13t-13 33q0 18 13 31t32 13t31.5 -13t12.5 -31zM492 165q0 -19 -12.5 -31.5t-31.5 -12.5
q-20 0 -32 12.5t-12 31.5t12.5 31.5t31.5 12.5t31.5 -12.5t12.5 -31.5zM440 281q0 -19 -12.5 -31t-31.5 -12t-31.5 12t-12.5 31t12.5 32t31.5 13t31.5 -12.5t12.5 -32.5zM721 74q0 -19 -12.5 -31.5t-32.5 -12.5t-32 12t-12 32t12 32t32 12t32.5 -12.5t12.5 -31.5zM455 407
q0 -19 -13 -31.5t-31 -12.5q-20 0 -33 12.5t-13 31.5t13 31.5t33 12.5q18 0 31 -12.5t13 -31.5zM842 127q0 -19 -13 -31.5t-32 -12.5t-31.5 12.5t-12.5 31.5t12.5 31.5t31.5 12.5t32 -12.5t13 -31.5zM535 517q0 -20 -12.5 -32.5t-31.5 -12.5t-31.5 12.5t-12.5 32.5
q0 19 12.5 31.5t31.5 12.5t31.5 -12.5t12.5 -31.5zM914 225q0 -19 -12.5 -31.5t-30.5 -12.5q-19 0 -32 12.5t-13 31.5t13 32t32 13q18 0 30.5 -13t12.5 -32zM653 560q0 -20 -12.5 -32t-31.5 -12t-31.5 12t-12.5 32t12.5 32t31.5 12t31.5 -12t12.5 -32zM924 359
q0 -19 -12.5 -31.5t-31.5 -12.5q-20 0 -32 12.5t-12 31.5t12 31.5t32 12.5q19 0 31.5 -12.5t12.5 -31.5zM779 545q0 -18 -12.5 -31t-30.5 -13q-19 0 -32 13t-13 31q0 19 12.5 32t32.5 13q19 0 31 -12.5t12 -32.5zM874 477q0 -19 -12.5 -31.5t-31.5 -12.5t-31.5 12.5
t-12.5 31.5t12.5 32t31.5 13t31.5 -12.5t12.5 -32.5zM1188 0h-140v562h-100v109h100v19q0 39 -16 54.5t-66 15.5h-50q-119 0 -175.5 52t-56.5 127q0 9 2 25l133 21q-3 -13 -3 -27q0 -82 106 -82h61q87 0 146 -46.5t59 -130.5v-28h100v-109h-100v-562z" />
    <glyph glyph-name="bnVirama" unicode="&#x9cd;" 
d="M68 -204l-73 -97l-223 153l73 106z" />
    <glyph glyph-name="bnTAkhanda" unicode="&#x9ce;" horiz-adv-x="557" 
d="M268 435q38 0 58 16t20 44t-21 44.5t-54 16.5q-74 0 -100 -72q28 -49 97 -49zM528 -11l-132 -17q1 33 1 38q0 11 -2.5 20.5t-6 16.5t-12.5 14.5t-14.5 11.5t-21 11t-24 10.5t-30 11.5t-33.5 13q-225 89 -225 288q0 119 63.5 190.5t174.5 71.5q90 0 147 -47.5t57 -127.5
q0 -77 -48.5 -121t-131.5 -44q-75 0 -125 34q13 -55 57.5 -89.5t124.5 -62.5q99 -35 141 -73t42 -111q0 -14 -2 -38z" />
    <glyph glyph-name="bnAUlengthmark" unicode="&#x9d7;" horiz-adv-x="300" 
d="M220 0h-140v562h-100v109h100v19q0 39 -16 54.5t-66 15.5h-50q-119 0 -175.5 52t-56.5 127q0 9 2 25l133 21q-3 -13 -3 -27q0 -82 106 -82h61q87 0 146 -46.5t59 -130.5v-28h100v-109h-100v-562z" />
    <glyph glyph-name="bnDDxA" unicode="&#x9dc;" horiz-adv-x="726" 
d="M475 -110q0 -38 -23 -61t-58 -23t-58.5 23t-23.5 61q0 37 23.5 60t58.5 23t58 -22.5t23 -60.5zM746 562h-348v-128q0 -33 25 -33q20 0 70 26t98 60q42 -26 71 -77.5t29 -110.5q0 -110 -80.5 -185t-212.5 -75q-161 0 -261 113.5t-102 277.5l131 30q0 -148 69 -222.5
t163 -74.5q72 0 116 37.5t44 90.5q0 22 -9 40q-70 -55 -147 -55q-70 0 -106.5 41t-36.5 112v133h-279v109h766v-109z" />
    <glyph glyph-name="bnDDHxA" unicode="&#x9dd;" horiz-adv-x="569" 
d="M328 -110q0 -38 -23 -61t-58 -23t-58.5 23t-23.5 61q0 37 23.5 60t58.5 23t58 -22.5t23 -60.5zM525 287q0 -100 -77 -178.5t-190 -78.5q-92 0 -137.5 45.5t-45.5 117.5v369h-95v109h607v-109h-378v-358q0 -47 50 -47q49 0 91.5 39.5t42.5 90.5q0 26 -11.5 40t-30.5 14
q-25 0 -42 -21l-57 108q46 40 105 40q71 0 119.5 -48.5t48.5 -132.5z" />
    <glyph glyph-name="bnYxA" unicode="&#x9df;" horiz-adv-x="594" 
d="M231 -33q0 -35 -21.5 -56.5t-53.5 -21.5q-33 0 -55 21.5t-22 56.5t22 56t55 21q32 0 53.5 -21t21.5 -56zM389 174q-12 86 -12 195v193h-187v-4l111 -93v-94l-115 -87l199 -110h4zM561 75l-87 -91l-424 236v111l120 91l-120 101v39h-70v109h634v-109h-100v-460z" />
    <glyph glyph-name="bnvRR" unicode="&#x9e0;" horiz-adv-x="795" 
d="M190 269l161 -93h4q-9 78 -9 145v36q-49 -15 -93 -41.5t-63 -46.5zM725 214l-116 -56l-130 74v-128l49 -29l-88 -91l-106 61l-52 -54l204 -121l-83 -87l-306 179l137 142l-179 104v118q61 62 146 103.5t157 55.5v4q-18 14 -47 34.5t-36 26.5q-53 -78 -152 -78
q-71 0 -112.5 40t-41.5 98q0 36 13 61h125q-13 -20 -13 -42t14 -35.5t34 -13.5q64 0 105 101h42q43 -22 64 -41q-9 51 -9 117v16h135v-399l121 -70h4q-13 41 -13 156v313h134v-102h90v-109h-90v-348z" />
    <glyph glyph-name="bnvLL" unicode="&#x9e1;" horiz-adv-x="656" 
d="M625 288q0 -137 -98.5 -212t-248.5 -84l-56 86q83 60 83 162q0 89 -68 89q-21 0 -34.5 -12t-13.5 -33q0 -46 58 -46l-26 -104q-71 1 -116 38.5t-45 111.5q0 75 49 117.5t120 42.5q90 0 139.5 -56.5t49.5 -144.5q0 -64 -29 -121q105 40 105 166q0 50 -20 87.5t-51.5 60.5
t-69.5 42.5t-76.5 38.5t-70 42t-51.5 60t-20 86q0 26 5 46l133 23q-6 -18 -6 -38q0 -34 19.5 -59.5t51.5 -44t70 -36.5t76 -43t70 -57t51.5 -85.5t19.5 -122.5zM700 -173q0 -90 -62 -125.5t-193 -35.5q-20 0 -66 2l-22 83q64 6 94 23.5t30 64.5q0 40 -36 40q-33 0 -33 -30
q0 -15 14 -31l-61 -36q-38 36 -38 79q0 48 32 76t76 28q59 0 90 -37t31 -89q0 -56 -31 -91q85 13 85 80q0 30 -22.5 83.5t-22.5 87.5q0 55 44 92l77 -50q-21 -21 -21 -53q0 -28 17.5 -76.5t17.5 -84.5z" />
    <glyph glyph-name="bnmvL" unicode="&#x9e2;" 
d="M110 -273q0 -90 -62 -125.5t-193 -35.5q-20 0 -66 2l-22 83q64 6 94 23.5t30 64.5q0 40 -36 40q-33 0 -33 -30q0 -15 14 -31l-61 -36q-38 36 -38 79q0 48 32 76t76 28q59 0 90 -37t31 -89q0 -56 -31 -91q85 13 85 80q0 30 -22.5 83.5t-22.5 87.5q0 55 44 92l77 -50
q-21 -21 -21 -53q0 -28 17.5 -76.5t17.5 -84.5z" />
    <glyph glyph-name="bnmvLL" unicode="&#x9e3;" 
d="M110 -273q0 -90 -62 -125.5t-193 -35.5q-20 0 -66 2l-22 83q64 6 94 23.5t30 64.5q0 40 -36 40q-33 0 -33 -30q0 -15 14 -31l-61 -36q-38 36 -38 79q0 48 32 76t76 28q59 0 90 -37t31 -89q0 -56 -31 -91q85 13 85 80q0 30 -22.5 83.5t-22.5 87.5q0 55 44 92l77 -50
q-21 -21 -21 -53q0 -25 11 -58q27 20 58 20q44 0 67 -28t23 -67q0 -31 -15 -50q59 11 59 59q0 23 -17 63t-17 65q0 42 33 69l58 -37q-16 -18 -16 -40q0 -21 13.5 -57.5t13.5 -63.5q0 -65 -47.5 -93t-144.5 -28h-9l-15 60q48 15 48 53q0 30 -32 30q-23 0 -41 -15q5 -22 5 -43
z" />
    <glyph glyph-name="bnZero" unicode="&#x9e6;" horiz-adv-x="649" 
d="M575 341q0 -121 -65 -198t-186 -77q-122 0 -183.5 75.5t-61.5 195.5q0 118 65 196.5t185 78.5q125 0 185.5 -75t60.5 -196zM214 343q0 -71 30 -115t85 -44q56 0 83.5 40.5t27.5 110.5q0 72 -30 115.5t-87 43.5q-51 0 -80 -41.5t-29 -109.5z" />
    <glyph glyph-name="bnOne" unicode="&#x9e7;" horiz-adv-x="540" 
d="M495 243q0 -102 -61.5 -172.5t-182.5 -70.5q-100 0 -159 49.5t-59 128.5q0 109 106 142l68 -94q-34 -15 -34 -48q0 -24 19 -38t57 -14q57 0 84 34t27 83q0 38 -21 71.5t-52 55.5t-68 48.5t-68 51t-52 62.5t-21 83q0 26 5 46l136 23q-6 -20 -6 -47q0 -34 21 -62.5
t52 -47.5t68 -45.5t68 -54t52 -75.5t21 -109z" />
    <glyph glyph-name="bnTwo" unicode="&#x9e8;" horiz-adv-x="490" 
d="M484 77l-92 -93l-391 234l77 101l33 -18q53 -29 98 -29q41 0 64 22t23 57q0 25 -17 46t-43 35t-56 31.5t-55.5 35.5t-43 48t-17.5 68q0 26 5 46l133 23q-6 -20 -6 -47q0 -23 17.5 -42.5t43.5 -34t56.5 -34t56.5 -40.5t43.5 -56t17.5 -79q0 -67 -39.5 -111.5t-110.5 -54.5
v-4q51 -14 132 -62z" />
    <glyph glyph-name="bnThree" unicode="&#x9e9;" horiz-adv-x="761" 
d="M702 330q0 -131 -80 -214t-215 -83q-166 0 -257.5 128.5t-91.5 365.5l123 40q0 -409 226 -409q79 0 119 51.5t40 123.5q0 137 -70 137q-22 0 -36.5 -15t-14.5 -42q0 -50 51 -71l-98 -72q-88 44 -88 148q0 74 46 125.5t130 51.5q107 0 161.5 -74t54.5 -191z" />
    <glyph glyph-name="bnFour" unicode="&#x9ea;" horiz-adv-x="526" 
d="M168 491q0 -71 87 -96q49 22 74.5 44.5t25.5 54.5t-27 51t-68 19q-39 0 -65.5 -19t-26.5 -54zM498 180q0 -90 -69 -140t-168 -50t-167.5 50t-68.5 141q0 100 113 162q-49 22 -75.5 62.5t-26.5 86.5q0 90 65.5 139.5t158.5 49.5t160.5 -50.5t67.5 -137.5q0 -101 -98 -160
q50 -21 79 -60.5t29 -92.5zM261 107q42 0 72 20.5t30 53.5q0 36 -26 60t-71 34q-51 -21 -77 -42.5t-26 -52.5q0 -35 27.5 -54t70.5 -19z" />
    <glyph glyph-name="bnFive" unicode="&#x9eb;" horiz-adv-x="648" 
d="M570 92l-23 -91q-252 1 -381 82.5t-129 239.5q0 141 105 235t274 118l40 -81q-5 -20 -5 -32q0 -86 120 -92l33 -112q-124 -35 -124 -126q0 -41 22 -74t68 -67zM173 318q0 -90 67 -136.5t169 -58.5q-29 28 -44.5 65.5t-15.5 69.5q0 92 88 154q-52 16 -74.5 42t-24.5 68
q-165 -58 -165 -204z" />
    <glyph glyph-name="bnSix" unicode="&#x9ec;" horiz-adv-x="697" 
d="M669 274q0 -118 -79 -189t-214 -71q-161 0 -261 113.5t-102 277.5l131 30q0 -148 69 -222.5t163 -74.5q74 0 117 35t43 93q0 27 -9 45q-70 -55 -135 -55q-70 0 -106.5 41t-36.5 112v85q0 50 -35 50q-25 0 -39 -17l-57 108q17 15 46 25.5t56 10.5q72 0 120 -45t48 -131
v-81q0 -33 25 -33q42 0 156 86q42 -26 71 -79.5t29 -113.5z" />
    <glyph glyph-name="bnSeven" unicode="&#x9ed;" horiz-adv-x="599" 
d="M239 354q55 0 94 21v122q0 47 -49 47t-91 -37.5t-42 -85.5q0 -35 25 -51t63 -16zM603 36q-17 -15 -46 -25.5t-56 -10.5q-74 0 -121 45.5t-47 131.5v74q-45 -21 -108 -21q-92 0 -149 48.5t-57 134.5q0 101 77.5 179.5t194.5 78.5q88 0 132 -45.5t44 -117.5v-331
q0 -50 40 -50q25 0 39 17z" />
    <glyph glyph-name="bnEight" unicode="&#x9ee;" horiz-adv-x="768" 
d="M306 127q45 0 71.5 39.5t26.5 91.5q0 73 -78 73q-34 0 -65 -18v-139q0 -47 45 -47zM536 258q0 -100 -62.5 -179t-174.5 -79q-81 0 -126.5 46.5t-45.5 116.5v331q0 50 -40 50q-25 0 -39 -17l-57 108q17 15 46 25.5t56 10.5q73 0 120.5 -44t47.5 -132v-56q41 19 85 19
q84 0 133 -43q24 32 85 32h5q33 0 46 13.5t13 47.5q0 31 -9 46l131 -18q8 -32 8 -72q0 -143 -161 -143h-9q-41 0 -54 -29q2 -22 2 -34z" />
    <glyph glyph-name="bnNine" unicode="&#x9ef;" horiz-adv-x="647" 
d="M622 248q0 -115 -79 -183.5t-201 -70.5l-65 70q31 50 31 104q0 48 -24 72t-63 24q-35 0 -57 -23t-22 -62q0 -32 18 -51t54 -19l-41 -114q-72 4 -114.5 53.5t-42.5 126.5q0 90 53 147t146 57q91 0 148.5 -52.5t57.5 -135.5q0 -41 -9 -74q77 46 77 129q0 53 -43.5 92
t-105 64.5t-123.5 52t-105.5 69.5t-43.5 101q0 26 5 46l136 23q-6 -20 -6 -40q0 -27 23 -49t60 -39.5t81.5 -35.5t89.5 -42t82 -54.5t60 -78t23 -107.5z" />
    <glyph glyph-name="asRA" unicode="&#x9f0;" horiz-adv-x="587" 
d="M554 76l-94 -98l-425 247v109q45 49 137.5 110t204.5 89v29h-397v109h627v-109h-100v-461zM175 287l214 -123h4q-6 16 -10 65l-161 96q-23 -17 -47 -38zM290 369l89 -52q0 66 3 95q-48 -17 -92 -43z" />
    <glyph glyph-name="asWA" unicode="&#x9f1;" horiz-adv-x="569" 
d="M538 75l-89 -91l-414 241v111q46 49 131.5 105.5t185.5 83.5v37h-372v109h609v-109h-100v-458zM255 15l-83 -93l-156 91l80 95zM177 284l183 -106h4q-12 37 -12 156v60q-56 -21 -105.5 -54t-69.5 -56z" />
    <glyph glyph-name="bnTaka" unicode="&#x9f2;" horiz-adv-x="430" 
d="M415 87l-119 -29q-27 180 -94 261t-193 99l29 123q167 -18 259.5 -130.5t117.5 -323.5z" />
    <glyph glyph-name="bnBangladeshitaka" unicode="&#x9f3;" horiz-adv-x="698" 
d="M642 293q0 -127 -71.5 -210t-207.5 -83q-100 0 -161.5 48t-61.5 141v148h-87v105h87v39q0 40 -12.5 54.5t-44.5 14.5h-30v121q28 2 46 2q177 0 177 -188v-43h53v-105h-53v-148q0 -69 87 -69q70 0 109.5 47t39.5 125q0 24 -13 37t-33 13q-24 0 -37 -16l-57 107
q17 15 46 25.5t56 10.5q72 0 120 -45t48 -131z" />
    <glyph glyph-name="bnNumeratorone" unicode="&#x9f4;" horiz-adv-x="421" 
d="M408 576q-38 -172 -115.5 -326t-174.5 -235l-92 92q97 89 159.5 213.5t109.5 293.5z" />
    <glyph glyph-name="bnNumeratortwo" unicode="&#x9f5;" horiz-adv-x="686" 
d="M658 574q-37 -166 -118.5 -324t-171.5 -235l-98 78q28 45 28 105q0 46 -21.5 71t-58.5 25q-22 0 -35.5 -12t-13.5 -33q0 -34 39 -48l-92 -69q-83 36 -83 129q0 67 46.5 111.5t132.5 44.5q80 0 129.5 -44.5t58.5 -113.5q78 125 145 355z" />
    <glyph glyph-name="bnNumeratorthree" unicode="&#x9f6;" horiz-adv-x="660" 
d="M627 622q0 -94 -11 -178.5t-39.5 -168.5t-72.5 -144.5t-115.5 -98t-163.5 -37.5q-89 0 -145 40.5t-56 114.5q0 119 153 142q49 8 67 25t18 57q0 23 -12 36.5t-34 13.5q-19 0 -31 -12t-12 -31q0 -21 15 -41l-105 -42q-32 32 -32 86q0 65 44.5 105t118.5 40q75 0 118 -44
t43 -114q0 -80 -38.5 -124.5t-125.5 -53.5q-63 -6 -63 -41q0 -42 72 -42q76 0 133 44.5t88 121.5t46 166.5t15 193.5z" />
    <glyph glyph-name="bnNumeratorfour" unicode="&#x9f7;" horiz-adv-x="300" 
d="M220 0h-140v671h140v-671z" />
    <glyph glyph-name="bnNumeratoroneless" unicode="&#x9f8;" horiz-adv-x="613" 
d="M538 39h-147v245l-184 -139l-132 48v398h140v-257l217 164l106 -62v-397z" />
    <glyph glyph-name="bnDenominatorsixteen" unicode="&#x9f9;" horiz-adv-x="605" 
d="M516 338q0 -94 -59.5 -153t-154.5 -59t-153.5 59t-58.5 153t58.5 153t153.5 59t154.5 -59t59.5 -153zM224 338q0 -39 20 -62t58 -23t58 23t20 62t-20 62t-58 23t-58 -23t-20 -62z" />
    <glyph glyph-name="bnIsshar" unicode="&#x9fa;" horiz-adv-x="673" 
d="M641 466q-19 -53 -40 -95.5t-52.5 -84t-68 -69.5t-87 -45.5t-109.5 -17.5q-98 0 -169.5 51t-98.5 123l107 63q54 -115 161 -115q46 0 84 19.5t68 58.5t50 76t45 94zM364 435q0 -33 -23.5 -55.5t-58.5 -22.5q-33 0 -56 23t-23 55q0 36 23 59.5t56 23.5q35 0 58.5 -23.5
t23.5 -59.5z" />
    <glyph glyph-name="bnGanda" unicode="&#x9fb;" horiz-adv-x="306" 
d="M423 -89l-78 -102l-218 161q-59 43 -86.5 88t-27.5 105q0 80 51 140t163 72l33 -122q-112 -15 -112 -92q0 -28 13.5 -47t44.5 -42z" />
    <glyph glyph-name="uni200C" unicode="&#x200c;" 
d="M24 -230h-47v1041h47v-1041z" />
    <glyph glyph-name="uni200D" unicode="&#x200d;" 
d="M128 593l-33 -33l-72 75v-865h-47v865l-69 -73l-33 33l93 93l-95 95l33 33l95 -95l96 95l32 -32l-96 -96z" />
    <glyph glyph-name="endash" unicode="&#x2013;" horiz-adv-x="485" 
d="M481 260h-477v121h477v-121z" />
    <glyph glyph-name="emdash" unicode="&#x2014;" horiz-adv-x="772" 
d="M768 260h-764v121h764v-121z" />
    <glyph glyph-name="quoteleft" unicode="&#x2018;" horiz-adv-x="286" 
d="M235 486q0 -36 -25 -61t-64 -25q-48 0 -76.5 33.5t-28.5 85.5q0 80 54.5 147t128.5 91l47 -67q-105 -46 -105 -113q0 -54 69 -77v-14z" />
    <glyph glyph-name="quoteright" unicode="&#x2019;" horiz-adv-x="286" 
d="M247 639q0 -80 -54.5 -147t-128.5 -91l-47 67q105 46 105 113q0 54 -69 77v14q0 36 25 61t64 25q48 0 76.5 -33.5t28.5 -85.5z" />
    <glyph glyph-name="quotesinglbase" unicode="&#x201a;" horiz-adv-x="295" 
d="M251 58q0 -80 -54.5 -147t-128.5 -91l-47 67q105 46 105 113q0 54 -69 77v14q0 36 25 61t64 25q48 0 76.5 -33.5t28.5 -85.5z" />
    <glyph glyph-name="quotedblleft" unicode="&#x201c;" horiz-adv-x="548" 
d="M497 486q0 -36 -25 -61t-64 -25q-48 0 -76.5 33.5t-28.5 85.5q0 80 54.5 147t128.5 91l47 -67q-105 -46 -105 -113q0 -54 69 -77v-14zM235 486q0 -36 -25 -61t-64 -25q-48 0 -76.5 33.5t-28.5 85.5q0 80 54.5 147t128.5 91l47 -67q-105 -46 -105 -113q0 -54 69 -77v-14z
" />
    <glyph glyph-name="quotedblright" unicode="&#x201d;" horiz-adv-x="548" 
d="M509 639q0 -80 -54.5 -147t-128.5 -91l-47 67q105 46 105 113q0 54 -69 77v14q0 36 25 61t64 25q48 0 76.5 -33.5t28.5 -85.5zM247 639q0 -80 -54.5 -147t-128.5 -91l-47 67q105 46 105 113q0 54 -69 77v14q0 36 25 61t64 25q48 0 76.5 -33.5t28.5 -85.5z" />
    <glyph glyph-name="quotedblbase" unicode="&#x201e;" horiz-adv-x="556" 
d="M511 58q0 -80 -54.5 -147t-128.5 -91l-47 67q105 46 105 113q0 54 -69 77v14q0 36 25 61t64 25q48 0 76.5 -33.5t28.5 -85.5zM249 58q0 -80 -54.5 -147t-128.5 -91l-47 67q105 46 105 113q0 54 -69 77v14q0 36 25 61t64 25q48 0 76.5 -33.5t28.5 -85.5z" />
    <glyph glyph-name="dagger" unicode="&#x2020;" horiz-adv-x="555" 
d="M355 -183h-156l15 625l-168 -12v135l168 -10l-15 206h156l-15 -206l169 10v-135l-169 13z" />
    <glyph glyph-name="daggerdbl" unicode="&#x2021;" horiz-adv-x="556" 
d="M356 -183h-156l15 206l-169 -10v135l164 -10v301l-163 -9v135l168 -10l-15 206h156l-15 -206l169 10v-135l-164 10v-301l163 9v-135l-168 10z" />
    <glyph glyph-name="bullet" unicode="&#x2022;" horiz-adv-x="471" 
d="M369 350q0 -55 -38 -93t-95 -38q-61 0 -97.5 37.5t-36.5 93.5q0 55 38 93t95 38q61 0 97.5 -37.5t36.5 -93.5z" />
    <glyph glyph-name="ellipsis" unicode="&#x2026;" horiz-adv-x="895" 
d="M846 87q0 -40 -29 -68t-71 -28q-40 0 -68.5 28t-28.5 68q0 43 28 72t69 29q43 0 71.5 -29t28.5 -72zM246 87q0 -40 -29 -68t-71 -28q-40 0 -68.5 28t-28.5 68q0 43 28 72t69 29q43 0 71.5 -29t28.5 -72zM546 87q0 -40 -29 -68t-71 -28q-40 0 -68.5 28t-28.5 68
q0 43 28 72t69 29q43 0 71.5 -29t28.5 -72z" />
    <glyph glyph-name="perthousand" unicode="&#x2030;" horiz-adv-x="1278" 
d="M770 616l-581 -587l-64 63l580 587zM384 524q0 -96 -45.5 -145.5t-128.5 -49.5q-168 0 -168 189q0 92 46 142t128 50q168 0 168 -186zM152 519q0 -105 62 -105q33 0 46.5 24.5t13.5 80.5q0 106 -64 106q-58 0 -58 -106zM840 186q0 -96 -45.5 -145.5t-128.5 -49.5
q-168 0 -168 189q0 92 46 142t128 50q168 0 168 -186zM608 181q0 -105 62 -105q33 0 46.5 24.5t13.5 80.5q0 106 -64 106q-58 0 -58 -106zM1236 186q0 -96 -45.5 -145.5t-128.5 -49.5q-168 0 -168 189q0 92 46 142t128 50q168 0 168 -186zM1004 181q0 -105 62 -105
q33 0 46.5 24.5t13.5 80.5q0 106 -64 106q-58 0 -58 -106z" />
    <glyph glyph-name="guilsinglleft" unicode="&#x2039;" horiz-adv-x="358" 
d="M332 101l-94 -75l-202 257l202 258l94 -75l-142 -183z" />
    <glyph glyph-name="guilsinglright" unicode="&#x203a;" horiz-adv-x="358" 
d="M332 283l-202 -257l-94 75l142 182l-142 183l94 75z" />
    <glyph glyph-name="fraction" unicode="&#x2044;" horiz-adv-x="183" 
d="M336 670l-413 -685l-75 40l414 686z" />
    <glyph glyph-name="Euro" unicode="&#x20ac;" horiz-adv-x="616" 
d="M601 72q-68 -82 -215 -82q-122 0 -187.5 58.5t-88.5 169.5h-74v105h64v50h-64v105h77q57 232 285 232q48 0 86.5 -8.5t64.5 -25t36.5 -25t24.5 -23.5l-100 -113q-18 22 -28.5 32.5t-37 22.5t-59.5 12q-106 0 -133 -104h215l-31 -105h-193v-20q0 -21 1 -30h179l-26 -105
h-138q28 -100 141 -100q30 0 56 12.5t36.5 23t26.5 29.5z" />
    <glyph glyph-name="indianrupee" unicode="&#x20b9;" horiz-adv-x="549" 
d="M425 0h-178l-142 166l-73 69l29 110q41 -9 81 -9.5t75 18.5t48 55h-223v103h221q-24 56 -118 56h-103v103h514l-48 -103h-144v-4q31 -22 47 -52h145l-48 -103h-86q-10 -54 -50.5 -92.5t-83.5 -53t-81 -13.5l-1 -4q46 -39 83 -82l136 -153v-11z" />
    <glyph glyph-name="trademark" unicode="&#x2122;" horiz-adv-x="661" 
d="M373 421h-76v280h104l59 -172l55 172h104v-280h-76v92l6 100h-4l-56 -162h-61l-56 163h-4q5 -30 5 -89v-104zM177 421h-82v213h-86v67h246v-67h-78v-213z" />
    <glyph glyph-name="minus" unicode="&#x2212;" horiz-adv-x="558" 
d="M526 290h-494v118h494v-118z" />
    <glyph glyph-name="uni25CC" unicode="&#x25cc;" horiz-adv-x="660" 
d="M286 90q0 -20 -12.5 -33t-31.5 -13t-32 13t-13 33q0 18 13 31t32 13t31.5 -13t12.5 -31zM184 165q0 -19 -12.5 -31.5t-31.5 -12.5q-20 0 -32 12.5t-12 31.5t12.5 31.5t31.5 12.5t31.5 -12.5t12.5 -31.5zM132 281q0 -19 -12.5 -31t-31.5 -12t-31.5 12t-12.5 31t12.5 32
t31.5 13t31.5 -12.5t12.5 -32.5zM413 74q0 -19 -12.5 -31.5t-32.5 -12.5t-32 12t-12 32t12 32t32 12t32.5 -12.5t12.5 -31.5zM147 407q0 -19 -13 -31.5t-31 -12.5q-20 0 -33 12.5t-13 31.5t13 31.5t33 12.5q18 0 31 -12.5t13 -31.5zM534 127q0 -19 -13 -31.5t-32 -12.5
t-31.5 12.5t-12.5 31.5t12.5 31.5t31.5 12.5t32 -12.5t13 -31.5zM227 517q0 -20 -12.5 -32.5t-31.5 -12.5t-31.5 12.5t-12.5 32.5q0 19 12.5 31.5t31.5 12.5t31.5 -12.5t12.5 -31.5zM606 225q0 -19 -12.5 -31.5t-30.5 -12.5q-19 0 -32 12.5t-13 31.5t13 32t32 13
q18 0 30.5 -13t12.5 -32zM345 560q0 -20 -12.5 -32t-31.5 -12t-31.5 12t-12.5 32t12.5 32t31.5 12t31.5 -12t12.5 -32zM616 359q0 -19 -12.5 -31.5t-31.5 -12.5q-20 0 -32 12.5t-12 31.5t12 31.5t32 12.5q19 0 31.5 -12.5t12.5 -31.5zM471 545q0 -18 -12.5 -31t-30.5 -13
q-19 0 -32 13t-13 31q0 19 12.5 32t32.5 13q19 0 31 -12.5t12 -32.5zM566 477q0 -19 -12.5 -31.5t-31.5 -12.5t-31.5 12.5t-12.5 31.5t12.5 32t31.5 13t31.5 -12.5t12.5 -32.5z" />
    <glyph glyph-name="bnK_SSA" horiz-adv-x="968" 
d="M988 562h-275v-112h10q107 0 160.5 -50t53.5 -131q0 -67 -36.5 -110t-86.5 -61l-67 101q24 6 44 25.5t20 46.5q0 31 -20 44.5t-60 13.5h-18v-345h-128q-12 61 -66.5 107.5t-128.5 58.5q-15 -43 -45 -65t-63 -22q-38 0 -64 23t-26 63q0 33 23.5 61t62.5 42q-13 55 -57 86
q-33 -65 -98 -65q-38 0 -64 23t-26 63q0 36 23 63t62 38q-10 57 -55 102h-83v109h1008v-109zM591 172q-11 75 -13 156h-30q-100 0 -148 47.5t-48 147.5v39h-147q32 -50 36 -110q59 -21 103 -71.5t54 -119.5q68 -8 119.5 -34t73.5 -55zM539 449h38v113h-96v-44
q0 -41 15.5 -55t42.5 -14z" />
    <glyph glyph-name="bnJ_NYA" horiz-adv-x="904" 
d="M407 366l114 -14q-85 65 -90 210h-4q-32 -27 -54.5 -74t-22.5 -83q0 -32 57 -39zM723 30q-99 0 -154 66q-64 -87 -197 -87q-140 0 -234 102t-117 254l121 44q13 -119 74.5 -197t153.5 -78q49 0 76 21t27 51q0 19 -10 34l-96 12q-148 18 -148 138q0 45 15.5 92.5
t38.5 79.5h-293v109h944v-109h-373q4 -56 30 -95q50 48 127 48q70 0 110.5 -38.5t40.5 -95.5q0 -37 -19.5 -64.5t-53.5 -38.5v-4q38 -10 61.5 -38t23.5 -69q0 -55 -39.5 -96t-108.5 -41zM602 274q0 -63 28 -100.5t74 -37.5q21 0 34 11t13 31q0 47 -67 47h-23v97h23
q27 0 41.5 13.5t14.5 36.5q0 18 -12.5 28.5t-34.5 10.5q-37 0 -64 -35t-27 -102z" />
    <glyph glyph-name="bnNull" 
 />
    <glyph glyph-name="bnReph" 
d="M188 969l-343 -249l-63 101l342 241z" />
    <glyph glyph-name="bnRAc2" 
d="M-79 -198h-129q-9 81 -98 81q-18 0 -48.5 -1t-61.5 -1q-50 0 -89 14.5t-62 36.5t-37.5 53.5t-19.5 61t-5 62.5l133 21q-2 -54 19 -93.5t77 -39.5q12 0 44 1.5t45 1.5q73 0 110 -40h4q-14 46 -14 122v76h132v-356z" />
    <glyph glyph-name="bnYAc2" horiz-adv-x="281" 
d="M243 182q0 -65 -36 -124.5t-98 -94.5l-98 81q96 61 96 139q0 48 -33 128.5t-33 133.5q0 71 42 113v4h-103v109h321v-109h-29q-38 0 -64 -30t-26 -82q0 -48 30.5 -131t30.5 -137z" />
    <glyph glyph-name="bnBAc2" 
d="M-24 -234l-80 -93l-391 176v125q142 88 285 148v22h130v-355zM-207 -152h6q-7 58 -9 140q-76 -34 -148 -72z" />
    <glyph glyph-name="bnK" horiz-adv-x="739" 
d="M760 562h-306v-33q118 -7 175.5 -60.5t57.5 -119.5t-36.5 -106t-88.5 -57l-62 100q64 11 64 63q0 60 -110 66v-285h-113l-286 125v118q44 44 114.5 86t155.5 60v43h-345v109h780v-109zM329 256h5q-9 72 -9 143q-74 -25 -145 -78z" />
    <glyph glyph-name="bnKH" horiz-adv-x="661" 
d="M581 139h-114l-469 144v105q276 0 276 128q0 22 -10 33q-36 -85 -134 -85q-67 0 -106.5 38t-39.5 99q0 36 16 70h118q-19 -29 -19 -61q0 -19 12.5 -31t35.5 -12q52 0 75 104h96q66 -72 66 -157q0 -73 -36.5 -118.5t-124.5 -64.5v-6l226 -67l4 3q-8 107 -8 214v298h136
v-102h100v-109h-100v-423z" />
    <glyph glyph-name="bnG" horiz-adv-x="611" 
d="M531 208h-120v214q0 73 -40.5 113t-106.5 40q-65 0 -106 -41q22 6 49 6q50 0 88.5 -33t38.5 -92q0 -53 -36.5 -105t-101.5 -92l-87 89q105 57 105 112q0 18 -13.5 30t-37.5 12q-47 0 -85 -18l-77 80q28 63 96.5 112.5t156.5 49.5q111 0 174 -67h4q-21 57 -21 134v21h120
v-102h100v-109h-100v-354z" />
    <glyph glyph-name="bnGH" horiz-adv-x="575" 
d="M495 113h-133l-321 138v95l36 22q16 10 33.5 17.5t26.5 10.5l9 2v4q-47 9 -78 35t-31 71q0 28 15 54h-72v109h615v-109h-100v-449zM383 220l3 2q-12 38 -12 120v220h-195q-19 -21 -19 -47q0 -23 16 -39.5t47 -16.5q28 0 65 24l45 -95l-150 -82z" />
    <glyph glyph-name="bnNG" horiz-adv-x="674" 
d="M377 523q26 0 39.5 13t13.5 34q0 16 -10 25t-26 9q-33 0 -33 -34v-46q5 -1 16 -1zM627 307q0 -85 -69 -146.5t-186 -61.5q-143 0 -232.5 94.5t-91.5 228.5l107 22q2 -121 65.5 -181.5t151.5 -60.5q63 0 101.5 29t38.5 69q0 18 -7 29q-69 -41 -130 -41t-93 34.5t-32 93.5
v57q-59 31 -100 89h-170v109h231l2 1q17 -55 44 -90q1 43 37 74.5t96 31.5q63 0 102.5 -31.5t39.5 -88.5q0 -60 -42 -92.5t-113 -32.5h-16v-27q0 -28 26 -28q49 0 158 71q82 -56 82 -152z" />
    <glyph glyph-name="bnC" horiz-adv-x="479" 
d="M183 266q0 -31 33 -31q39 0 72.5 25.5t33.5 71.5q0 24 -13.5 37.5t-42.5 24.5l-24 9q-40 15 -61 33h-4q6 -43 6 -113v-57zM499 562h-319q18 -29 91 -57l32 -12q67 -25 100.5 -60.5t33.5 -99.5q0 -82 -64.5 -144.5t-162.5 -62.5q-71 0 -108 36.5t-37 99.5v300h-85v109h519
v-109z" />
    <glyph glyph-name="bnCH" horiz-adv-x="526" 
d="M155 391q0 -17 18 -17q22 0 35 13.5t13 33.5q0 18 -32 29t-34 13v-72zM434 -1q-205 101 -256.5 121t-128.5 29v95h125q98 0 146 30t48 77q0 54 -45 64q-2 -55 -44.5 -94t-105.5 -39q-60 0 -94 27.5t-34 75.5v177h-65v109h566v-109h-387q3 -10 19 -17t43.5 -15.5
t45.5 -17.5q25 6 49 6q73 0 121 -45.5t48 -123.5q0 -68 -46.5 -116.5t-137.5 -62.5v-3q42 -11 108 -41l104 -47z" />
    <glyph glyph-name="bnJ" horiz-adv-x="749" 
d="M667 74h-108v120q0 107 35 178q-78 9 -129 48t-73 87q-65 -49 -65 -90q0 -20 33 -24l92 -11q53 -53 53 -119q0 -67 -53 -118.5t-147 -51.5q-119 0 -200 86.5t-100 214.5l107 39q12 -102 63 -168t129 -66q41 0 62 17.5t21 44.5q0 17 -9 28l-70 8q-107 14 -107 97
q0 90 102 168h-323v109h789v-109h-291q14 -37 55 -63t110 -26h29l40 -88q-45 -80 -45 -199v-112z" />
    <glyph glyph-name="bnJH" horiz-adv-x="621" 
d="M136 357l135 -79h4q-10 32 -10 119v41q-84 -31 -129 -81zM563 246l-93 -27l-100 66v-120h-108l-240 139v95q35 37 100.5 80.5t142.5 64.5v18h-285v109h390v-267l86 -55v424h107v-102h78v-109h-78v-316z" />
    <glyph glyph-name="bnNY" horiz-adv-x="864" 
d="M562 122h-111q0 53 -35.5 71.5t-130.5 26.5q-130 10 -193.5 58t-63.5 128q0 59 34 104l103 -39q-22 -28 -22 -65q0 -77 151 -89q77 -5 107 -14t59 -28h4q-16 64 -16 156v118q0 32 -34 32q-36 0 -65 -28.5t-29 -63.5t30 -35q22 0 36 16l36 -79q-29 -25 -87 -25
q-63 0 -94.5 30.5t-31.5 84.5q0 78 61.5 139.5t157.5 61.5q77 0 99 -50q46 53 128 53q65 0 101.5 -32.5t36.5 -85.5q0 -35 -18.5 -60.5t-50.5 -34.5v-3q81 -19 81 -99q0 -50 -36 -86t-100 -36q-31 0 -65.5 11t-50.5 32q9 -41 9 -131v-38zM557 468q0 -58 26 -93t68 -35
q19 0 31.5 10.5t12.5 29.5q0 43 -62 43h-21v89h21q51 0 51 46q0 37 -43 37q-34 0 -59 -32.5t-25 -94.5z" />
    <glyph glyph-name="bnTT" horiz-adv-x="491" 
d="M429 687q0 -11 -1 -16h82v-109h-328v-278q0 -41 40 -41q43 0 77 29.5t34 69.5q0 45 -36 45q-21 0 -33 -15l-51 105q36 32 91 32q62 0 105 -44.5t43 -121.5q0 -82 -69.5 -152.5t-171.5 -70.5q-72 0 -109.5 41t-37.5 103v298h-84v109h330v8q0 35 -21 48.5t-66 13.5h-18
q-106 0 -155.5 46t-49.5 112q0 8 2 22l118 19q-3 -12 -3 -24q0 -73 94 -73h36q77 0 129.5 -41t52.5 -115z" />
    <glyph glyph-name="bnTTH" horiz-adv-x="520" 
d="M485 280q0 -93 -60 -153.5t-158 -60.5q-110 0 -178 73t-68 178q176 44 176 174v67l-5 5h-212v108h144q-37 55 -37 107q0 70 46 112.5t122 38.5l23 -104q-34 4 -52.5 -10.5t-18.5 -42.5q0 -46 41 -101h287v-108h-211q54 -59 82 -94t53.5 -87.5t25.5 -101.5zM157 259
q5 -31 34 -60t78 -29q43 0 72 31t29 78q0 31 -12 60.5t-25.5 48.5t-39.5 51q-5 -76 -46 -119.5t-90 -60.5z" />
    <glyph glyph-name="bnDD" horiz-adv-x="591" 
d="M609 563h-286v-87q0 -27 21 -27q16 0 57.5 21.5t80.5 49.5q35 -21 58.5 -63.5t23.5 -91.5q0 -90 -66 -151.5t-175 -61.5q-132 0 -214 93.5t-84 227.5l108 25q0 -122 56.5 -183t133.5 -61q59 0 95.5 31t36.5 74q0 17 -8 33q-56 -45 -120 -45q-57 0 -87.5 33.5t-30.5 91.5
v91h-229v108h629v-108z" />
    <glyph glyph-name="bnDDH" horiz-adv-x="491" 
d="M452 343q0 -82 -69.5 -152.5t-171.5 -70.5q-72 0 -109.5 41t-37.5 103v298h-84v109h530v-109h-328v-278q0 -41 40 -41q43 0 77 29.5t34 69.5q0 45 -36 45q-21 0 -33 -15l-51 105q36 32 91 32q62 0 105 -44.5t43 -121.5z" />
    <glyph glyph-name="bnNN" horiz-adv-x="555" 
d="M475 270h-118v87q0 212 -129 212q-43 0 -67.5 -22.5t-24.5 -60.5q0 -31 19.5 -49.5t52.5 -18.5q32 0 62 24l37 -99q-39 -30 -101 -30q-87 0 -135.5 49.5t-48.5 123.5q0 82 51.5 133t141.5 51q105 0 158 -74l4 3q-16 38 -16 132v42h114v-102h100v-109h-100v-292z" />
    <glyph glyph-name="bnT" horiz-adv-x="721" 
d="M667 -204l-73 -97l-223 153l73 106zM682 290q0 -120 -75 -193.5t-197 -73.5q-152 0 -245.5 112t-135.5 307l127 56q27 -159 90.5 -254.5t162.5 -95.5q64 0 100.5 41.5t36.5 103.5q0 43 -17.5 70t-48.5 27q-19 0 -32.5 -12t-13.5 -31q0 -38 40 -51l-86 -82
q-41 16 -66.5 55t-25.5 89q0 69 49 113t124 44q99 0 156 -63.5t57 -161.5zM741 562h-761v109h761v-109z" />
    <glyph glyph-name="bnTH" horiz-adv-x="598" 
d="M526 146h-122l-363 156v102q119 2 167.5 37t48.5 80q0 25 -14.5 41.5t-40.5 16.5q-25 0 -38 -13.5t-13 -33.5q0 -26 20 -44l-97 -46q-39 37 -39 92q0 65 45.5 106t118.5 41q71 0 120.5 -42t49.5 -117q0 -62 -41.5 -111t-119.5 -65v-3l205 -89h4q-7 59 -7 146v373h116
v-102h83v-109h-83v-416z" />
    <glyph glyph-name="bnD" horiz-adv-x="484" 
d="M500 563h-321v-146q29 33 76.5 66t96.5 50l95 -50q-33 -86 -33 -203v-96h-115v96q0 81 21 128q-35 -23 -78 -68t-69 -90l-116 39v274h-76v108h519v-108z" />
    <glyph glyph-name="bnDH" horiz-adv-x="517" 
d="M449 157h-114l-275 129v92l45 27l52 26v4q-41 7 -73.5 35.5t-32.5 78.5q0 59 39 94.5t102 35.5q60 0 91 -26l-27 -83q-20 14 -50 14q-45 0 -45 -42q0 -21 19 -33.5t53 -12.5q45 0 106 36v140h194v-109h-84v-406zM345 264h4q-10 80 -10 151v9l-156 -85z" />
    <glyph glyph-name="bnN" horiz-adv-x="594" 
d="M614 562h-100v-325l-134 1q-64 161 -156 161q-54 0 -54 -45q0 -24 18 -46l-107 -38q-35 41 -35 92q0 69 43.5 111t119.5 42q57 0 103.5 -27.5t71.5 -65.5l4 1q-8 51 -8 122v17h-400v109h634v-109z" />
    <glyph glyph-name="bnP" horiz-adv-x="697" 
d="M187 529q76 -21 113 -94l117 79q-44 50 -118 50q-63 0 -112 -35zM617 217h-138v88q0 55 -11 104l-271 -188l-67 99l70 48q-16 41 -53 62q-29 15 -65 18l-64 94q41 58 112 98t159 40q75 0 128 -29t82 -66l3 2q-25 74 -25 163v23h140v-102h100v-109h-100v-345z" />
    <glyph glyph-name="bnPH" horiz-adv-x="858" 
d="M577 90h-133l-331 130v111l120 91l-120 101v39h-133v109h898v-109h-625v-4l111 -93v-94l-110 -82l194 -76h4q-12 86 -12 195v72q69 38 165 38q97 0 160 -53t63 -147q0 -136 -131 -190l-69 108q28 7 49.5 28t21.5 56q0 38 -23 58t-60 20q-18 0 -39 -7v-301z" />
    <glyph glyph-name="bnB" horiz-adv-x="560" 
d="M580 562h-100v-430h-128l-287 129v120q158 98 288 154v27h-373v109h600v-109zM357 259h6q-8 71 -10 147q-75 -38 -147 -79z" />
    <glyph glyph-name="bnBH" horiz-adv-x="648" 
d="M613 317q0 -92 -63 -151.5t-184 -59.5q-73 0 -134 28t-104 77.5t-72.5 104.5t-49.5 120l97 53q14 -48 33.5 -91t51 -88t78 -71.5t101.5 -26.5q67 0 102 31.5t35 79.5q0 31 -15 53h-4q-11 -34 -42.5 -61t-85.5 -27q-62 0 -97 35t-35 86q0 31 15 67l106 -14
q-12 -21 -12 -44q0 -34 33 -34q51 0 83 109h84q29 -23 54 -71t25 -105zM667 562h-687v109h687v-109z" />
    <glyph glyph-name="bnM" horiz-adv-x="640" 
d="M417 448q55 0 55 61q0 22 -14 37.5t-41 15.5h-173q8 -25 12 -49q27 -8 80 -36.5t81 -28.5zM661 562h-80q19 -30 19 -79q0 -62 -38 -110.5t-124 -48.5q-53 0 -96.5 21t-77 41.5t-62.5 20.5q-21 0 -34 -11t-13 -29q0 -24 18 -46l-107 -38q-37 37 -37 93q0 48 23.5 84.5
t67.5 51.5q-5 29 -18 50h-122v109h681v-109z" />
    <glyph glyph-name="bnY" horiz-adv-x="478" 
d="M412 152h-130l-246 137v89l95 72l-95 81v31h-56v109h512v-109h-80v-410zM144 340l159 -88l4 1q-10 80 -10 155v154h-145v-4l84 -73v-76z" />
    <glyph glyph-name="bnR" horiz-adv-x="560" 
d="M212 86q0 -31 -22.5 -52.5t-55.5 -21.5q-31 0 -53 21.5t-22 52.5q0 34 21.5 56.5t53.5 22.5q34 0 56 -22.5t22 -56.5zM580 562h-100v-430h-128l-287 129v120q158 98 288 154v27h-373v109h600v-109zM357 259h6q-8 71 -10 147q-75 -38 -147 -79z" />
    <glyph glyph-name="bnL" horiz-adv-x="706" 
d="M726 562h-100v-438l-127 -1v247q-6 14 -22 24t-36 10q-29 0 -46 -20.5t-17 -56.5v-31h-117v31q0 74 -56 74q-25 0 -43.5 -20t-18.5 -55t20 -52.5t53 -17.5q12 0 26 3l8 -113q-26 -6 -52 -6q-75 0 -127.5 48t-52.5 135q0 89 51.5 142t123.5 53q51 0 83.5 -23.5t42.5 -53.5
h5q8 33 36 56t65 23q48 0 69 -24h5v66h-519v109h746v-109z" />
    <glyph glyph-name="bnSH" horiz-adv-x="717" 
d="M637 179h-138v252q0 59 -30 90.5t-79 31.5q-41 0 -67.5 -25.5t-26.5 -68.5q0 -42 26.5 -66t67.5 -24q23 0 43 7v-122q-17 -7 -51 -7q-93 0 -154 67q-60 -70 -154 -70q-15 0 -30.5 2.5t-23.5 5.5l-7 2v120q22 -8 53 -8q44 0 69 24t25 70q0 45 -25 73.5t-74 28.5h-81v109
h88q102 0 161 -64q64 67 162 67q80 0 122 -47h4q-14 54 -14 114v32h134v-102h100v-109h-100v-383z" />
    <glyph glyph-name="bnSS" horiz-adv-x="545" 
d="M507 462q0 -104 -64.5 -165t-167.5 -61t-167 60.5t-64 165.5q0 57 23 100h-87v109h585v-109h-81q23 -43 23 -100zM275 565q-27 0 -47 -10l142 -137q7 18 7 44q0 47 -27.5 75t-74.5 28zM275 356q29 0 49 10l-143 135q-6 -18 -6 -39q0 -49 27.5 -77.5t72.5 -28.5z" />
    <glyph glyph-name="bnS" horiz-adv-x="689" 
d="M657 505q0 -69 -48.5 -110t-125.5 -41q-54 0 -101.5 28.5t-74.5 81.5q-44 -109 -153 -109q-80 0 -142 60l69 89q34 -47 73 -47q30 0 47 31.5t21 73.5h-242v109h729v-109h-60q8 -26 8 -57zM384 562q30 -103 88 -103q24 0 36 17t12 42q0 26 -9 44h-127z" />
    <glyph glyph-name="bnH" horiz-adv-x="498" 
d="M518 88l-68 -95q-34 16 -88 41.5t-75.5 36t-57 27t-51.5 22.5t-38.5 14t-38 11t-31.5 4v110h61q167 0 167 93q0 33 -15 53t-43 20q-19 0 -31 -11.5t-12 -29.5q0 -29 31 -41l-80 -57q-77 28 -77 110q0 57 45.5 95.5t123.5 38.5q84 0 135 -50t51 -128q0 -73 -43.5 -115.5
t-114.5 -52.5v-4q29 -3 50.5 -9.5t72.5 -28.5zM518 562h-538v109h538v-109z" />
    <glyph glyph-name="bnK_SS" horiz-adv-x="942" 
d="M816 -220l-73 -97l-223 153l73 106zM988 562h-275v-112h10q107 0 160.5 -50t53.5 -131q0 -67 -36.5 -110t-86.5 -61l-67 101q24 6 44 25.5t20 46.5q0 31 -20 44.5t-60 13.5h-18v-345h-128q-12 61 -66.5 107.5t-128.5 58.5q-15 -43 -45 -65t-63 -22q-38 0 -64 23t-26 63
q0 33 23.5 61t62.5 42q-13 55 -57 86q-33 -65 -98 -65q-38 0 -64 23t-26 63q0 36 23 63t62 38q-10 57 -55 102h-83v109h1008v-109zM591 172q-11 75 -13 156h-30q-100 0 -148 47.5t-48 147.5v39h-147q32 -50 36 -110q59 -21 103 -71.5t54 -119.5q68 -8 119.5 -34t73.5 -55z
M539 449h38v113h-96v-44q0 -41 15.5 -55t42.5 -14z" />
    <glyph glyph-name="bnJ_NY" horiz-adv-x="904" 
d="M407 366l114 -14q-85 65 -90 210h-4q-32 -27 -54.5 -74t-22.5 -83q0 -32 57 -39zM723 30q-99 0 -154 66q-64 -87 -197 -87q-140 0 -234 102t-117 254l121 44q13 -119 74.5 -197t153.5 -78q49 0 76 21t27 51q0 19 -10 34l-96 12q-148 18 -148 138q0 45 15.5 92.5
t38.5 79.5h-293v109h944v-109h-373q4 -56 30 -95q50 48 127 48q70 0 110.5 -38.5t40.5 -95.5q0 -37 -19.5 -64.5t-53.5 -38.5v-4q38 -10 61.5 -38t23.5 -69q0 -55 -39.5 -96t-108.5 -41zM602 274q0 -63 28 -100.5t74 -37.5q21 0 34 11t13 31q0 47 -67 47h-23v97h23
q27 0 41.5 13.5t14.5 36.5q0 18 -12.5 28.5t-34.5 10.5q-37 0 -64 -35t-27 -102zM678 -204l-73 -97l-223 153l73 106z" />
    <glyph glyph-name="asR" horiz-adv-x="502" 
d="M429 110h-132l-276 161v94q40 43 119.5 95.5t176.5 76.5v25h-337v109h535v-109h-86v-452zM142 325l185 -106h3q-4 12 -8 58l-137 82q-8 -6 -16.5 -12.5t-16 -13t-10.5 -8.5zM244 397l74 -44q0 54 3 80q-39 -14 -77 -36z" />
    <glyph glyph-name="asW" horiz-adv-x="560" 
d="M264 97l-62 -102l-161 74l62 102zM580 562h-100v-430h-128l-287 129v120q158 98 288 154v27h-373v109h600v-109zM357 259h6q-8 71 -10 147q-75 -38 -147 -79z" />
    <glyph glyph-name="bnDDx" horiz-adv-x="589" 
d="M392 16q0 -31 -22.5 -52.5t-55.5 -21.5q-31 0 -53 21.5t-22 52.5q0 34 21.5 56.5t53.5 22.5q34 0 56 -22.5t22 -56.5zM609 563h-286v-87q0 -27 21 -27q16 0 57.5 21.5t80.5 49.5q35 -21 58.5 -63.5t23.5 -91.5q0 -90 -66 -151.5t-175 -61.5q-132 0 -214 93.5t-84 227.5
l108 25q0 -122 56.5 -183t133.5 -61q59 0 95.5 31t36.5 74q0 17 -8 33q-56 -45 -120 -45q-57 0 -87.5 33.5t-30.5 91.5v91h-229v108h629v-108z" />
    <glyph glyph-name="bnDDHx" horiz-adv-x="491" 
d="M452 343q0 -82 -69.5 -152.5t-171.5 -70.5q-72 0 -109.5 41t-37.5 103v298h-84v109h530v-109h-328v-278q0 -41 40 -41q43 0 77 29.5t34 69.5q0 45 -36 45q-21 0 -33 -15l-51 105q36 32 91 32q62 0 105 -44.5t43 -121.5zM290 -14q0 -31 -22.5 -52.5t-55.5 -21.5
q-31 0 -53 21.5t-22 52.5q0 34 21.5 56.5t53.5 22.5q34 0 56 -22.5t22 -56.5z" />
    <glyph glyph-name="bnYx" horiz-adv-x="478" 
d="M412 152h-130l-246 137v89l95 72l-95 81v31h-56v109h512v-109h-80v-410zM202 86q0 -31 -22.5 -52.5t-55.5 -21.5q-31 0 -53 21.5t-22 52.5q0 34 21.5 56.5t53.5 22.5q34 0 56 -22.5t22 -56.5zM144 340l159 -88h3q-9 72 -9 156v154h-150v-3l89 -74v-76z" />
    <glyph glyph-name="bnK_KA" horiz-adv-x="740" 
d="M760 562h-306v-30q118 -7 175.5 -60.5t57.5 -119.5q0 -77 -50 -120l-102 64q29 21 29 56q0 60 -110 66v-161q118 -7 175.5 -60.5t57.5 -119.5t-36.5 -106t-88.5 -57l-62 100q64 11 64 63q0 60 -110 66v-214l51 -22l-82 -94l-368 162v126q56 54 128 93l-128 56v126
q44 44 114.5 86t155.5 60v40h-345v109h780v-109zM329 -16h5q-9 72 -9 143q-74 -25 -145 -78zM329 259h5q-9 72 -9 143q-74 -25 -145 -78z" />
    <glyph glyph-name="bnNG_KA" horiz-adv-x="753" 
d="M476 -46l-80 -93l-363 160v124q44 44 114.5 86t155.5 60v24q0 50 -20 77.5t-58 27.5q-24 0 -39 -15.5t-15 -38.5q0 -32 30 -51l-87 -64q-70 46 -70 123q0 68 47 112.5t126 44.5q99 0 153.5 -62t54.5 -154v-14q122 -5 181 -60.5t59 -127.5q0 -60 -36.5 -99t-88.5 -56
l-62 100q64 11 64 63q0 61 -117 67v-211zM773 562h-47q8 -25 8 -55q0 -66 -40.5 -107t-115.5 -41q-78 0 -127.5 53t-49.5 150h-421v109h793v-109zM520 562q0 -100 57 -100q44 0 44 60q0 24 -6 40h-95zM307 28h5q-9 72 -9 143q-74 -25 -145 -78z" />
    <glyph glyph-name="bnL_KA" horiz-adv-x="936" 
d="M556 23h5q-9 72 -9 143q-74 -25 -145 -78zM956 562h-275v-266q118 -7 175.5 -60.5t57.5 -119.5t-36.5 -106t-88.5 -57l-62 100q64 11 64 63q0 60 -110 66v-214l51 -22l-82 -94l-368 162v126q44 44 114.5 86t155.5 60v67q-16 34 -61 34q-31 0 -49.5 -21t-18.5 -58v-31
h-124v31q0 38 -17 57t-44 19q-29 0 -46.5 -21t-17.5 -59q0 -76 71 -94l-42 -114q-77 15 -120 71t-43 138q0 90 55.5 144.5t131.5 54.5q55 0 89.5 -24t45.5 -55h4q8 33 38 57t69 24q48 0 74 -23h5v79h-572v109h976v-109z" />
    <glyph glyph-name="bnSS_KA" horiz-adv-x="695" 
d="M490 7l-82 -94l-368 162v126q43 43 103 79q-84 61 -84 182q0 57 23 100h-102v109h735v-109h-216q23 -43 23 -100q0 -62 -25 -112q88 -18 131.5 -67.5t43.5 -105.5q0 -66 -36.5 -106t-88.5 -57l-62 100q64 11 64 63q0 60 -110 66v-214zM290 565q-27 0 -47 -10l144 -139
q8 22 8 46q0 47 -29 75t-76 28zM314 84h5q-9 72 -9 143q-74 -25 -145 -78zM290 351q30 0 52 12l-147 139q-7 -17 -7 -40q0 -49 28.5 -80t73.5 -31z" />
    <glyph glyph-name="bnS_KA" horiz-adv-x="736" 
d="M657 506q0 -56 -26 -95.5t-74 -56.5q78 -20 116.5 -67.5t38.5 -100.5q0 -66 -36.5 -106t-88.5 -57l-62 100q64 11 64 63q0 60 -110 66v-214l51 -22l-82 -94l-368 162v126q50 49 130 94t175 59q-42 22 -69 76q-43 -94 -147 -94q-91 0 -147 70l67 86q41 -44 80 -44
q64 0 80 105h-269v109h776v-109h-105q6 -30 6 -56zM389 562q3 -47 25.5 -77t59.5 -30q28 0 42 18t14 45q0 28 -8 44h-133zM354 93h5q-9 72 -9 143q-74 -25 -145 -78z" />
    <glyph glyph-name="bnNG_KHA" horiz-adv-x="804" 
d="M775 -227l-74 -93l-527 141v96q134 0 195.5 27.5t61.5 83.5q0 26 -9 37q-14 -50 -52 -74t-90 -24q-70 0 -109 38t-39 104q0 18 3 39h120q-6 -20 -6 -33q0 -42 37 -42q30 0 47 28t22 71q-21 -3 -45 -3q-134 0 -212 81t-88 199l101 32q10 -104 64.5 -155t134.5 -51
q57 0 89 20.5t32 53.5q0 11 -5 21q-49 -36 -119 -36q-59 0 -97 33.5t-38 87.5v35q-63 25 -100 72h-92v109h151q14 -42 49 -74q3 39 38 68.5t99 29.5q62 0 101 -33.5t39 -84.5q0 -49 -41.5 -79t-106.5 -30h-21v-14q0 -23 29 -23q53 0 149 54q75 -47 75 -137t-81 -141
q36 -31 59.5 -79t23.5 -102q0 -116 -106 -158v-4l162 -43l3 3q-7 93 -7 189v760h129v-102h102v-109h-102v-775zM310 547q48 0 48 38q0 12 -9 21t-26 9q-35 0 -35 -30v-37q7 -1 22 -1z" />
    <glyph glyph-name="bnS_KHA" horiz-adv-x="925" 
d="M896 -84l-82 -106l-559 149v105q270 4 270 133q0 29 -9 40q-17 -55 -60 -82.5t-101 -27.5q-76 0 -121 43t-45 117q0 20 3 44h133q-5 -17 -5 -36q0 -48 42 -48q33 0 52.5 31t25.5 79q-94 15 -135 102q-42 -104 -151 -104q-80 0 -142 60l69 89q34 -47 73 -47q53 0 71 105
h-245v109h631q46 -70 46 -154q0 -101 -83 -143q33 -34 55 -81.5t22 -97.5q0 -136 -119 -178v-4l181 -48l5 3q-9 90 -9 213v592h136v-102h100v-109h-100v-632zM376 562q8 -44 33.5 -73.5t58.5 -29.5q25 0 38.5 16t13.5 43q0 26 -9 44h-135z" />
    <glyph glyph-name="bnG_GA" horiz-adv-x="714" 
d="M405 357q0 -16 -3 -31q56 -16 93 -47v86q0 85 -47 131.5t-124 46.5q-76 0 -124 -48q25 7 57 7q59 0 103.5 -38t44.5 -107zM634 -194h-139v226q0 85 -47 131.5t-124 46.5q-76 0 -124 -48q25 7 57 7q59 0 103.5 -38t44.5 -107q0 -118 -140 -215l-102 100q102 61 102 120
q0 21 -15.5 35t-43.5 14q-53 0 -99 -22l-89 94q28 62 92.5 115.5t148.5 67.5q6 15 6 29q0 21 -15.5 35t-43.5 14q-53 0 -99 -22l-89 94q33 73 112.5 130.5t181.5 57.5q130 0 203 -78h4q-25 69 -25 156v24h140v-102h101v-109h-101v-756z" />
    <glyph glyph-name="bnNG_GA" horiz-adv-x="741" 
d="M411 284v-14q46 17 96.5 33t77.5 24l27 8l83 -83q-39 -84 -39 -181v-134h-127v122q0 74 25 132l-173 -64q-28 -60 -75.5 -90t-99.5 -30q-72 0 -120 36t-68 90l105 64q15 -34 33.5 -52.5t50.5 -18.5q40 0 63 43t23 113q0 59 -20.5 94.5t-55.5 35.5q-20 0 -33 -12.5
t-13 -32.5q0 -36 35 -49l-87 -66q-35 15 -56.5 48t-21.5 70q0 69 46 110.5t122 41.5q93 0 147 -67t55 -171zM762 562h-62q7 -21 7 -54q0 -70 -42.5 -108t-113.5 -38q-77 0 -126.5 52.5t-49.5 147.5h-395v109h782v-109zM494 562q0 -100 58 -100q44 0 44 60q0 22 -7 40h-95z
" />
    <glyph glyph-name="bnDD_GA" horiz-adv-x="1251" 
d="M1171 0h-139v365q0 85 -47 131.5t-124 46.5q-76 0 -124 -48q25 7 57 7q59 0 103.5 -38t44.5 -107q0 -61 -40 -119.5t-112 -104.5l-102 103q114 65 114 126q0 21 -15.5 35t-43.5 14q-39 0 -76 -13q14 -37 14 -79q0 -110 -79 -185t-211 -75q-160 0 -257 113.5t-99 277.5
l131 30q0 -149 66 -223t159 -74q72 0 114.5 37.5t42.5 90.5q0 22 -9 40q-68 -53 -137 -53q-70 0 -106.5 41t-36.5 112v111h-279v109h869q130 0 203 -78h4q-25 69 -25 156v24h140v-102h100v-109h-100v-562zM458 562h-60v-106q0 -33 25 -33q38 0 157 83q19 34 47 63l-3 4
q-86 -11 -166 -11z" />
    <glyph glyph-name="bnD_GA" horiz-adv-x="1119" 
d="M1040 0h-139v365q0 85 -47 131.5t-124 46.5q-76 0 -124 -48q25 7 57 7q59 0 103.5 -38t44.5 -107q0 -68 -51 -133.5t-139 -112.5l-102 105q152 73 152 146q0 21 -15.5 35t-43.5 14q-46 0 -88 -17q-27 -101 -27 -242v-152h-140v151q0 115 34 191q-44 -28 -97.5 -84.5
t-86.5 -112.5l-132 48v369h-95v109h738q130 0 203 -78h4q-25 69 -25 156v24h140v-102h99v-109h-99v-562zM215 353q35 42 95 82.5t121 62.5q19 35 53 72l-2 3q-86 -11 -166 -11h-101v-209z" />
    <glyph glyph-name="bnDDx_GA" horiz-adv-x="1251" 
d="M1171 0h-139v365q0 85 -47 131.5t-124 46.5q-76 0 -124 -48q25 7 57 7q59 0 103.5 -38t44.5 -107q0 -61 -40 -119.5t-112 -104.5l-102 103q114 65 114 126q0 21 -15.5 35t-43.5 14q-39 0 -76 -13q14 -37 14 -79q0 -110 -79 -185t-211 -75q-160 0 -257 113.5t-99 277.5
l131 30q0 -149 66 -223t159 -74q72 0 114.5 37.5t42.5 90.5q0 22 -9 40q-68 -53 -137 -53q-70 0 -106.5 41t-36.5 112v111h-279v109h869q130 0 203 -78h4q-25 69 -25 156v24h140v-102h100v-109h-100v-562zM473 -106q0 -34 -24.5 -57.5t-60.5 -23.5q-34 0 -58 23.5t-24 57.5
q0 37 23.5 61.5t58.5 24.5q37 0 61 -24.5t24 -61.5zM458 562h-60v-106q0 -33 25 -33q38 0 157 83q19 34 47 63l-3 4q-86 -11 -166 -11z" />
    <glyph glyph-name="bnL_GA" horiz-adv-x="786" 
d="M806 562h-100v-792h-141v174q0 83 -36.5 125t-102.5 42q-61 0 -105 -46q32 16 78 9q45 -7 73.5 -39t28.5 -86q0 -61 -44 -115.5t-103 -84.5l-97 99q102 42 102 98q0 23 -14 36.5t-37 14.5q-41 2 -84 -30l-80 88q34 66 106 120t161 55q94 1 154 -53v177q-16 34 -63 34
q-30 0 -49.5 -22.5t-19.5 -57.5v-16h-128v13q0 37 -17.5 58.5t-44.5 21.5q-30 0 -48 -17t-18 -40q0 -24 15.5 -46t41.5 -31l-77 -101q-48 18 -83 67t-35 115q0 72 55 125.5t137 53.5q59 0 94 -26.5t45 -56.5h4q8 34 38.5 58.5t71.5 24.5q52 0 76 -24h5v75h-585v109h826v-109
z" />
    <glyph glyph-name="bnNG_GHA" horiz-adv-x="1220" 
d="M364 519q28 0 42 12.5t14 32.5q0 15 -10 24.5t-28 9.5q-35 0 -35 -34v-44q6 -1 17 -1zM1113 -16l-497 220q-24 -65 -90 -101t-166 -36q-156 0 -249.5 101.5t-95.5 243.5l114 21q2 -125 69 -187t162 -62q68 0 107.5 24.5t39.5 64.5q0 21 -8 29q-74 -34 -136 -34
q-66 0 -103.5 36t-37.5 96v69q-67 33 -111 93h-131v109h200q18 -56 52 -93q2 43 42 75t105 32q39 0 73 -14h788v-109h-100v-457l56 -24zM543 445q76 -49 86 -137l34 21q18 11 37.5 19.5t29.5 11.5l11 3v5q-54 10 -89 39.5t-35 80.5q0 42 26 74h-113v-4q0 -57 -45 -90
t-119 -33q-13 0 -19 1v-28q0 -28 25 -28q60 0 171 65zM1012 160l3 2q-14 44 -14 137v263h-209q-35 -25 -35 -66q0 -27 18.5 -45t53.5 -18q33 0 74 27l52 -109l-171 -93z" />
    <glyph glyph-name="bnD_GHA" horiz-adv-x="1118" 
d="M1138 562h-100v-457l56 -24l-83 -97l-475 204v126l25 15q18 11 37.5 19.5t29.5 11.5l11 3v5q-80 14 -109 64q-33 -96 -33 -230v-117h-132v117q0 102 26 160q-45 -31 -81.5 -66t-94.5 -103l-132 68v301h-103v109h1158v-109zM223 384q88 88 209 134l85 -49q-2 12 -2 19
q0 42 26 74h-318v-178zM910 160l3 2q-14 44 -14 137v263h-209q-35 -25 -35 -66q0 -27 18.5 -45t53.5 -18q33 0 74 27l52 -109l-171 -93z" />
    <glyph glyph-name="bnL_GHA" horiz-adv-x="1094" 
d="M1070 44l-83 -97l-491 211v109l41 25q18 11 37.5 19.5t29.5 11.5l11 3v5q-50 10 -81 33q-25 20 -53 20q-63 0 -63 -81v-32h-128v32q0 39 -17 58.5t-44 19.5t-45.5 -22.5t-18.5 -60.5q0 -50 26 -75t72 -25q38 0 61 11l17 -122q-36 -11 -83 -11q-109 0 -170 63t-61 160
q0 94 55.5 149.5t133.5 55.5q100 0 135 -81h4q10 35 38 59t68 24q16 0 38 -6q12 33 37 62h-556v109h1134v-109h-100v-494zM886 123l3 2q-14 44 -14 137v300h-184q-60 -43 -60 -103q0 -27 18.5 -45t53.5 -18q33 0 74 27l52 -109l-171 -93z" />
    <glyph glyph-name="bnC_CA" horiz-adv-x="941" 
d="M905 256q0 -98 -76 -180.5t-188 -82.5q-82 0 -125 42.5t-43 115.5v91q-22 -72 -86 -120.5t-147 -48.5q-86 0 -131 42.5t-45 115.5v331h-84v109h981v-109h-362v-4q0 -34 24 -57t89 -46l37 -13q77 -27 116.5 -69.5t39.5 -116.5zM607 150q0 -36 41 -36q42 0 83.5 43.5
t41.5 97.5q0 49 -67 72l-28 10q-50 18 -74 39h-4q7 -50 7 -132v-94zM198 233q0 -39 44 -39q39 0 73.5 33t34.5 74q0 23 -14.5 35.5t-46.5 23.5l-20 7q-50 18 -74 39h-4q7 -50 7 -132v-41zM332 475q115 -39 141 -115v202h-282q4 -24 27.5 -39.5t84.5 -37.5z" />
    <glyph glyph-name="bnNY_CA" horiz-adv-x="846" 
d="M558 36l-80 -93l-401 176v140q126 77 253 141q-54 109 -119 109q-24 0 -38.5 -12.5t-14.5 -34.5t18 -44l-107 -38q-35 41 -35 92q0 69 43.5 111t119.5 42q58 0 104 -28t71 -70l4 1q-8 51 -8 122v21h134v-9q0 -31 -9 -80l4 -2q47 44 125 44q79 0 123.5 -42.5t44.5 -107.5
q0 -40 -21.5 -70.5t-58.5 -44.5v-5q42 -11 68 -41.5t26 -76.5q0 -61 -44 -107.5t-121 -46.5q-87 0 -137 45v-68zM503 354q0 -70 31.5 -111.5t82.5 -41.5q23 0 38 12.5t15 34.5q0 52 -75 52h-26v108h26q62 0 62 55q0 21 -13.5 33t-38.5 12q-41 0 -71.5 -39.5t-30.5 -114.5z
M379 117h6q-10 77 -10 162v10q-68 -34 -173 -94z" />
    <glyph glyph-name="bnSH_CA" horiz-adv-x="989" 
d="M655 150q0 -36 41 -36q42 0 83.5 43.5t41.5 97.5q0 49 -67 72l-28 10q-50 18 -74 39h-4q7 -50 7 -132v-94zM953 256q0 -98 -76 -180.5t-188 -82.5q-82 0 -125 42.5t-43 115.5v411h-109q-46 0 -70 -31t-24 -79q0 -42 27 -68t67 -26q23 0 43 7v-122q-17 -7 -51 -7
q-94 0 -154 70q-60 -70 -154 -70q-15 0 -30.5 2.5t-23.5 5.5l-7 2v120q22 -8 53 -8q40 0 67 26.5t27 67.5q0 48 -25.5 79t-73.5 31h-103v109h110q101 0 161 -68q60 68 157 68h601v-109h-362v-4q0 -34 24 -57t89 -46l37 -13q77 -27 116.5 -69.5t39.5 -116.5z" />
    <glyph glyph-name="bnC_CHA" horiz-adv-x="1022" 
d="M914 -93q-176 87 -239.5 115.5t-103 40t-105.5 19.5v110h146q113 0 169 34.5t56 89.5q0 63 -52 74q-2 -64 -51.5 -109t-123.5 -45q-108 0 -138 70q-4 -83 -69 -145.5t-162 -62.5q-86 0 -131 42.5t-45 115.5v306h-85v109h1062v-109h-448q3 -12 22 -20t51 -18t52 -21
q28 7 58 7q85 0 140.5 -52.5t55.5 -143.5q0 -79 -54 -135.5t-159 -72.5v-4q48 -12 125 -47l112 -51zM199 255q0 -39 44 -39q38 0 67.5 30t29.5 68q0 23 -12.5 35.5t-43.5 22.5l-14 5q-50 18 -74 39h-4q7 -50 7 -132v-29zM590 363q0 -20 21 -20q25 0 40 16t15 39
q0 21 -36.5 33t-39.5 15v-83zM327 485q109 -37 135 -108v185h-268q7 -20 30.5 -34.5t79.5 -34.5z" />
    <glyph glyph-name="bnNY_CHA" horiz-adv-x="750" 
d="M715 325q0 -58 -41 -99t-113 -41q-82 0 -132.5 44t-68.5 119q-24 -16 -45 -26q16 -44 47 -79t63 -57t61.5 -44t48.5 -52.5t19 -70.5q0 -49 -34.5 -87t-100.5 -52v-4h7q8 0 23 -1.5t33.5 -4t46 -9t55.5 -15.5l122 -40l-61 -102q-239 76 -355.5 106.5t-192.5 30.5v113h153
q176 0 176 75q0 28 -17 45q-62 -57 -158 -57q-91 0 -151 47.5t-60 132.5q0 59 29.5 102.5t71.5 67.5t84 43.5t71.5 42t29.5 51.5q0 28 -20 46.5t-57 18.5q-33 0 -52 -16.5t-19 -41.5q0 -33 29 -49l-88 -66q-67 39 -67 117q0 70 54.5 118.5t140.5 48.5q101 0 155 -64
q51 65 143 65q72 0 114.5 -39t42.5 -98q0 -38 -20 -66t-54 -39v-4q39 -11 63 -39t24 -71zM246 135q32 0 60 14q-52 48 -85 124q-49 -32 -49 -77q0 -28 19.5 -44.5t54.5 -16.5zM440 435q0 -65 28.5 -103.5t75.5 -38.5q21 0 34.5 12t13.5 32q0 48 -69 48h-23v98h23q57 0 57 51
q0 41 -48 41q-37 0 -64.5 -36t-27.5 -104z" />
    <glyph glyph-name="bnSH_CHA" horiz-adv-x="1048" 
d="M615 363q0 -20 21 -20q25 0 40 16t15 39q0 21 -36.5 33t-39.5 15v-83zM939 -93q-176 87 -239.5 115.5t-103 40t-105.5 19.5v110h146q113 0 169 34.5t56 89.5q0 63 -52 74q-2 -64 -51.5 -109t-123.5 -45q-70 0 -109 32t-39 88v206h-93q-46 0 -70 -31t-24 -79q0 -42 27 -68
t67 -26q23 0 43 7v-122q-17 -7 -51 -7q-94 0 -154 70q-60 -70 -154 -70q-15 0 -30.5 2.5t-23.5 5.5l-7 2v120q22 -8 53 -8q40 0 67 26.5t27 67.5q0 48 -25.5 79t-73.5 31h-85v109h92q101 0 161 -68q60 68 157 68h678v-109h-449q3 -12 22 -20t51 -18t52 -21q28 7 58 7
q85 0 140.5 -52.5t55.5 -143.5q0 -79 -54 -135.5t-159 -72.5v-4q48 -12 125 -47l121 -55z" />
    <glyph glyph-name="bnNY_JA" horiz-adv-x="848" 
d="M781 327q0 -32 -15 -62l42 -36q-57 -111 -57 -246v-132h-127v142q0 108 32 193q-18 -2 -29 -2q-159 0 -204 146q-57 -68 -57 -99q0 -38 67 -46l82 -10q56 -56 56 -129q0 -78 -53.5 -130t-160.5 -52q-142 0 -230.5 100t-111.5 254l125 46q14 -123 68 -199t147 -76
q87 0 87 61q0 11 -4 23l-67 11q-70 11 -104 49.5t-34 89.5q0 47 24 91t52.5 71t52.5 59t24 58q0 30 -20 49t-57 19q-30 0 -49 -18t-19 -45q0 -41 34 -61l-92 -69q-70 45 -70 128q0 82 56 129t140 47q101 0 154 -66q53 66 148 66q73 0 115 -38.5t42 -97.5q0 -37 -20 -66
t-55 -41v-4q88 -25 88 -107zM500 434q0 -64 29 -101t77 -37q22 0 36 11.5t14 31.5q0 44 -70 44h-24v101h24q58 0 58 47q0 19 -13.5 29.5t-36.5 10.5q-39 0 -66.5 -34t-27.5 -103z" />
    <glyph glyph-name="bnJ_JA" horiz-adv-x="1322" 
d="M611 209q0 -10 -1 -15q29 -76 80.5 -120.5t119.5 -44.5q48 0 73 20.5t25 51.5q0 19 -10 34l-78 9q-65 7 -98 38.5t-33 79.5q0 50 35 102q-94 3 -160.5 40.5t-89.5 89.5q-73 -55 -73 -104q0 -23 39 -28l109 -13q62 -62 62 -140zM1238 -119h-127v142q0 124 41 210
q-181 26 -240 139q-75 -53 -75 -87q0 -23 39 -28l109 -13q62 -62 62 -140q0 -79 -62.5 -139.5t-172.5 -60.5q-174 0 -279 153q-63 -48 -157 -48q-140 0 -236 101.5t-119 252.5l127 46q13 -119 73.5 -197t152.5 -78q48 0 73 20.5t25 51.5q0 19 -10 34l-73 9q-66 8 -99 41.5
t-33 83.5q0 102 108 188h-385v109h1362v-109h-765q44 -92 221 -92h203q34 -61 78.5 -89.5t130.5 -28.5h33l48 -104q-53 -95 -53 -235v-132z" />
    <glyph glyph-name="bnN_JA" horiz-adv-x="959" 
d="M979 562h-506v-40q44 -48 144.5 -81.5t210.5 -33.5h49l48 -104q-53 -95 -53 -235v-201h-127v211q0 130 41 216q-189 4 -313 86v-101q0 -20 10.5 -29.5t33.5 -12.5l100 -12q62 -62 62 -140q0 -83 -62 -141.5t-173 -58.5q-121 0 -214 75t-145 183l108 75q91 -208 249 -208
q48 0 73 20.5t25 51.5q0 19 -10 34l-68 8q-87 11 -112 72q-34 83 -70 132t-80 49q-24 0 -38.5 -12.5t-14.5 -34.5q0 -28 23 -56l-98 -48q-49 43 -49 114q0 69 46 111t122 42q93 0 152 -77l4 1q-8 51 -8 122v23h-359v109h999v-109z" />
    <glyph glyph-name="bnB_JA" horiz-adv-x="917" 
d="M299 292v129q-65 -31 -123 -73zM937 562h-506v-40q44 -48 144.5 -81.5t210.5 -33.5h49l48 -104q-53 -95 -53 -235v-201h-127v211q0 130 41 216q-189 4 -313 86v-101q0 -20 10.5 -29.5t33.5 -12.5l100 -12q62 -62 62 -140q0 -83 -62 -141.5t-173 -58.5q-115 0 -205 65.5
t-143 164.5l106 77q87 -182 240 -182q48 0 73 20.5t25 51.5q0 19 -10 34l-63 8q-36 5 -58 16l-337 145v98q35 37 108 84t161 75v20h-319v109h957v-109z" />
    <glyph glyph-name="bnNY_JHA" horiz-adv-x="870" 
d="M672 36h4q-9 43 -9 143v4q-75 6 -109 44q9 -42 9 -123v-19zM623 -155l-78 -91l-375 164v132q71 60 195 111q-29 5 -89 10q-253 22 -253 207q0 63 35 114l116 -41q-24 -28 -24 -69t31 -64t103 -28q74 -6 105 -15t59 -30h5q-16 67 -16 165v126q0 33 -35 33q-38 0 -63 -28.5
t-25 -65.5t31 -37q21 0 37 16l34 -86q-33 -30 -84 -30q-63 0 -100 37.5t-37 98.5q0 84 60.5 145.5t158.5 61.5q82 0 117 -63q49 62 135 62q66 0 107 -38.5t41 -96.5q0 -38 -18 -67t-52 -42v-4q38 -10 60 -39t22 -71q0 -63 -42 -102v-273l-107 -36l-110 50v-92zM563 432
q0 -63 25.5 -99t70.5 -36q22 0 34.5 12t12.5 32q0 21 -15.5 32t-41.5 11h-29v95h23q53 0 53 46q0 18 -12.5 29.5t-34.5 11.5q-37 0 -61.5 -33t-24.5 -101zM445 -77h5q-7 57 -9 142q-79 -33 -144 -78z" />
    <glyph glyph-name="bnJ_JHA" horiz-adv-x="1116" 
d="M923 -63q-9 43 -9 156v469h-343q16 -45 65 -75t130 -30h33l48 -104q-53 -95 -53 -235v-122l125 -59h4zM850 -249l-78 -91l-375 164v132q41 34 117.5 74.5t149.5 62.5v36q0 124 41 210q-92 10 -151 55t-84 103q-77 -58 -77 -97q0 -23 39 -28l109 -13q62 -62 62 -140
t-59 -134t-169 -56q-140 0 -236 101.5t-119 252.5l127 46q13 -119 73.5 -197t152.5 -78q91 0 91 62q0 19 -10 34l-83 10q-126 15 -126 113q0 95 119 189h-384v109h1156v-109h-100v-719l-112 -36l-130 60v-92zM668 -169h5q-7 56 -9 139q-79 -35 -140 -77z" />
    <glyph glyph-name="bnC_NYA" horiz-adv-x="1008" 
d="M591 80h5q-16 64 -16 158v116q0 32 -35 32q-39 0 -69 -27t-30 -62t32 -35q24 0 37 15l37 -85q-27 -26 -91 -26q-44 0 -75 17q-23 -26 -45 -42q20 -25 93 -29q77 -5 104.5 -10.5t52.5 -21.5zM183 246q0 -31 33 -31q37 0 76.5 35.5t39.5 81.5q0 23 -13 35.5t-43 23.5
l-34 12q-38 13 -61 33h-4q6 -43 6 -113v-77zM698 244q0 -63 25.5 -99t70.5 -36q22 0 34.5 12t12.5 32q0 21 -15.5 32t-41.5 11h-29v95h23q53 0 53 46q0 18 -12.5 29.5t-34.5 11.5q-37 0 -61.5 -33t-24.5 -101zM1028 562h-848q18 -31 91 -57l42 -15q65 -24 93 -51
q65 53 153 53q82 0 111 -57q50 57 131 57q66 0 107 -38.5t41 -96.5q0 -38 -18 -67t-52 -42v-4q38 -10 60 -39t22 -71q0 -59 -39 -99.5t-106 -40.5q-32 0 -68 12t-55 33q9 -43 9 -112v-12h-120q0 52 -34.5 67.5t-136.5 22.5q-154 12 -200 91h-1q-70 0 -107.5 41t-37.5 105
v320h-85v109h1048v-109z" />
    <glyph glyph-name="bnK_TTA" horiz-adv-x="724" 
d="M324 283h5q-8 69 -9 126q-79 -19 -139 -65zM637 689q0 -12 -1 -18h108v-109h-295v-27q118 -6 175.5 -56t57.5 -115q0 -66 -36.5 -106t-88.5 -57l-62 100q64 11 64 63q0 53 -110 58v-227q-166 -32 -166 -158q0 -47 32 -75t92 -28q45 0 72 16t27 42q0 15 -10.5 24t-28.5 9
q-25 0 -42 -14l-53 105q40 36 102 36q71 0 117.5 -43t46.5 -120q0 -82 -66 -132t-165 -50q-125 0 -192.5 66t-67.5 162q0 104 72 173l-169 73v118q40 40 111.5 76.5t158.5 51.5v35h-340v109h523v9q0 39 -23.5 54.5t-74.5 15.5h-99q-119 0 -175.5 52t-56.5 127q0 9 2 25
l133 21q-3 -13 -3 -27q0 -82 106 -82h120q87 0 146 -46.5t59 -130.5z" />
    <glyph glyph-name="bnTT_TTA" horiz-adv-x="657" 
d="M552 689q0 -12 -1 -18h126v-109h-403v-288q0 -47 54 -47q46 0 82.5 30.5t36.5 71.5q0 45 -44 45q-24 0 -37 -16l-57 107q17 15 46 25.5t56 10.5q72 0 120 -44.5t48 -127.5q0 -55 -26 -102q53 -61 53 -142q0 -104 -70.5 -165.5t-189.5 -61.5q-110 0 -198.5 54.5
t-142.5 151.5l99 89q87 -170 241 -170q57 0 90 27.5t33 75.5q0 27 -10 46q-59 -32 -129 -32q-93 0 -141 46t-48 117v299h-160v109h438v9q0 39 -23.5 54.5t-74.5 15.5h-94q-119 0 -175.5 52t-56.5 127q0 9 2 25l133 21q-3 -13 -3 -27q0 -82 106 -82h115q87 0 146 -46.5
t59 -130.5z" />
    <glyph glyph-name="bnNN_TTA" horiz-adv-x="909" 
d="M840 689q0 -12 -1 -18h90v-109h-367v-348q0 -47 45 -47q47 0 87.5 39t40.5 85q0 50 -44 50q-24 0 -37 -16l-57 107q17 15 46 25.5t56 10.5q72 0 120 -45t48 -131q0 -93 -79 -172.5t-194 -79.5q-81 0 -123.5 46t-42.5 117v90q0 51 -5.5 90.5t-21 79.5t-48 62.5t-80.5 22.5
q-52 0 -81.5 -26t-29.5 -72q0 -38 23.5 -60t63.5 -22q39 0 74 29l44 -119q-48 -37 -121 -37q-104 0 -162.5 60t-58.5 148q0 98 62 159.5t170 61.5q107 0 167 -68h4v69h278v9q0 39 -23.5 54.5t-74.5 15.5h-99q-119 0 -175.5 52t-56.5 127q0 9 2 25l133 21q-3 -13 -3 -27
q0 -82 106 -82h120q87 0 146 -46.5t59 -130.5z" />
    <glyph glyph-name="bnN_TTA" horiz-adv-x="857" 
d="M785 689q0 -12 -1 -18h93v-109h-370v-348q0 -47 45 -47q47 0 87.5 39t40.5 85q0 50 -44 50q-24 0 -37 -16l-57 107q17 15 46 25.5t56 10.5q72 0 120 -45t48 -131q0 -93 -79 -172.5t-194 -79.5q-65 0 -105 29.5t-54 79.5q-54 210 -151 210q-24 0 -38.5 -12.5t-14.5 -34.5
t18 -44l-107 -38q-35 41 -35 92q0 69 43.5 111t119.5 42q99 0 157 -78l4 1q-8 51 -8 122v42h-388v109h671v9q0 39 -23.5 54.5t-74.5 15.5h-99q-119 0 -175.5 52t-56.5 127q0 9 2 25l133 21q-3 -13 -3 -27q0 -82 106 -82h120q87 0 146 -46.5t59 -130.5z" />
    <glyph glyph-name="bnL_TTA" horiz-adv-x="1047" 
d="M980 689q0 -12 -1 -18h89v-109h-366v-348q0 -47 45 -47q47 0 87.5 39t40.5 85q0 50 -44 50q-24 0 -37 -16l-57 107q17 15 46 25.5t56 10.5q72 0 120 -45t48 -131q0 -93 -79 -172.5t-194 -79.5q-81 0 -123.5 46t-42.5 117v131q-17 35 -63 35q-31 0 -50 -21.5t-19 -59.5
v-32h-128v32q0 78 -61 78q-28 0 -47.5 -20.5t-19.5 -58.5q0 -48 30.5 -76t78.5 -28q33 0 58 12l17 -120q-36 -11 -83 -11q-110 0 -174.5 62t-64.5 158q0 93 57 149t135 56q56 0 92 -24.5t47 -56.5h4q8 34 38.5 58.5t71.5 24.5q52 0 76 -24h5v95h-588v109h866v9
q0 39 -23.5 54.5t-74.5 15.5h-99q-119 0 -175.5 52t-56.5 127q0 9 2 25l133 21q-3 -13 -3 -27q0 -82 106 -82h120q87 0 146 -46.5t59 -130.5z" />
    <glyph glyph-name="bnSS_TTA" horiz-adv-x="581" 
d="M521 689q0 -12 -1 -18h81v-109h-101q24 -44 24 -104q0 -87 -48.5 -145t-128.5 -73q-83 -19 -123 -55.5t-40 -100.5q0 -49 33 -77t91 -28q45 0 72 16t27 42q0 15 -10.5 24t-28.5 9q-24 0 -42 -14l-53 105q40 36 102 36q71 0 117.5 -43t46.5 -120q0 -82 -66 -132t-165 -50
q-126 0 -193 65t-67 165q0 127 94 199q-82 61 -82 177q0 60 24 104h-104v109h407v9q0 39 -23.5 54.5t-74.5 15.5h-59q-119 0 -175.5 52t-56.5 127q0 9 2 25l133 21q-3 -13 -3 -27q0 -82 106 -82h80q87 0 146 -46.5t59 -130.5zM292 351q28 0 50 12l-146 138q-8 -21 -8 -43
q0 -46 29.5 -76.5t74.5 -30.5zM292 565q-25 0 -47 -11l143 -139q8 21 8 43q0 46 -29.5 76.5t-74.5 30.5z" />
    <glyph glyph-name="bnP_TTA" horiz-adv-x="970" 
d="M204 529q40 -11 72 -40t49 -73l119 76q-44 72 -128 72q-63 0 -112 -35zM898 689q0 -12 -1 -18h93v-109h-370v-348q0 -47 45 -47q47 0 87.5 39t40.5 85q0 50 -44 50q-24 0 -37 -16l-57 107q17 15 46 25.5t56 10.5q72 0 120 -45t48 -131q0 -93 -79 -172.5t-194 -79.5
q-81 0 -123.5 46t-42.5 117v102q0 42 -5 71l-277 -179l-65 100l84 54q-17 47 -56 74q-26 17 -55 21l-60 103q41 54 109 92.5t145 38.5q127 0 200 -95l3 2q-16 38 -16 80v4h271v9q0 39 -23.5 54.5t-74.5 15.5h-99q-119 0 -175.5 52t-56.5 127q0 9 2 25l133 21q-3 -13 -3 -27
q0 -82 106 -82h120q87 0 146 -46.5t59 -130.5z" />
    <glyph glyph-name="bnPH_TTA" horiz-adv-x="854" 
d="M765 689q0 -12 -1 -18h110v-109h-682v-4l111 -93v-94l-111 -85l195 -90h4q-12 86 -12 195v89q69 38 173 38q95 0 155 -44t60 -136q0 -76 -37 -116t-94 -64l-69 108q71 19 71 69q0 31 -19.5 47t-51.5 16q-30 0 -51 -7v-441q0 -64 63 -64q41 0 75.5 21.5t34.5 56.5
q0 41 -44 41q-24 0 -37 -16l-57 107q17 15 46 25.5t56 10.5q72 0 120 -42.5t48 -124.5q0 -92 -67.5 -149t-175.5 -57q-99 0 -147.5 47.5t-48.5 136.5v124l-330 153v111l120 91l-120 101v39h-72v109h651v9q0 39 -23.5 54.5t-74.5 15.5h-99q-119 0 -175.5 52t-56.5 127
q0 9 2 25l133 21q-3 -13 -3 -27q0 -82 106 -82h120q87 0 146 -46.5t59 -130.5z" />
    <glyph glyph-name="bnS_TTA" horiz-adv-x="736" 
d="M389 562q3 -47 25.5 -77t59.5 -30q28 0 42 18t14 45q0 28 -8 44h-133zM660 689q0 -12 -1 -18h97v-109h-105q6 -30 6 -56q0 -59 -29 -99.5t-81 -55.5q-34 -10 -58.5 -18.5t-56.5 -24t-52.5 -33.5t-35 -44.5t-14.5 -58.5q0 -47 33 -73t91 -26q45 0 72 16t27 42
q0 15 -10.5 24t-28.5 9q-24 0 -42 -14l-53 105q40 36 102 36q71 0 117.5 -43t46.5 -120q0 -82 -66 -132t-165 -50q-125 0 -192.5 65.5t-67.5 161.5q0 79 44.5 134t108.5 85q-18 20 -31 47q-55 -88 -147 -88q-91 0 -147 70l67 86q41 -44 80 -44q65 0 80 99h-269v109h546v9
q0 39 -23.5 54.5t-74.5 15.5h-99q-119 0 -175.5 52t-56.5 127q0 9 2 25l133 21q-3 -13 -3 -27q0 -82 106 -82h120q87 0 146 -46.5t59 -130.5z" />
    <glyph glyph-name="bnNN_TTHA" horiz-adv-x="922" 
d="M885 237q0 -107 -69 -176.5t-182 -69.5q-127 0 -205 84t-78 204q30 8 44 13q0 269 -138 269q-40 0 -64.5 -22t-24.5 -62q0 -32 21.5 -52.5t55.5 -20.5q31 0 54 14l25 -109q-40 -19 -91 -19q-89 0 -141 54t-52 134q0 90 57 146.5t159 56.5q119 0 191 -83t74 -221
q32 43 32 103v76q-126 113 -126 239q0 70 41.5 117.5t113.5 54.5q5 1 38 1l26 -120q-6 1 -17 1q-31 0 -47.5 -16.5t-16.5 -44.5q0 -53 47 -117h330v-109h-243q46 -50 71.5 -80.5t56 -74.5t44.5 -85.5t14 -84.5zM507 213q6 -35 39 -68.5t90 -33.5q50 0 83 35.5t33 89.5
q0 50 -22.5 91t-68.5 97q-3 -39 -16 -74q-21 -55 -60 -89.5t-78 -47.5z" />
    <glyph glyph-name="bnN_TTHA" horiz-adv-x="804" 
d="M767 237q0 -107 -69 -176.5t-182 -69.5q-127 0 -205 84t-78 204q55 15 89 32q-51 78 -114 78q-54 0 -54 -45q0 -24 18 -46l-107 -38q-35 41 -35 92q0 69 43.5 111t119.5 42q135 0 217 -117q25 41 25 92v76l-5 6h-450v109h372q-43 62 -43 124q0 80 52.5 129t140.5 44
l26 -120q-39 5 -60 -11.5t-21 -48.5q0 -53 47 -117h330v-109h-243q46 -50 71.5 -80.5t56 -74.5t44.5 -85.5t14 -84.5zM389 213q6 -35 39 -68.5t90 -33.5q50 0 83 35.5t33 89.5q0 35 -13.5 69t-29 56t-45.5 59q-2 -28 -7 -48q-30 -117 -150 -159z" />
    <glyph glyph-name="bnSS_TTHA" horiz-adv-x="727" 
d="M694 237q0 -107 -69 -176.5t-182 -69.5q-119 0 -195 69.5t-87 177.5q-64 22 -99 76t-35 131q0 68 26 117h-73v109h299q-43 62 -43 124q0 80 52.5 129t140.5 44l26 -120q-39 5 -60 -11.5t-21 -48.5q0 -53 47 -117h326v-109h-239q46 -50 71.5 -80.5t56 -74.5t44.5 -85.5
t14 -84.5zM160 455q0 -52 27.5 -84.5t72.5 -32.5q27 0 49 11l-146 138q-3 -15 -3 -32zM307 230q9 -51 44 -85t94 -34q50 0 83 35.5t33 89.5q0 35 -14 69.5t-29 55.5t-46 59q-8 -79 -57.5 -128.5t-107.5 -61.5zM202 549l152 -147q9 24 9 53q0 49 -28 81t-75 32q-33 0 -58 -19
z" />
    <glyph glyph-name="bnDD_DDA" horiz-adv-x="1210" 
d="M1230 562h-362v-148q0 -33 25 -33q20 0 70 26t98 60q42 -26 71 -77.5t29 -110.5q0 -110 -80.5 -185t-212.5 -75q-167 0 -270 124q-80 -77 -217 -77q-161 0 -255 110t-96 274l131 30q0 -149 63.5 -219.5t156.5 -70.5q73 0 115 34.5t42 86.5q0 20 -8 36q-63 -49 -138 -49
q-70 0 -106.5 41t-36.5 112v111h-269v109h1250v-109zM868 143q72 0 116 37.5t44 90.5q0 22 -9 40q-70 -55 -147 -55q-70 0 -106.5 41t-36.5 112v153h-341v-106q0 -33 25 -33q20 0 66 23.5t93 56.5q99 -68 99 -184q0 -21 -3 -42q31 -67 85 -100.5t115 -33.5z" />
    <glyph glyph-name="bnNN_DDA" horiz-adv-x="841" 
d="M760 457q0 -77 -44 -135q65 -60 65 -141q0 -63 -26 -112.5t-70 -79t-98.5 -44.5t-115.5 -15q-301 0 -442 265l112 74q56 -108 142.5 -159.5t189.5 -51.5q79 0 125 35t46 88q0 35 -18 60q-37 -25 -89 -48l-75 110q169 60 169 157q0 39 -35 68q-37 -62 -62 -93h-87
q-11 51 -48.5 85t-97.5 34q-47 0 -74 -21.5t-27 -62.5q0 -37 23.5 -58t63.5 -21q44 0 75 26l43 -116q-48 -37 -122 -37q-104 0 -162 59t-58 149q0 94 57 149t165 55q134 0 201 -94q26 40 54 89h67q65 -37 109 -92.5t44 -121.5z" />
    <glyph glyph-name="bnN_DDA" horiz-adv-x="826" 
d="M846 562h-344v-217q0 -33 25 -33q20 0 70 26t98 60q42 -26 71 -77.5t29 -110.5q0 -110 -80.5 -185t-212.5 -75q-119 0 -217 67.5t-145 170.5l106 83q89 -197 256 -197q72 0 116 37.5t44 90.5q0 22 -9 40q-70 -55 -147 -55q-81 0 -118 56q-48 75 -89 115.5t-88 40.5
q-24 0 -38.5 -12t-14.5 -33q0 -24 18 -46l-108 -39q-34 39 -34 93q0 69 43.5 111t119.5 42q112 0 175 -84l4 1q-8 51 -8 122v8h-388v109h866v-109z" />
    <glyph glyph-name="bnB_DDA" horiz-adv-x="779" 
d="M319 302v129q-68 -25 -142 -78zM799 562h-348v-267q0 -33 25 -33q20 0 70 26t98 60q42 -26 71 -77.5t29 -110.5q0 -110 -80.5 -185t-212.5 -75q-106 0 -200 54.5t-147 139.5l96 92q45 -84 112.5 -123t138.5 -39q72 0 116 37.5t44 90.5q0 22 -8 38q-27 -21 -65.5 -37
t-71.5 -16q-37 0 -67 11l-354 132v118q122 109 274 151v13h-339v109h819v-109z" />
    <glyph glyph-name="bnL_DDA" horiz-adv-x="966" 
d="M986 562h-340v-191q0 -33 25 -33q20 0 70 26t98 60q42 -26 71 -77.5t29 -110.5q0 -110 -80.5 -185t-212.5 -75q-105 0 -185 50.5t-127 136.5l103 91q30 -76 87.5 -115t121.5 -39q72 0 116 37.5t44 90.5q0 22 -9 40q-70 -55 -147 -55q-66 0 -102 36.5t-41 101.5
q-6 14 -22 23.5t-35 9.5q-29 0 -46 -20.5t-17 -56.5v-31h-117v31q0 74 -56 74q-28 0 -45 -20t-17 -59q0 -46 23 -70.5t65 -24.5q19 0 32 2l10 -112q-17 -4 -49 -4q-99 0 -152.5 57t-53.5 150q0 91 51.5 144.5t123.5 53.5q51 0 82 -22.5t44 -54.5h5q8 33 36 56t65 23
q48 0 69 -24h4v86h-527v109h1006v-109z" />
    <glyph glyph-name="bnNN_DDHA" horiz-adv-x="909" 
d="M867 292q0 -93 -79 -172.5t-194 -79.5q-81 0 -123.5 46t-42.5 117v90q0 40 -3 72t-12.5 68t-25.5 59.5t-44.5 39.5t-67.5 16q-55 0 -84 -27t-29 -74q0 -36 23.5 -58t63.5 -22q39 0 74 29l44 -119q-48 -37 -121 -37q-104 0 -162.5 60t-58.5 149q0 98 62 159.5t170 61.5
q107 0 167 -68h4v69h501v-109h-367v-348q0 -47 45 -47q47 0 87.5 39t40.5 85q0 50 -44 50q-24 0 -37 -16l-57 107q17 15 46 25.5t56 10.5q72 0 120 -45t48 -131z" />
    <glyph glyph-name="bnN_DDHA" horiz-adv-x="860" 
d="M880 562h-378v-358q0 -47 50 -47q49 0 91.5 39.5t42.5 90.5q0 26 -11.5 40t-30.5 14q-25 0 -42 -21l-57 108q46 40 105 40q71 0 119.5 -48.5t48.5 -132.5q0 -100 -77 -178.5t-190 -78.5q-92 0 -137.5 45.5t-45.5 117.5v5q-71 176 -157 176q-24 0 -38.5 -12.5t-14.5 -34.5
t18 -44l-107 -38q-35 41 -35 92q0 69 43.5 111t119.5 42q58 0 104 -28t71 -70l4 1q-8 51 -8 122v47h-388v109h900v-109z" />
    <glyph glyph-name="bnB_DDHA" horiz-adv-x="807" 
d="M324 250v166q-86 -39 -150 -87zM827 562h-374v-388q0 -47 50 -47q49 0 91.5 39.5t42.5 90.5q0 26 -11.5 40t-30.5 14q-25 0 -42 -21l-57 108q46 40 105 40q71 0 119.5 -48.5t48.5 -132.5q0 -100 -77 -178.5t-190 -78.5q-139 0 -170 106l-296 160v108q45 43 127.5 94
t160.5 77v17h-344v109h847v-109z" />
    <glyph glyph-name="bnNN_NNA" horiz-adv-x="677" 
d="M469 283l5 3q-2 5 -19 115q-12 74 -46 115.5t-106 41.5q-55 0 -84 -27t-29 -74q0 -59 53 -88q21 3 42 3q120 0 184 -89zM597 -70h-141v65q0 255 -156 255q-52 0 -81 -26.5t-29 -72.5q0 -38 23.5 -60t63.5 -22q39 0 74 29l44 -119q-48 -37 -121 -37q-104 0 -162.5 60
t-58.5 149q0 100 62 159q-62 54 -62 149q0 98 62 159.5t170 61.5q126 0 190 -89l5 3q-20 46 -20 159v20h137v-102h100v-109h-100v-632z" />
    <glyph glyph-name="bnH_NNA" horiz-adv-x="608" 
d="M620 83l-68 -97q-19 7 -53 21v-354h-128v37q0 49 -3.5 83t-15.5 72t-39 58t-68 20q-36 0 -59.5 -20.5t-23.5 -58.5q0 -33 20.5 -49.5t51.5 -16.5t55 13l24 -110q-39 -17 -86 -17q-90 0 -140 50.5t-50 130.5q0 85 49 137t134 52q60 0 103 -23.5t65 -60.5l4 2
q-15 40 -17 103q-101 38 -148 50t-96 16v118h54q86 0 136.5 26.5t50.5 79.5q0 33 -19.5 52.5t-52.5 19.5q-25 0 -40 -13t-15 -33q0 -24 20 -36l-87 -66q-64 33 -64 106q0 70 52 112.5t135 42.5q87 0 141 -51t54 -134q0 -131 -134 -167v-4q80 -19 145 -45zM627 562h-647v109
h647v-109z" />
    <glyph glyph-name="bnSS_NNA" horiz-adv-x="858" 
d="M570 75l-87 -91l-439 236v111l120 111l-120 81v39h-64v109h543v-50q45 39 120 39q79 0 123.5 -42.5t44.5 -107.5q0 -40 -21.5 -70.5t-58.5 -44.5v-5q42 -11 68 -41.5t26 -76.5q0 -61 -44 -107.5t-121 -46.5q-87 0 -137 45v-63zM184 558l202 -132v136h-202v-4zM524 390
q0 -70 31.5 -111.5t82.5 -41.5q23 0 38 12.5t15 34.5q0 52 -75 52h-26v108h26q62 0 62 55q0 21 -13.5 33t-38.5 12q-41 0 -71.5 -39.5t-30.5 -114.5zM394 169h4q-6 40 -10 127l-115 75l-93 -87z" />
    <glyph glyph-name="bnK_SS_NNA" horiz-adv-x="973" 
d="M576 172q-11 75 -13 156h-30q-100 0 -148 47.5t-48 147.5v39h-147q32 -50 36 -110q59 -21 103 -71.5t54 -119.5q68 -8 119.5 -34t73.5 -55zM524 449h38v113h-96v-44q0 -41 15.5 -55t42.5 -14zM993 562h-295v-112h10q107 0 160.5 -50t53.5 -131q0 -67 -36.5 -110
t-86.5 -61l-67 101q24 6 44 25.5t20 46.5q0 31 -20 44.5t-60 13.5h-18v-676h-128v37q0 49 -3.5 83t-15.5 72t-39 58t-68 20q-36 0 -59.5 -20.5t-23.5 -58.5q0 -33 20.5 -49.5t51.5 -16.5t55 13l24 -110q-39 -17 -86 -17q-90 0 -140 50.5t-50 130.5q0 85 49 137t134 52
q60 0 103 -23.5t65 -60.5l4 2q-7 22 -12 47q-28 58 -82.5 99t-121.5 52q-15 -43 -45 -65t-63 -22q-38 0 -64 23t-26 63q0 33 23.5 61t62.5 42q-13 55 -57 86q-33 -65 -98 -65q-38 0 -64 23t-26 63q0 36 23 63t62 38q-10 57 -55 102h-68v109h1013v-109z" />
    <glyph glyph-name="bnK_TA" horiz-adv-x="979" 
d="M429 -102q-308 0 -419 485l122 50q40 -186 114.5 -296.5t182.5 -110.5q49 0 77 24t28 60q0 32 -26 56q-28 -15 -68 -33l-86 96q158 56 158 129q0 23 -15 36.5t-43 13.5q-40 0 -70.5 -31t-39.5 -66l-106 67q20 67 78.5 109t135.5 42q118 0 165 -83q59 59 149 59
q83 0 139.5 -53.5t56.5 -137.5q0 -79 -48.5 -130.5t-122.5 -51.5q-50 0 -86 18l23 107q18 -8 43 -8q31 0 47.5 18.5t16.5 46.5q0 33 -21.5 51.5t-55.5 18.5q-73 0 -141 -120q-10 -16 -16 -23q70 -56 70 -137q0 -94 -67 -150t-175 -56zM999 562h-1019v109h1019v-109z" />
    <glyph glyph-name="bnT_TA" horiz-adv-x="714" 
d="M636 354q0 -59 -36 -108q78 -54 78 -142q0 -94 -66 -150t-172 -56q-312 0 -423 485l122 50q40 -186 114.5 -296.5t182.5 -110.5q49 0 77 24t28 60q0 35 -31 60q-29 -18 -75 -37l-86 96q158 56 158 129q0 23 -15 36.5t-43 13.5q-40 0 -70.5 -31t-39.5 -66l-106 67
q20 67 78.5 109t135.5 42q91 0 140 -50.5t49 -124.5zM734 562h-754v109h754v-109z" />
    <glyph glyph-name="bnN_TA" horiz-adv-x="638" 
d="M658 562h-86q19 -30 19 -79q0 -68 -40 -109q49 -57 49 -144q0 -111 -70.5 -178.5t-185.5 -67.5q-191 0 -302 200l98 71q75 -157 203 -157q62 0 97.5 37t35.5 97q0 40 -15.5 65t-44.5 25q-17 0 -29 -11t-12 -28q0 -35 36 -46l-78 -74q-37 15 -60.5 50t-23.5 80q0 47 25 81
q-51 29 -79 29q-24 0 -36.5 -12.5t-12.5 -32.5q0 -24 18 -46l-109 -38q-35 35 -35 94q0 68 41 111.5t118 43.5q47 0 90 -18.5t77 -36.5t59 -18q28 0 43 15.5t15 40.5t-15 40.5t-43 15.5h-425v109h678v-109z" />
    <glyph glyph-name="bnP_TA" horiz-adv-x="707" 
d="M187 529q81 -23 116 -102l120 81q-46 56 -124 56q-63 0 -112 -35zM428 -143q-117 0 -206 71t-141 188l110 70q87 -209 236 -209q64 0 99.5 35.5t35.5 95.5q0 41 -16 66t-46 25q-17 0 -29 -11t-12 -28q0 -34 37 -47l-80 -75q-85 41 -85 132q0 61 41.5 102t106.5 46
q-2 44 -9 83l-278 -193l-67 99l79 53q-23 61 -80 80q-20 7 -42 8l-64 94q41 58 112 98t159 40q75 0 128 -29t82 -66l3 2q-25 74 -25 163v23h140v-102h110v-109h-110v-287q72 -60 72 -169q0 -113 -72 -181t-189 -68z" />
    <glyph glyph-name="bnM_TA" horiz-adv-x="640" 
d="M415 450q28 0 43 15.5t15 40.5t-15 40.5t-43 15.5h-183q5 -15 11 -45q35 -8 90 -37.5t82 -29.5zM659 562h-77q19 -30 19 -79q0 -69 -42 -112q46 -55 46 -140q0 -111 -70.5 -178.5t-185.5 -67.5q-103 0 -181.5 58t-126.5 157l101 72q73 -173 206 -173q61 0 97 37.5
t36 96.5q0 40 -15.5 65t-44.5 25q-17 0 -29 -11.5t-12 -30.5q0 -30 32 -47l-76 -72q-82 46 -82 132q0 46 26 83q-48 26 -75 26q-24 0 -36.5 -12.5t-12.5 -32.5q0 -24 18 -46l-109 -38q-35 35 -35 94q0 100 79 139q-5 32 -19 55h-110v109h679v-109z" />
    <glyph glyph-name="bnL_TA" horiz-adv-x="783" 
d="M508 -140q-164 0 -266 133l79 92q70 -111 186 -111q62 0 97.5 37t35.5 97q0 40 -15.5 65t-44.5 25q-17 0 -29 -11t-12 -28q0 -35 36 -46l-78 -74q-37 15 -60.5 50t-23.5 80q0 48 27 83.5t72 50.5v53q-6 12 -21 22.5t-33 10.5q-54 0 -54 -77v-21h-121v21q0 74 -58 74
q-27 0 -42.5 -20.5t-15.5 -55.5q0 -40 24 -60.5t57 -20.5q26 0 48 8l17 -121q-29 -10 -71 -10q-91 0 -146.5 56.5t-55.5 147.5q0 88 51 144t123 56q93 0 130 -71h4q11 31 35.5 51t58.5 20q38 0 66 -30h4v82h-532v109h823v-109h-156v-264q56 -22 86.5 -73.5t30.5 -118.5
q0 -111 -70.5 -178.5t-185.5 -67.5z" />
    <glyph glyph-name="bnSH_TA" horiz-adv-x="817" 
d="M527 -163q-133 0 -229 88t-148 229l111 78q92 -270 265 -270q67 0 104 37t37 100q0 42 -16.5 68.5t-47.5 26.5q-18 0 -30.5 -11.5t-12.5 -29.5q0 -36 38 -49l-83 -78q-39 15 -64 52.5t-25 85.5q0 47 24 82.5t66 53.5v128q0 59 -30 90.5t-79 31.5q-41 0 -67.5 -26
t-26.5 -69q0 -42 27 -68t67 -26q8 0 22 2v-122q-16 -2 -30 -2q-91 0 -153 68q-61 -71 -155 -71q-15 0 -30.5 2.5t-22.5 5.5l-8 2v120q22 -8 53 -8q40 0 67 26.5t27 67.5q0 48 -25.5 79t-73.5 31h-98v109h105q99 0 159 -66q59 69 158 69q86 0 128 -47h4q-14 54 -14 114v32
h134v-102h183v-109h-183v-255q68 -18 106 -75t38 -135q0 -118 -74.5 -189t-196.5 -71z" />
    <glyph glyph-name="bnS_TA" horiz-adv-x="736" 
d="M657 506q0 -70 -40 -113q52 -57 52 -147q0 -111 -70.5 -178.5t-185.5 -67.5t-195.5 69t-129.5 177l101 72q35 -95 91.5 -149.5t131.5 -54.5q62 0 97.5 37t35.5 97q0 40 -15.5 65t-44.5 25q-17 0 -29 -11t-12 -28q0 -35 36 -46l-78 -74q-37 15 -60.5 50t-23.5 80
q0 48 28 84q-17 20 -30 46q-43 -94 -147 -94q-91 0 -147 70l67 86q41 -44 80 -44q64 0 80 105h-269v109h776v-109h-105q6 -30 6 -56zM389 562q3 -47 25.5 -77t59.5 -30q28 0 42 18t14 45q0 28 -8 44h-133z" />
    <glyph glyph-name="bnT_THA" horiz-adv-x="862" 
d="M837 -9l-85 -100l-637 211v128q348 10 348 201q0 46 -20 77q-28 -48 -55 -87h-88q0 134 -74 134q-29 0 -45.5 -22t-16.5 -53q0 -34 18 -51.5t46 -17.5q22 0 38 10l20 -108q-30 -18 -78 -18q-75 0 -123 49t-48 136q0 88 48 143t131 55q44 0 83 -21.5t60 -65.5q31 45 51 80
h58q126 -95 126 -241q0 -110 -59 -177t-178 -99v-4l290 -95h4q-8 67 -8 175v543h139v-102h100v-109h-100v-552z" />
    <glyph glyph-name="bnN_THA" horiz-adv-x="640" 
d="M659 562h-77q19 -30 19 -79q0 -69 -41 -111q41 -55 41 -131q0 -84 -50 -132.5t-128 -59.5v-4q56 -13 135 -58l72 -42l-92 -93q-22 13 -59 36q-128 78 -171 97.5t-104 24.5v110h68q91 0 142.5 31.5t51.5 89.5q0 38 -19.5 61t-53.5 23q-22 0 -36 -12t-14 -33q0 -34 39 -48
l-92 -69q-42 16 -63.5 50.5t-21.5 78.5q0 59 41 102q-25 9 -41 9q-24 0 -36.5 -12.5t-12.5 -32.5q0 -24 18 -46l-109 -38q-35 35 -35 94q0 68 41 111.5t118 43.5q47 0 90 -18.5t77 -36.5t59 -18q28 0 43 15.5t15 40.5t-15 40.5t-43 15.5h-435v109h679v-109z" />
    <glyph glyph-name="bnM_THA" horiz-adv-x="640" 
d="M415 450q28 0 43 15.5t15 40.5t-15 40.5t-43 15.5h-173q8 -22 12 -48q29 -8 82 -36t79 -28zM659 562h-77q19 -30 19 -79q0 -69 -41 -111q41 -55 41 -131q0 -84 -50 -132.5t-128 -59.5v-4q56 -13 135 -58l72 -42l-92 -93q-22 13 -59 36q-128 78 -171 97.5t-104 24.5v110
h68q91 0 142.5 31.5t51.5 89.5q0 38 -19.5 61t-53.5 23q-22 0 -36 -12t-14 -33q0 -34 39 -48l-92 -69q-42 16 -63.5 50.5t-21.5 78.5q0 59 41 102q-25 9 -41 9q-24 0 -36.5 -12.5t-12.5 -32.5q0 -24 18 -46l-109 -38q-35 35 -35 94q0 107 89 143q-7 32 -19 51h-120v109h679
v-109z" />
    <glyph glyph-name="bnS_THA" horiz-adv-x="718" 
d="M644 506q0 -66 -35 -107q66 -58 66 -158q0 -84 -50 -132.5t-128 -59.5v-4q56 -13 135 -58l72 -42l-92 -93q-22 13 -59 36q-128 78 -171 97.5t-104 24.5v110h68q91 0 142.5 31.5t51.5 89.5q0 38 -19.5 61t-53.5 23q-22 0 -36 -12t-14 -33q0 -34 39 -48l-92 -69
q-42 16 -63.5 50.5t-21.5 78.5q0 65 48 108q-13 16 -24 39q-43 -94 -147 -94q-91 0 -147 70l67 86q41 -44 80 -44q64 0 80 105h-256v109h758v-109h-100q6 -30 6 -56zM376 562q3 -47 25.5 -77t59.5 -30q28 0 42 18t14 45q0 28 -8 44h-133z" />
    <glyph glyph-name="bnG_DA" horiz-adv-x="932" 
d="M350 383q0 -107 -121 -195l-95 94q85 54 85 106q0 19 -15.5 32.5t-45.5 13.5q-25 0 -54 -8l-90 98q35 62 101.5 108t151.5 46q106 0 172 -69h4q-9 23 -9 58v4h518v-109h-391v-209q36 42 96 82.5t121 62.5l106 -62q-41 -107 -41 -284v-152h-140v151q0 115 34 191
q-44 -28 -97.5 -84.5t-86.5 -112.5l-132 48v198q0 80 -38.5 123t-108.5 43q-69 0 -115 -44q21 5 49 5q57 0 99.5 -35.5t42.5 -99.5z" />
    <glyph glyph-name="bnD_DA" horiz-adv-x="862" 
d="M779 -99h-140v151q0 125 27 186q-43 -28 -93 -81.5t-84 -110.5l-132 48v77q0 121 23 183q-43 -27 -91 -79.5t-82 -109.5l-132 48v349h-95v109h903v-109h-668v-189q36 42 96 82.5t121 62.5l108 -62q-45 -115 -45 -211v-7q40 47 100.5 93.5t118.5 67.5l106 -62
q-41 -107 -41 -284v-152z" />
    <glyph glyph-name="bnN_DA" horiz-adv-x="877" 
d="M897 562h-389v-209q36 42 96 82.5t121 62.5l106 -62q-41 -107 -41 -284v-152h-140v151q0 115 34 191q-44 -28 -97.5 -84.5t-86.5 -112.5l-132 48q-30 74 -70.5 120t-86.5 46q-24 0 -38.5 -12.5t-14.5 -34.5t18 -44l-107 -38q-35 41 -35 92q0 69 43.5 111t119.5 42
q59 0 104.5 -25.5t70.5 -66.5l4 1q-8 51 -8 122v56h-388v109h917v-109z" />
    <glyph glyph-name="bnB_DA" horiz-adv-x="853" 
d="M753 0h-132v162q0 102 26 160q-40 -26 -93.5 -90.5t-90.5 -126.5l-412 170v98q36 38 112.5 86.5t167.5 76.5v26h-351v109h893v-109h-402v-242q39 46 99 91.5t118 66.5l106 -62q-41 -107 -41 -254v-162zM331 286v131q-74 -32 -131 -76z" />
    <glyph glyph-name="bnM_DA" horiz-adv-x="865" 
d="M412 450q28 0 43 15.5t15 40.5t-15 40.5t-43 15.5h-172q8 -22 12 -48q29 -9 81.5 -36.5t78.5 -27.5zM885 562h-306q19 -30 19 -79q0 -53 -29.5 -97t-96.5 -56v-78q42 39 103.5 78.5t119.5 60.5l106 -62q-41 -107 -41 -254v-142h-132v142q0 101 22 150q-86 -55 -186 -171
l-132 48v247q-18 8 -45 23t-47 23t-38 8q-24 0 -36.5 -12.5t-12.5 -32.5q0 -24 18 -46l-109 -38q-35 35 -35 94q0 50 23 88t67 55q-7 32 -19 51h-118v109h905v-109z" />
    <glyph glyph-name="bnL_DA" horiz-adv-x="1088" 
d="M984 0h-132v182q0 102 26 160q-44 -28 -97.5 -84.5t-86.5 -112.5l-132 48v141q-17 35 -58 35q-30 0 -47 -22t-17 -59v-32h-128v32q0 78 -61 78q-27 0 -45.5 -21.5t-18.5 -62.5q0 -46 24 -72.5t70 -26.5q33 0 58 12l17 -120q-36 -11 -83 -11q-109 0 -166.5 61t-57.5 159
q0 94 55.5 149.5t133.5 55.5q101 0 139 -77h4q10 35 37.5 57t67.5 22q42 0 71 -24h5v95h-582v109h1128v-109h-406v-209q36 42 96 82.5t121 62.5l106 -62q-41 -107 -41 -254v-182z" />
    <glyph glyph-name="bnG_DHA" horiz-adv-x="829" 
d="M411 -26h5q-8 69 -9 127q-97 -48 -133 -68zM340 374q0 -108 -103 -185l-106 84q77 54 77 103q0 19 -16.5 31t-46.5 12q-27 0 -52 -7l-90 112q35 62 101.5 108t151.5 46q106 0 172 -69h4q-23 63 -23 146v18h127v-102h313v-109h-313v-263q44 19 84 33.5t58 19.5l17 5
l90 -79q-20 -46 -20 -219v-108h-127v109q0 97 17 150q-51 -19 -119 -49v-242l51 -22l-75 -88l-375 164v119q138 85 270 149v150q0 81 -37 123.5t-107 42.5q-69 0 -115 -44q21 5 49 5q62 0 102.5 -38.5t40.5 -105.5z" />
    <glyph glyph-name="bnN_DHA" horiz-adv-x="798" 
d="M377 72h5q-8 69 -9 127q-97 -49 -133 -68zM818 562h-316v-165q44 19 84 33.5t58 19.5l17 5l90 -79q-20 -46 -20 -219v-108h-127v109q0 97 17 150q-51 -19 -119 -49v-242l51 -22l-75 -88l-375 164v119q112 70 225 127q-60 72 -117 72q-24 0 -38.5 -12t-14.5 -33
q0 -24 18 -46l-108 -39q-34 39 -34 93q0 69 43.5 111t119.5 42q112 0 175 -84l4 1q-8 51 -8 122v18h-388v109h838v-109z" />
    <glyph glyph-name="bnD_DHA" horiz-adv-x="778" 
d="M347 -36h5q-8 69 -9 127q-97 -49 -133 -68zM798 562h-603v-173q95 74 217 119l101 -62q-24 -64 -34 -154q42 17 80 31t55 19l17 5l90 -79q-20 -46 -20 -219v-128h-127v129q0 97 17 150q-51 -19 -119 -49v-242l51 -22l-75 -88l-375 164v119q128 80 274 151q6 75 24 119
q-96 -56 -184 -137l-127 47v300h-80v109h818v-109z" />
    <glyph glyph-name="bnB_DHA" horiz-adv-x="772" 
d="M792 562h-316v-268l157 59l90 -79q-20 -46 -20 -219v-108h-127v109q0 109 8 148q-46 -18 -108 -46v-257l50 -19l-78 -93l-393 147v138q79 50 161 96l-161 60v129q133 105 292 168v35h-367v109h812v-109zM351 -52h5q-9 77 -9 149q-93 -47 -163 -85zM351 242h5
q-9 77 -9 151v5q-95 -48 -160 -94z" />
    <glyph glyph-name="bnL_DHA" horiz-adv-x="969" 
d="M556 26h5q-7 58 -9 140q-74 -36 -145 -75zM989 562h-308v-199q43 18 82.5 33t57.5 21l18 6l90 -79q-20 -46 -20 -219v-108h-127v109q0 108 8 147q-34 -13 -109 -45v-257l51 -22l-82 -94l-368 162v139q115 73 270 149v49q-16 34 -61 34q-31 0 -49.5 -21t-18.5 -58v-31
h-124v31q0 38 -17 57t-44 19q-29 0 -46.5 -21t-17.5 -59q0 -73 65 -92l-46 -113q-72 18 -112.5 72.5t-40.5 133.5q0 90 55.5 144.5t131.5 54.5q55 0 89.5 -24t45.5 -55h4q8 33 38 57t69 24q48 0 74 -23h5v78h-572v109h1009v-109z" />
    <glyph glyph-name="bnK_NA" horiz-adv-x="727" 
d="M329 268h5q-9 72 -9 143q-74 -25 -145 -78zM747 562h-293v-21q117 -8 175 -67t58 -130q0 -121 -125 -171l-62 100q64 21 64 75q0 30 -29.5 52t-80.5 27v-546h-124q-15 32 -26 51t-28 42t-37 34t-44 11q-49 0 -49 -45q0 -18 14 -35l-112 -35q-25 39 -25 89
q0 63 43.5 104.5t110.5 41.5q52 0 93 -22.5t64 -57.5l4 1q-9 45 -11 81l-272 120v124q44 44 114.5 86t155.5 60v31h-345v109h767v-109z" />
    <glyph glyph-name="bnG_NA" horiz-adv-x="616" 
d="M344 370q0 -51 -27.5 -100.5t-82.5 -85.5l-102 83q81 47 81 108q0 46 -67 46q-24 0 -53 -8l-90 111q36 66 101 110t152 44q106 0 172 -69h4q-23 63 -23 146v18h127v-102h100v-109h-100v-652h-121q-15 32 -26 51t-28 42t-37 34t-44 11q-49 0 -49 -45q0 -18 14 -35
l-112 -35q-25 39 -25 89q0 63 43.5 104.5t110.5 41.5q52 0 93 -22.5t64 -57.5l4 1q-13 65 -13 119v183q0 80 -38.5 123t-108.5 43q-71 0 -119 -44q21 5 47 5q73 0 113 -39.5t40 -108.5z" />
    <glyph glyph-name="bnGH_NA" horiz-adv-x="616" 
d="M536 -139h-124q-68 143 -150 143q-51 0 -51 -45q0 -20 13 -36l-111 -34q-25 39 -25 89q0 64 45.5 105t113.5 41q107 0 169 -85l4 1q-9 45 -11 81l-354 108v115l25 15q18 11 37 20t29 12l10 3v5q-111 20 -111 113q0 28 11 50h-76v109h656v-109h-100v-701zM413 247l3 2
q-10 53 -10 137v176h-213q-11 -19 -11 -39q0 -25 19 -39t46 -14q38 0 77 27l51 -109l-148 -84z" />
    <glyph glyph-name="bnC_NA" horiz-adv-x="520" 
d="M540 562h-337q8 -14 29.5 -24t76.5 -30l29 -10q75 -26 109 -63t34 -103q0 -58 -29 -104v-387h-125q-68 138 -141 138q-20 0 -32 -11t-12 -31t15 -38l-109 -36q-30 39 -30 89q0 62 41 104.5t109 42.5q52 0 96 -23.5t67 -58.5l4 1q-13 78 -13 113v4q-33 -9 -71 -9
q-86 0 -133.5 44t-47.5 124v268h-90v109h560v-109zM204 291q0 -46 48 -46q38 0 68.5 26t30.5 60q0 23 -11.5 32t-44.5 20l-20 7q-50 18 -74 39h-4q7 -40 7 -122v-16z" />
    <glyph glyph-name="bnD_NA" horiz-adv-x="532" 
d="M552 562h-354v-152q32 27 84 55.5t106 46.5l96 -61q-13 -33 -19 -70.5t-7 -63t-1 -75.5v-298h-122q-68 138 -141 138q-20 0 -32 -11t-12 -31t15 -38l-109 -36q-30 39 -30 89q0 62 41 104.5t109 42.5q52 0 96 -23.5t67 -58.5l4 1q-13 78 -13 113v9q0 81 21 128
q-99 -63 -161 -121l-125 42v270h-85v109h572v-109z" />
    <glyph glyph-name="bnDH_NA" horiz-adv-x="580" 
d="M500 -133h-125q-27 55 -69.5 96.5t-89.5 41.5q-20 0 -33 -11t-13 -31t15 -38l-109 -36q-30 39 -30 89q0 62 41 104.5t109 42.5q54 0 103 -25.5t80 -68.5l4 1q-11 66 -12 90l-330 103v120l18 10q18 10 37 19t29 12l10 4v5q-46 8 -78.5 41t-32.5 87q0 74 48.5 118t125.5 44
q73 0 113 -32l-34 -102q-30 17 -61 17q-24 0 -39.5 -12.5t-15.5 -36.5q0 -25 20.5 -37t46.5 -12q57 0 141 55v146h231v-109h-100v-695zM376 249l3 2q-10 53 -10 132l-163 -83z" />
    <glyph glyph-name="bnT_NA" horiz-adv-x="668" 
d="M632 324q0 -123 -85 -191v-335h-125q-27 55 -69.5 96.5t-89.5 41.5q-20 0 -33 -11t-13 -31t15 -38l-109 -36q-30 39 -30 89q0 62 41 104.5t109 42.5q54 0 103 -25.5t80 -68.5l4 1q-13 78 -13 113v7q-24 -2 -37 -2q-75 0 -137.5 31.5t-104 85t-68.5 110t-44 120.5l110 66
q31 -132 92.5 -215.5t150.5 -83.5q62 0 95.5 37.5t33.5 93.5q0 40 -15.5 64t-44.5 24q-17 0 -29 -11.5t-12 -29.5q0 -33 36 -44l-78 -74q-37 15 -60.5 50t-23.5 80q0 63 44.5 103t112.5 40q90 0 142 -57.5t52 -146.5zM688 562h-708v109h708v-109z" />
    <glyph glyph-name="bnN_NA" horiz-adv-x="583" 
d="M603 562h-101v-586h-114q-48 75 -89 115.5t-88 40.5q-24 0 -38.5 -12t-14.5 -33q0 -24 18 -46l-108 -39q-34 39 -34 93q0 69 45 111t121 42q113 0 176 -84l4 1q-7 41 -8 92q-41 62 -79.5 97t-81.5 35q-24 0 -38.5 -12t-14.5 -33q0 -24 18 -46l-108 -39q-34 39 -34 93
q0 69 45 111t121 42q113 0 176 -84l4 1q-8 51 -8 122v18h-392v109h623v-109z" />
    <glyph glyph-name="bnP_NA" horiz-adv-x="666" 
d="M175 529q71 -19 108 -85l114 73q-44 47 -110 47q-63 0 -112 -35zM586 -33h-114q-48 75 -89 115.5t-88 40.5q-24 0 -38.5 -12t-14.5 -33q0 -24 18 -46l-108 -39q-34 39 -34 93q0 69 45 111t121 42q113 0 176 -84l4 1q-7 45 -7 122v27q0 58 -10 104l-282 -182l-65 100
l81 52q-18 29 -43 46q-26 17 -55 21l-60 103q41 54 109 92.5t145 38.5q127 0 200 -95l3 2q-25 61 -25 163v23h131v-102h100v-109h-100v-595z" />
    <glyph glyph-name="bnM_NA" horiz-adv-x="640" 
d="M415 450q28 0 43 15.5t15 40.5t-15 40.5t-43 15.5h-173q8 -22 12 -48q29 -8 82 -36t79 -28zM659 562h-77q19 -30 19 -79q0 -87 -63 -129v-354h-124q-24 60 -64 107t-91 47q-21 0 -35.5 -11t-14.5 -31t15 -38l-109 -36q-30 39 -30 89q0 61 43 104t112 43q112 0 178 -88
l4 1q-13 65 -13 113v28q-50 6 -113.5 40.5t-90.5 34.5q-24 0 -36.5 -12.5t-12.5 -32.5q0 -24 18 -46l-109 -38q-35 35 -35 94q0 107 89 143q-7 32 -19 51h-120v109h679v-109z" />
    <glyph glyph-name="bnSH_NA" horiz-adv-x="657" 
d="M216 345q-58 -60 -141 -60q-23 0 -45 6v111q18 -3 38 -3q87 0 87 82q0 81 -92 81h-83v109h90q89 0 145 -51q54 54 131 54q75 0 115 -43h4q-13 52 -13 105v37h125v-102h100v-109h-100v-572h-124q-27 55 -69.5 96.5t-89.5 41.5q-20 0 -33 -11t-13 -31t15 -38l-109 -36
q-30 39 -30 89q0 62 41 104.5t109 42.5q54 0 103 -25.5t80 -68.5l4 1q-13 78 -13 113v181q0 112 -92 112q-38 0 -59.5 -20.5t-21.5 -60.5q0 -38 25 -58.5t63 -20.5q15 0 30 3v-112q-16 -4 -37 -4q-85 0 -140 57z" />
    <glyph glyph-name="bnS_NA" horiz-adv-x="689" 
d="M648 506q0 -105 -84 -145v-361h-124q-81 165 -159 165q-20 0 -33 -11t-13 -31t15 -38l-109 -36q-30 39 -30 89q0 62 41 104.5t109 42.5q54 0 103 -25.5t80 -68.5l4 1q-13 78 -13 113v41q-88 14 -128 93q-43 -94 -147 -94q-91 0 -147 70l67 86q41 -44 80 -44q64 0 80 105
h-260v109h729v-109h-67q6 -30 6 -56zM380 562q3 -47 25.5 -77t59.5 -30q28 0 42 18t14 45q0 28 -8 44h-133z" />
    <glyph glyph-name="bnH_NA" horiz-adv-x="790" 
d="M474 27l-92 -93q-22 13 -59 36q-128 78 -171 97.5t-104 24.5v110h68q91 0 142.5 31.5t51.5 89.5q0 38 -19.5 61t-53.5 23q-22 0 -36 -12t-14 -33q0 -34 39 -48l-92 -69q-42 16 -63.5 50.5t-21.5 78.5q0 66 51 111t138 45q122 0 177 -93q55 75 155 75q84 0 137.5 -52
t53.5 -142q0 -76 -48 -126.5t-125 -50.5q-59 0 -101 18l25 110q32 -13 60 -13q31 0 49 18.5t18 48.5q0 33 -20 50.5t-54 17.5q-45 0 -73.5 -33t-56.5 -102q-36 -106 -168 -125v-4q56 -13 135 -58zM810 562h-830v109h830v-109z" />
    <glyph glyph-name="bnK_SS_NA" horiz-adv-x="973" 
d="M576 172q-11 75 -13 156h-30q-100 0 -148 47.5t-48 147.5v39h-147q32 -50 36 -110q59 -21 103 -71.5t54 -119.5q68 -8 119.5 -34t73.5 -55zM524 449h38v113h-96v-44q0 -41 15.5 -55t42.5 -14zM993 562h-295v-112h10q107 0 160.5 -50t53.5 -131q0 -67 -36.5 -110
t-86.5 -61l-67 101q24 6 44 25.5t20 46.5q0 31 -20 44.5t-60 13.5h-18v-579h-125q-27 55 -69.5 96.5t-89.5 41.5q-20 0 -33 -11t-13 -31t15 -38l-109 -36q-30 39 -30 89q0 62 42 104.5t114 42.5q50 0 98 -25.5t79 -68.5l4 1q-12 68 -13 104q-30 51 -81 86t-112 45
q-15 -43 -45 -65t-63 -22q-38 0 -64 23t-26 63q0 33 23.5 61t62.5 42q-13 55 -57 86q-33 -65 -98 -65q-38 0 -64 23t-26 63q0 36 23 63t62 38q-10 57 -55 102h-68v109h1013v-109z" />
    <glyph glyph-name="bnM_PA" horiz-adv-x="1102" 
d="M592 529q45 -12 79 -47t49 -87l126 85q-47 84 -142 84q-63 0 -112 -35zM1022 0h-138v305q0 30 -3 59l-279 -193l-67 99l83 56q-10 55 -41 86q-39 -85 -152 -85q-48 0 -92 19t-78.5 38t-59.5 19q-24 0 -36.5 -12.5t-12.5 -32.5q0 -24 18 -46l-109 -38q-35 35 -35 94
q0 50 23 88t67 55q-5 30 -18 51h-112v109h525q23 -17 39 -36q64 45 155 45q72 0 124 -29t81 -66l3 2q-25 74 -25 163v23h140v-102h100v-109h-100v-562zM405 450q28 0 43 15.5t15 40.5t-15 40.5t-43 15.5h-171q7 -21 12 -49q29 -8 81 -35.5t78 -27.5z" />
    <glyph glyph-name="bnL_PA" horiz-adv-x="745" 
d="M249 73q73 -22 112 -94l117 76q-45 53 -119 53q-61 0 -110 -35zM766 562h-101v-808h-133v95q0 53 -9 98l-279 -186l-67 99l85 55q-29 54 -76 69q-20 7 -42 8l-64 94q41 57 112 97.5t157 40.5q130 0 203 -95l3 2q-25 66 -25 178v45q-17 35 -52 35q-28 0 -44 -21.5
t-16 -59.5v-14h-118v14q0 36 -15.5 57t-42.5 21t-43 -16t-16 -42q0 -39 36 -61l-90 -80q-35 19 -58 58t-23 83q0 80 50 130t128 51q48 1 83.5 -20t50.5 -53h4q11 33 36.5 54t59.5 21q41 0 65 -24h5v75h-550v109h786v-109z" />
    <glyph glyph-name="bnSS_PA" horiz-adv-x="1030" 
d="M507 526q52 -11 97 -44t67 -82l107 75q-47 89 -146 89q-71 0 -125 -38zM950 0h-138v305q0 19 -2 51l-270 -195l-67 99l95 67q-28 56 -81 80q-16 -79 -75 -122t-147 -43q-103 0 -165 58t-62 162q0 56 22 100h-80v109h285q103 0 164 -55q85 64 198 64q72 0 124 -29t81 -66
l3 2q-25 74 -25 163v23h140v-102h100v-109h-100v-562zM265 356q29 0 49 10l-143 135q-6 -18 -6 -39q0 -49 27.5 -77.5t72.5 -28.5zM265 565q-27 0 -47 -10l142 -137q7 18 7 44q0 47 -27.5 75t-74.5 28z" />
    <glyph glyph-name="bnS_PA" horiz-adv-x="1164" 
d="M1084 0h-138v305q0 30 -3 59l-279 -193l-67 99l83 56q-13 67 -53 96q-43 -79 -150 -79q-118 0 -171 96q-43 -94 -147 -94q-91 0 -147 70l67 86q41 -44 80 -44q64 0 80 105h-259v109h620q10 -15 19 -33q61 42 142 42q72 0 124 -29t81 -66l3 2q-25 74 -25 163v23h140v-102
h100v-109h-100v-562zM379 562q3 -47 25.5 -77t59.5 -30q28 0 42 18t14 45q0 28 -8 44h-133zM654 529q45 -12 79 -47t49 -87l126 85q-47 84 -142 84q-63 0 -112 -35z" />
    <glyph glyph-name="bnP_PA" horiz-adv-x="692" 
d="M187 176q72 -22 110 -96l120 81q-44 50 -118 50q-63 0 -112 -35zM187 529q86 -27 123 -118l121 90q-49 63 -132 63q-63 0 -112 -35zM612 -144h-133v96q0 55 -11 104l-281 -194l-67 99l78 53q-26 50 -74 67q-15 6 -28 7l-66 99q28 36 70 66l113 85q-28 81 -89 102
q-15 6 -28 7l-66 100q44 59 110 96t149 37q75 0 128 -29t82 -66l3 2q-25 74 -25 163v23h135v-102h100v-109h-100v-706zM499 226l3 2q-17 60 -21 122q-1 15 -5 43l-27 -20q-38 -28 -103 -63q100 -16 153 -84z" />
    <glyph glyph-name="bnM_PHA" horiz-adv-x="1082" 
d="M403 450q28 0 43 15.5t15 40.5t-15 40.5t-43 15.5h-173q5 -15 11 -45q35 -9 85 -38t77 -29zM1102 562h-531q18 -40 18 -79q0 -67 -40 -110l39 -49v-89l-112 -84l180 -85h4q-11 79 -11 197v217q69 38 160 38q97 0 160 -53t63 -147q0 -136 -131 -190l-69 108q28 7 49.5 28
t21.5 56q0 38 -23 58t-60 20q-18 0 -39 -7v-383l51 -24l-92 -92l-412 194v116l122 90l-28 35q-48 0 -88.5 19t-72 38t-56.5 19q-24 0 -36.5 -12.5t-12.5 -32.5q0 -24 18 -46l-109 -38q-35 35 -35 94q0 100 77 138q-5 33 -19 56h-108v109h1122v-109z" />
    <glyph glyph-name="bnS_PHA" horiz-adv-x="1140" 
d="M389 562q3 -47 25.5 -77t59.5 -30q28 0 42 18t14 45q0 28 -8 44h-133zM657 506q0 -83 -55 -127l44 -55v-89l-112 -84l180 -85h4q-11 79 -11 197v217q69 38 160 38q97 0 160 -53t63 -147q0 -136 -131 -190l-69 108q28 7 49.5 28t21.5 56q0 38 -23 58t-60 20q-18 0 -39 -7
v-383l51 -24l-92 -92l-412 194v116l122 90l-41 51q-53 3 -89.5 24t-61.5 72q-43 -94 -147 -94q-91 0 -147 70l67 86q41 -44 80 -44q64 0 80 105h-269v109h1180v-109h-509q6 -30 6 -56z" />
    <glyph glyph-name="bnL_PHA" horiz-adv-x="1177" 
d="M1197 562h-541v-151l37 -50v-84l-120 -95l196 -108h4q-12 86 -12 195v211q69 38 165 38q97 0 160 -53t63 -147q0 -136 -131 -190l-69 108q28 7 49.5 28t21.5 56q0 38 -23 58t-60 20q-18 0 -39 -7v-389l47 -27l-87 -91l-424 236v111l118 94l-32 45q-26 34 -58 34
q-29 0 -46 -20.5t-17 -56.5v-31h-117v31q0 74 -56 74q-25 0 -43.5 -20t-18.5 -55q0 -46 27 -73t75 -27q15 0 33 3l8 -113q-32 -5 -53 -5q-96 0 -155.5 59t-59.5 153q0 89 51.5 142t123.5 53q51 0 83.5 -23.5t42.5 -53.5h5q8 33 36 56t65 23q48 0 69 -24h5v66h-540v109h1217
v-109z" />
    <glyph glyph-name="bnSS_PHA" horiz-adv-x="1024" 
d="M265 568q-23 0 -45 -10l138 -135q8 21 8 42q0 45 -28.5 74t-72.5 29zM265 361q28 0 49 12l-142 133q-7 -21 -7 -41q0 -45 28.5 -74.5t71.5 -29.5zM780 -55l-92 -92l-396 186v112l108 78l-36 38q-45 -18 -99 -18q-99 0 -163 58.5t-64 157.5q0 55 22 97h-80v109h1064v-109
h-573q22 -42 22 -97q0 -67 -31 -117l77 -81v-89l-99 -74l164 -77h4q-11 79 -11 197v256q69 38 160 38q97 0 160 -53t63 -147q0 -136 -131 -190l-69 108q28 7 49.5 28t21.5 56q0 38 -23 58t-60 20q-18 0 -39 -7v-422z" />
    <glyph glyph-name="bnD_BHA" horiz-adv-x="687" 
d="M707 562h-384v-144q32 27 84 55.5t106 46.5l96 -61q-13 -33 -19 -70.5t-7 -63t-1 -75.5v-18q30 -24 55.5 -76t25.5 -115q0 -100 -68 -165t-200 -65q-270 0 -381 359l106 57q86 -294 276 -294q74 0 111.5 31.5t37.5 82.5q0 35 -16 58h-4q-10 -36 -45 -66t-94 -30
q-68 0 -108.5 38.5t-40.5 93.5q0 41 16 73l120 -15q-13 -21 -13 -49q0 -36 36 -36q37 0 59 61v76q0 81 21 128q-99 -63 -161 -121l-125 42v262h-210v109h727v-109z" />
    <glyph glyph-name="bnM_BHA" horiz-adv-x="690" 
d="M442 450q28 0 43 15.5t15 40.5t-15 40.5t-43 15.5h-183q5 -15 11 -45q35 -8 90 -37.5t82 -29.5zM710 562h-101q19 -30 19 -79q0 -91 -68 -132q91 -78 91 -203q0 -100 -68 -165t-200 -65q-233 0 -349 271l100 68q86 -217 250 -217q74 0 111.5 31.5t37.5 82.5q0 35 -16 58
h-4q-10 -36 -45 -66t-94 -30q-68 0 -108.5 38.5t-40.5 93.5q0 41 16 73l120 -15q-13 -21 -13 -49q0 -36 36 -36q49 0 72 106q-46 1 -89 20t-76.5 37.5t-58.5 18.5q-24 0 -36.5 -12.5t-12.5 -32.5q0 -24 18 -46l-109 -38q-35 35 -35 94q0 100 79 139q-5 32 -19 55h-137v109
h730v-109z" />
    <glyph glyph-name="bnB_BHA" horiz-adv-x="677" 
d="M449 256h5q-9 77 -9 151v9q-88 -41 -166 -93zM697 562h-123v-399q30 -24 55.5 -76t25.5 -115q0 -100 -68 -165t-200 -65q-270 0 -381 359l106 57q86 -294 276 -294q74 0 111.5 31.5t37.5 82.5q0 35 -16 58h-4q-10 -36 -45 -66t-94 -30q-68 0 -108.5 38.5t-40.5 93.5
q0 41 16 73l120 -15q-13 -21 -13 -49q0 -36 36 -36q43 0 66 84l-307 116v132q133 106 298 165v20h-465v109h717v-109z" />
    <glyph glyph-name="bnL_BHA" horiz-adv-x="741" 
d="M761 562h-110v-391q30 -26 54 -77t24 -112q0 -100 -68 -165t-200 -65q-136 0 -238.5 87.5t-152.5 210.5l102 68q17 -45 42.5 -86t61.5 -77.5t85 -58.5t104 -22q72 0 109 31.5t37 82.5q0 35 -16 58h-4q-10 -36 -45 -66t-94 -30q-68 0 -108.5 38.5t-40.5 93.5q0 53 23 99
l120 -15q-20 -32 -20 -75q0 -36 36 -36q40 0 62 69v246q-6 14 -22 24t-36 10q-29 0 -46 -20.5t-17 -56.5v-31h-117v31q0 74 -56 74q-25 0 -43.5 -20t-18.5 -55t20 -52.5t53 -17.5q13 0 26 3l8 -113q-25 -6 -52 -6q-75 0 -127.5 48t-52.5 135q0 89 51.5 142t123.5 53
q51 0 83.5 -23.5t42.5 -53.5h5q8 33 36 56t65 23q48 0 69 -24h5v66h-544v109h781v-109z" />
    <glyph glyph-name="bnK_MA" horiz-adv-x="950" 
d="M969 562h-99v-677h-128q-49 61 -129.5 104.5t-168.5 62.5q-14 -45 -45 -67t-68 -22q-40 0 -67.5 24.5t-27.5 67.5q0 60 51 93l-232 102v126q44 44 114.5 86t155.5 60v40h-345v109h989v-109zM329 259h5q-9 72 -9 143q-74 -25 -145 -78zM746 53q-7 49 -7 181v328h-285v-30
q118 -7 175.5 -60.5t57.5 -119.5t-36.5 -106t-88.5 -57l-62 100q64 11 64 63q0 60 -110 66v-252q157 -19 292 -113z" />
    <glyph glyph-name="bnG_MA" horiz-adv-x="910" 
d="M703 127q-7 49 -7 181v254h-145v-353q96 -21 152 -82zM927 562h-100v-630h-128q-48 117 -162 161q-16 -41 -45 -62t-63 -21q-41 0 -68.5 24t-27.5 67q0 39 23.5 68.5t63.5 41.5v180q0 80 -38.5 123t-108.5 43q-69 0 -115 -44q21 5 49 5q57 0 99.5 -35.5t42.5 -99.5
q0 -107 -121 -195l-95 94q85 54 85 106q0 19 -15.5 32.5t-45.5 13.5q-25 0 -54 -8l-90 98q35 62 101.5 108t151.5 46q106 0 172 -69h4q-23 63 -23 146v18h132v-102h376v-109z" />
    <glyph glyph-name="bnNG_MA" horiz-adv-x="892" 
d="M364 519q28 0 42 12.5t14 32.5q0 15 -10 24.5t-28 9.5q-35 0 -35 -34v-44q6 -1 17 -1zM812 -212h-128q-50 123 -162 164q-15 -43 -44.5 -64.5t-64.5 -21.5q-41 0 -68.5 24t-27.5 67q0 38 22.5 67.5t62.5 41.5v23q-26 -2 -42 -2q-157 0 -250 96t-95 237l114 21
q1 -64 21 -112.5t53.5 -76t72.5 -40.5t84 -13q65 0 106 22.5t41 63.5q0 22 -8 30q-76 -42 -136 -42q-66 0 -103.5 37t-37.5 98v61q-67 33 -111 93h-131v109h200q18 -56 52 -93q2 43 40 75t103 32q40 0 74 -14h463v-109h-100v-774zM688 -17q-7 49 -7 181v398h-151v-4
q0 -57 -45 -90t-119 -33q-13 0 -19 1v-20q0 -28 25 -28q60 0 171 65q87 -57 87 -161q0 -117 -95 -169v-58q98 -22 153 -82z" />
    <glyph glyph-name="bnTT_MA" horiz-adv-x="806" 
d="M602 17q-7 49 -7 181v364h-386v-278q0 -22 14.5 -34.5t40.5 -12.5q46 0 82 31t36 75q0 46 -44 46q-24 0 -37 -16l-57 107q17 15 46 25.5t56 10.5q72 0 120 -44.5t48 -130.5q0 -84 -65 -149v-93q98 -22 153 -82zM487 689q0 -12 -1 -18h339v-109h-99v-740h-128
q-22 53 -64.5 95.5t-98.5 64.5q-16 -41 -45 -61.5t-63 -20.5q-41 0 -68.5 24t-27.5 67q0 38 22.5 67.5t62.5 41.5v20q-28 -5 -52 -5q-92 0 -140.5 45.5t-48.5 121.5v280h-95v109h373v9q0 39 -23.5 54.5t-74.5 15.5h-23q-119 0 -175.5 52t-56.5 127q0 9 2 25l133 21
q-3 -13 -3 -27q0 -82 106 -82h44q87 0 146 -46.5t59 -130.5z" />
    <glyph glyph-name="bnDD_MA" horiz-adv-x="964" 
d="M760 -26q-7 55 -7 187v401h-355v-93q0 -33 25 -33q32 0 150 83q42 -26 71 -77.5t29 -110.5q0 -102 -66 -165v-91q100 -35 153 -101zM984 562h-100v-777h-128q-47 112 -168 169q-17 -37 -44.5 -55.5t-58.5 -18.5q-40 0 -68 25t-28 68q0 41 24.5 71.5t67.5 40.5v16
q-39 -9 -85 -9q-161 0 -256.5 107t-97.5 266l131 30q0 -144 64.5 -211.5t158.5 -67.5q66 0 106 28.5t40 78.5q0 22 -9 40q-67 -52 -132 -52q-68 0 -105 41.5t-37 111.5v98h-279v109h1004v-109z" />
    <glyph glyph-name="bnNN_MA" horiz-adv-x="916" 
d="M712 127q-7 49 -7 181v254h-146v-353q98 -22 153 -82zM345 276q-43 -27 -108 -27q-99 0 -154 58.5t-55 147.5q0 97 61.5 159t167.5 62q124 0 188 -89l5 3q-20 64 -20 159v24h129v-102h376v-109h-99v-630h-128q-22 55 -64.5 97.5t-98.5 63.5q-16 -41 -45 -62t-63 -21
q-41 0 -68.5 24t-27.5 67q0 38 22.5 67.5t62.5 41.5v89q0 40 -3 71.5t-12.5 67t-25.5 59t-44.5 39t-67.5 15.5q-51 0 -79.5 -27t-28.5 -69q0 -38 23 -61.5t68 -23.5q31 0 58 13z" />
    <glyph glyph-name="bnT_MA" horiz-adv-x="919" 
d="M941 562h-102v-760h-128q-22 53 -64.5 95.5t-98.5 64.5q-16 -41 -45 -61.5t-63 -20.5q-41 0 -68.5 24t-27.5 67q0 38 22.5 67.5t62.5 41.5v17q-29 -6 -62 -6q-75 0 -137.5 31.5t-104 85t-68.5 110t-44 120.5l110 66q31 -132 92.5 -215.5t150.5 -83.5q62 0 95.5 37.5
t33.5 93.5q0 38 -15.5 63t-44.5 25q-17 0 -27.5 -10.5t-10.5 -28.5q0 -30 32 -49l-81 -75q-80 38 -80 127q0 69 46 109.5t115 40.5q89 0 139.5 -59.5t50.5 -144.5q0 -99 -57 -164v-91q98 -22 153 -82q-7 49 -7 181v384h-728v109h961v-109z" />
    <glyph glyph-name="bnD_MA" horiz-adv-x="838" 
d="M634 127q-7 49 -7 181v254h-422v-157q80 62 217 113l101 -62q-37 -98 -41 -247q98 -23 152 -82zM858 562h-100v-630h-128q-48 115 -164 159q-16 -40 -45 -60.5t-62 -20.5q-41 0 -68.5 24t-27.5 67q0 39 23 68t63 42q3 104 27 157q-102 -57 -179 -134l-127 47v281h-90v109
h878v-109z" />
    <glyph glyph-name="bnDH_MA" horiz-adv-x="861" 
d="M657 80q-7 49 -7 181v301h-145v-400q96 -21 152 -82zM881 562h-100v-677h-128q-51 120 -162 161q-16 -41 -45.5 -62t-62.5 -21q-41 0 -68.5 24t-27.5 67q0 51 38 84l-279 87v120l18 10q18 10 37 19t29 12l10 4v5q-46 8 -78.5 41t-32.5 87q0 74 48.5 118t125.5 44
q73 0 113 -32l-34 -102q-30 17 -61 17q-24 0 -39.5 -12.5t-15.5 -36.5q0 -25 20.5 -37t46.5 -12q62 0 141 48v153h507v-109zM381 246l3 2q-10 53 -10 135l-167 -85z" />
    <glyph glyph-name="bnN_MA" horiz-adv-x="850" 
d="M646 127q-7 49 -7 181v254h-146v-353q98 -22 153 -82zM974 562h-204v-630h-128q-50 122 -162 163q-16 -42 -45.5 -63.5t-63.5 -21.5q-41 0 -68.5 24t-27.5 67q0 38 22.5 67.5t62.5 41.5v56l-26 21q-40 33 -67 47.5t-53 14.5q-24 0 -40 -12.5t-16 -34.5q0 -32 25 -55
l-100 -50q-49 45 -49 114q0 66 46.5 110t120.5 44q77 0 159 -60v157h-385v109h999v-109z" />
    <glyph glyph-name="bnP_MA" horiz-adv-x="942" 
d="M738 127q-7 49 -7 181v254h-146v-353q98 -22 153 -82zM174 529q83 -23 119 -108l118 76q-44 67 -125 67q-63 0 -112 -35zM862 -68h-128q-22 54 -64.5 97t-98.5 64q-16 -41 -45 -62t-63 -21q-41 0 -68.5 24t-27.5 67q0 40 24 69.5t65 40.5v94q0 35 -5 77l-287 -185
l-65 100l92 59q-16 42 -54 69q-26 17 -55 21l-60 103q41 54 109 92.5t145 38.5q127 0 200 -95l3 2q-25 61 -25 163v23h131v-102h375v-109h-98v-630z" />
    <glyph glyph-name="bnM_MA" horiz-adv-x="874" 
d="M398 450q28 0 43 15.5t15 40.5t-15 40.5t-43 15.5h-155q8 -22 13 -49q25 -8 70.5 -35.5t71.5 -27.5zM670 127q-7 49 -7 181v254h-98q19 -30 19 -79q0 -90 -67 -132v-142q98 -22 153 -82zM895 562h-101v-630h-128q-23 57 -65 100t-97 63q-16 -42 -45.5 -63.5t-63.5 -21.5
q-41 0 -68.5 24t-27.5 67q0 38 22.5 67t62.5 42l-1 120q-41 7 -96.5 40t-81.5 33q-24 0 -36.5 -12.5t-12.5 -32.5q0 -24 18 -46l-109 -38q-35 35 -35 94q0 50 23 88t67 55q-5 30 -18 51h-122v109h915v-109z" />
    <glyph glyph-name="bnL_MA" horiz-adv-x="1008" 
d="M804 127q-7 49 -7 181v254h-146v-353q98 -22 153 -82zM1033 562h-105v-630h-128q-47 117 -163 161q-16 -41 -45.5 -62t-62.5 -21q-41 0 -68.5 24t-27.5 67q0 38 22.5 67t61.5 42v150q-18 27 -54 27q-29 0 -46 -20.5t-17 -56.5v-31h-117v31q0 74 -56 74q-25 0 -43.5 -21
t-18.5 -57q0 -47 28 -70t71 -23q15 0 30 3l8 -113q-28 -6 -56 -6q-87 0 -146.5 55t-59.5 151q0 89 50.5 141.5t122.5 52.5q52 0 85.5 -22t42.5 -51h5q8 33 35 55.5t64 22.5q51 0 71 -23h1v83h-537v109h1053v-109z" />
    <glyph glyph-name="bnSH_MA" horiz-adv-x="936" 
d="M732 127q-7 49 -7 181v254h-145v-353q96 -21 152 -82zM856 -68h-128q-22 54 -64 96.5t-98 63.5q-16 -41 -45 -61.5t-63 -20.5q-41 0 -68.5 24t-27.5 67q0 39 23 68t63 41v239q0 112 -92 112q-38 0 -59.5 -20.5t-21.5 -60.5q0 -38 25 -58.5t63 -20.5q15 0 30 3v-112
q-16 -4 -37 -4q-85 0 -140 57q-58 -60 -141 -60q-23 0 -45 6v111q18 -3 38 -3q87 0 87 82q0 81 -92 81h-83v109h90q89 0 145 -51q54 54 131 54q75 0 115 -43h4q-13 52 -13 105v37h128v-102h376v-109h-100v-630z" />
    <glyph glyph-name="bnS_MA" horiz-adv-x="941" 
d="M648 506q0 -89 -64 -134v-163q98 -22 153 -82q-7 49 -7 181v254h-88q6 -30 6 -56zM861 -68h-128q-22 55 -64.5 98t-98.5 64q-15 -41 -44.5 -62.5t-63.5 -21.5q-41 0 -68.5 24t-27.5 67q0 38 22.5 67.5t62.5 41.5v134q-100 10 -144 95q-43 -94 -147 -94q-91 0 -147 70
l67 86q41 -44 80 -44q64 0 80 105h-260v109h981v-109h-100v-630zM380 562q3 -47 25.5 -77t59.5 -30q28 0 42 18t14 45q0 28 -8 44h-133z" />
    <glyph glyph-name="bnSS_MA" horiz-adv-x="798" 
d="M276 565q-27 0 -51 -11l145 -146q11 25 11 54q0 47 -29 75t-76 28zM818 562h-100v-630h-128q-22 53 -64.5 95.5t-98.5 64.5q-16 -41 -45 -61.5t-63 -20.5q-41 0 -68.5 24t-27.5 67q0 38 22.5 67.5t62.5 41.5v28q-20 -2 -32 -2q-103 0 -167 60.5t-64 165.5q0 57 23 100
h-88v109h838v-109zM276 351q31 0 58 16l-148 148q-12 -22 -12 -53q0 -49 28.5 -80t73.5 -31zM594 127q-7 49 -7 181v254h-102q23 -43 23 -100q0 -106 -67 -167v-86q98 -22 153 -82z" />
    <glyph glyph-name="bnH_MA" horiz-adv-x="974" 
d="M994 562h-321v-97q91 17 171 54l86 -91q-20 -80 -20 -211v-165h-130v165q0 101 8 154q-44 -15 -115 -27v-360h-128q-13 55 -53 103t-103 62q-15 -42 -44.5 -64t-62.5 -22q-38 0 -64 23t-26 63q0 33 23.5 61t62.5 42q-13 55 -57 86q-33 -65 -98 -65q-38 0 -64 23t-26 63
q0 36 23 63t62 38q-10 57 -55 102h-83v109h1014v-109zM551 172q-11 71 -14 160q-25 -1 -80 -1q-45 0 -82 3q17 -34 23 -74q55 -9 95 -34.5t58 -53.5zM446 445q48 0 91 3v114h-332q30 -49 36 -107q104 -10 205 -10z" />
    <glyph glyph-name="bnK_SS_MA" horiz-adv-x="1192" 
d="M591 172q-11 75 -13 156h-30q-100 0 -148 47.5t-48 147.5v39h-147q32 -50 36 -110q59 -21 103 -71.5t54 -119.5q68 -8 119.5 -34t73.5 -55zM539 449h38v113h-96v-44q0 -41 15.5 -55t42.5 -14zM987 -62q-7 49 -7 181v443h-267v-112h10q107 0 160.5 -50t53.5 -131
q0 -67 -36.5 -110t-86.5 -61l-67 101q24 6 44 25.5t20 46.5q0 31 -20 44.5t-60 13.5h-18v-278q136 -19 274 -113zM1212 562h-101v-792h-128q-112 140 -278 172q-13 -47 -45 -70.5t-70 -23.5q-40 0 -67.5 24.5t-27.5 67.5q0 71 67 101q-25 42 -70.5 71t-101.5 38
q-15 -43 -45 -65t-63 -22q-38 0 -64 23t-26 63q0 33 23.5 61t62.5 42q-13 55 -57 86q-33 -65 -98 -65q-38 0 -64 23t-26 63q0 36 23 63t62 38q-10 57 -55 102h-83v109h1232v-109z" />
    <glyph glyph-name="bnK_LA" horiz-adv-x="877" 
d="M466 243h5q-9 77 -9 151v9q-84 -22 -193 -80zM897 562h-306v-30q63 -3 111 -22.5t75 -49t40 -62t13 -66.5q0 -64 -33 -112.5t-92 -70.5l-62 100q64 20 64 83q0 37 -30.5 60t-85.5 26v-695h-128v234q-14 31 -45 31q-24 0 -37 -19.5t-13 -52.5v-19h-113v19q0 69 -51 69
q-23 0 -37 -18.5t-14 -50.5q0 -37 22 -53.5t53 -16.5q22 0 45 7l17 -115q-25 -11 -67 -11q-90 0 -139.5 51.5t-49.5 137.5q0 82 46 131t114 49q84 0 118 -66h4q24 66 85 66q33 0 59 -21h3v45l-321 129v127q57 45 143.5 86.5t176.5 59.5v40h-482v109h917v-109z" />
    <glyph glyph-name="bnG_LA" horiz-adv-x="656" 
d="M576 -191h-131v230q-5 12 -18 21.5t-29 9.5q-48 0 -48 -72v-19h-113v19q0 69 -51 69q-23 0 -37 -18.5t-14 -50.5q0 -37 22 -53.5t53 -16.5q22 0 45 7l16 -116q-29 -9 -66 -9q-90 0 -139.5 51t-49.5 137q0 82 46 131t114 49q84 0 118 -66h4q24 66 85 66q33 0 59 -21h3v234
q0 80 -38.5 123t-108.5 43q-69 0 -115 -44q21 5 49 5q57 0 99.5 -35.5t42.5 -99.5q0 -107 -121 -195l-95 94q85 54 85 106q0 19 -15.5 32.5t-45.5 13.5q-25 0 -54 -8l-90 98q35 62 101.5 108t151.5 46q106 0 172 -69h4q-23 63 -23 146v18h132v-102h100v-109h-100v-753z" />
    <glyph glyph-name="bnT_LA" horiz-adv-x="668" 
d="M632 323q0 -86 -43 -146v-508h-131v230q-5 12 -18 21.5t-29 9.5q-48 0 -48 -72v-19h-113v19q0 69 -51 69q-23 0 -37 -18.5t-14 -50.5q0 -37 22 -53.5t53 -16.5q22 0 45 7l16 -117q-29 -9 -66 -9q-90 0 -139.5 51.5t-49.5 137.5q0 82 46 131t114 49q84 0 118 -66h4
q24 66 85 66q33 0 59 -21h3v74q-37 -10 -85 -10q-62 0 -114.5 21.5t-89 55.5t-66 81.5t-47 94t-30.5 98.5l110 62q72 -299 237 -299q62 0 98.5 35.5t36.5 94.5q0 40 -15.5 64.5t-44.5 24.5q-17 0 -28.5 -10.5t-11.5 -28.5q0 -33 34 -48l-77 -72q-38 18 -61 52t-23 78
q0 63 44.5 103t112.5 40q90 0 142 -58t52 -147zM688 562h-708v109h708v-109z" />
    <glyph glyph-name="bnP_LA" horiz-adv-x="692" 
d="M189 529q83 -23 119 -107l112 92q-45 50 -119 50q-63 0 -112 -35zM612 -75h-131v224q-5 12 -18 21.5t-29 9.5q-48 0 -48 -72v-10h-113v19q0 69 -51 69q-23 0 -37 -18t-14 -48q0 -39 22 -56t53 -17q22 0 45 7l16 -117q-29 -9 -66 -9q-90 0 -139.5 51.5t-49.5 137.5
q0 99 66 149l93 76q-18 64 -67 90q-22 12 -53 15l-64 94q42 59 109.5 99t154.5 40q75 0 128 -29t82 -66l3 2q-25 74 -25 163v23h133v-102h100v-109h-100v-637zM334 231q10 25 32.5 41t52.5 16q33 0 59 -21h3v38q0 53 -9 98l-73 -60q-26 -22 -100 -73q17 -14 31 -39h4z" />
    <glyph glyph-name="bnPH_LA" horiz-adv-x="857" 
d="M577 -301h-131v230q-5 12 -18 21.5t-29 9.5q-48 0 -48 -72v-19h-113v19q0 69 -51 69q-23 0 -37 -18.5t-14 -50.5q0 -37 22 -53.5t53 -16.5q22 0 45 7l16 -117q-28 -9 -66 -9q-90 0 -139.5 51.5t-49.5 137.5q0 82 46 131t114 49q84 0 118 -66h4q24 66 85 66q33 0 59 -21h3
v49l-333 119v116l120 91l-120 101v39h-133v109h897v-109h-624v-4l111 -93v-94l-110 -82l194 -70h4q-12 86 -12 195v66q69 38 165 38q97 0 160 -53t63 -147q0 -136 -131 -190l-69 108q28 7 49.5 28t21.5 56q0 38 -23 58t-60 20q-18 0 -39 -7v-692z" />
    <glyph glyph-name="bnB_LA" horiz-adv-x="660" 
d="M460 251l3 3q-10 77 -10 169v2q-110 -46 -200 -108zM680 562h-100v-823h-131v230q-5 12 -18 21.5t-29 9.5q-48 0 -48 -72v-19h-113v19q0 69 -51 69q-23 0 -37 -18.5t-14 -50.5q0 -37 22 -53.5t53 -16.5q22 0 45 7l16 -113q-28 -9 -66 -9q-90 0 -139.5 49.5t-49.5 135.5
q0 82 46 131t114 49q84 0 118 -66h4q24 66 85 66q33 0 59 -21h3v43l-314 104v148q144 105 318 165v15h-473v109h700v-109z" />
    <glyph glyph-name="bnBH_LA" horiz-adv-x="667" 
d="M590 -165h-133v230q-5 12 -18 21.5t-29 9.5q-48 0 -48 -72v-19h-113v19q0 69 -51 69q-23 0 -37 -18.5t-14 -50.5q0 -37 22 -53.5t53 -16.5q22 0 45 7l16 -113q-29 -9 -66 -9q-90 0 -139.5 49.5t-49.5 135.5q0 83 46.5 134t113.5 51q84 0 118 -66h4q24 66 85 66
q32 0 58 -21h4v70q0 67 -18 92h-4q-12 -40 -51.5 -73.5t-105.5 -33.5q-76 0 -119 42.5t-43 105.5q0 43 19 81l129 -17q-15 -25 -15 -54q0 -41 41 -41q60 0 95 133h109q96 -89 96 -239v-419zM687 562h-707v109h707v-109z" />
    <glyph glyph-name="bnM_LA" horiz-adv-x="667" 
d="M687 562h-86q19 -30 19 -79q0 -59 -33 -102v-477h-131v230q-5 12 -18 21.5t-29 9.5q-48 0 -48 -72v-19h-113v19q0 69 -51 69q-23 0 -37 -18.5t-14 -50.5q0 -37 22 -53.5t53 -16.5q22 0 45 7l16 -113q-28 -9 -66 -9q-90 0 -139.5 49.5t-49.5 135.5q0 82 46 131t114 49
q84 0 118 -66h4q24 66 85 66q33 0 59 -21h3v75h-2q-48 0 -92 19t-78.5 38t-59.5 19q-24 0 -36.5 -12.5t-12.5 -32.5q0 -18 10 -35l-108 -41q-28 35 -28 86q0 50 23 88t67 55q-7 32 -19 51h-140v109h707v-109zM434 450q28 0 43 15.5t15 40.5t-15 40.5t-43 15.5h-172
q8 -22 12 -48q29 -9 81.5 -36.5t78.5 -27.5z" />
    <glyph glyph-name="bnL_LA" horiz-adv-x="752" 
d="M370 197q8 33 36 56t65 23q48 0 69 -24h5v113q-6 14 -22 24t-36 10q-29 0 -46 -20.5t-17 -56.5v-21h-117v21q0 74 -56 74q-25 0 -43.5 -20t-18.5 -55q0 -32 18 -50q16 3 32 3q51 0 83.5 -23.5t42.5 -53.5h5zM772 562h-100v-672h-127v236q-6 14 -22 24t-36 10
q-29 0 -46 -20.5t-17 -56.5v-21h-117v21q0 74 -56 74q-25 0 -43.5 -19.5t-18.5 -54.5q0 -39 23.5 -58t58.5 -19q28 0 49 8l16 -113q-32 -10 -67 -10q-93 0 -149 51.5t-56 136.5q0 71 36 122q-36 49 -36 117q0 89 51.5 142t123.5 53q51 0 83.5 -23.5t42.5 -53.5h5q8 33 36 56
t65 23q48 0 69 -24h5v71h-565v109h792v-109z" />
    <glyph glyph-name="bnSH_LA" horiz-adv-x="737" 
d="M657 -161h-138v232q-6 14 -22 24t-36 10q-29 0 -46 -20.5t-17 -56.5v-31h-117v31q0 74 -56 74q-25 0 -43.5 -20t-18.5 -55q0 -70 73 -70q25 0 46 7l8 -113q-38 -11 -71 -11q-77 0 -129 48t-52 136q0 89 51.5 142t123.5 53q51 0 83.5 -23.5t42.5 -53.5h5q8 33 36 56t65 23
q48 0 69 -24h5v236q0 59 -29 89.5t-77 30.5q-41 0 -66 -23.5t-25 -66.5q0 -41 26.5 -63.5t67.5 -22.5q23 0 43 7v-122q-17 -7 -51 -7q-93 0 -154 67q-60 -70 -148 -70q-15 0 -30.5 2.5t-23.5 5.5l-7 2v120q22 -8 53 -8q91 0 91 90q0 45 -23.5 71.5t-72.5 26.5h-113v109h120
q96 0 155 -64q64 67 159 67q77 0 119 -47h4q-14 54 -14 114v32h134v-102h100v-109h-100v-723z" />
    <glyph glyph-name="bnS_LA" horiz-adv-x="695" 
d="M667 505q0 -91 -77 -130v-431h-131v230q-5 12 -18 21.5t-29 9.5q-48 0 -48 -72v-19h-113v19q0 69 -51 69q-23 0 -37 -18.5t-14 -50.5q0 -37 22 -53.5t53 -16.5q22 0 45 7l16 -113q-29 -9 -66 -9q-90 0 -139.5 49.5t-49.5 135.5q0 82 46 131t114 49q84 0 118 -66h4
q24 66 85 66q33 0 59 -21h3v62q-99 11 -144 105q-42 -104 -151 -104q-80 0 -142 60l69 89q34 -47 73 -47q53 0 71 105h-255v109h735v-109h-56q8 -26 8 -57zM386 562q7 -47 32 -75t59 -28q25 0 39 16.5t14 42.5t-9 44h-135z" />
    <glyph glyph-name="bnH_LA" horiz-adv-x="639" 
d="M643 100l-65 -92q-5 2 -21.5 8.5t-25.5 9.5v-311h-125v206q-14 28 -39 28q-40 0 -40 -65v-17h-103v17q0 62 -45 62q-19 0 -31 -17t-12 -45q0 -63 64 -63q15 0 32 5l15 -102q-23 -6 -51 -6q-78 0 -122.5 45t-44.5 121q0 73 40.5 117.5t100.5 44.5q73 0 106 -59h4
q22 59 74 59q27 0 49 -19h3v46q-146 53 -239 61v113h51q81 0 130 29t49 80q0 31 -21.5 48.5t-53.5 17.5q-23 0 -37.5 -12t-14.5 -32q0 -22 19 -34l-82 -65q-30 16 -46 44t-16 59q0 67 48.5 107.5t127.5 40.5q84 0 139 -48t55 -126q0 -68 -36.5 -107t-91.5 -54v-5
q62 -11 138 -42zM659 562h-679v109h679v-109z" />
    <glyph glyph-name="bnS_K_LA" horiz-adv-x="808" 
d="M657 506q0 -64 -36 -108q84 -20 124.5 -72t40.5 -109q0 -66 -36.5 -106t-88.5 -57l-62 100q64 11 64 63q0 30 -27 51t-78 25v-637h-125v218q-14 30 -41 30q-42 0 -42 -69v-18h-109v18q0 66 -47 66q-20 0 -32.5 -18.5t-12.5 -47.5q0 -66 67 -66q16 0 34 5l16 -107
q-24 -6 -54 -6q-83 0 -129.5 47t-46.5 127q0 77 42.5 124t106.5 47q76 0 111 -62h4q24 62 78 62q28 0 51 -20h4v38l-274 94v133q87 85 203 127q-27 21 -46 61q-44 -89 -147 -89q-91 0 -147 70l67 86q40 -44 80 -44q65 0 80 100h-269v109h848v-109h-177q6 -30 6 -56zM433 149
h5q-8 69 -9 128q-74 -25 -145 -78zM389 562q3 -47 25.5 -77t59.5 -30q28 0 42 18t14 45q0 28 -8 44h-133z" />
    <glyph glyph-name="bnM_P_LA" horiz-adv-x="1102" 
d="M592 529q83 -23 119 -107l112 92q-45 50 -119 50q-63 0 -112 -35zM1022 -75h-138v224q-5 12 -18 21.5t-29 9.5q-48 0 -48 -72v-10h-113v19q0 69 -51 69q-23 0 -37 -18.5t-14 -50.5q0 -37 22 -53.5t53 -16.5q22 0 45 7l16 -113q-28 -9 -66 -9q-90 0 -139.5 49.5
t-49.5 135.5q0 99 66 149l93 76q-14 48 -40 71q-39 -86 -144 -86q-53 0 -97 20t-77.5 40t-62.5 20q-21 0 -34 -11t-13 -29q0 -24 18 -46l-107 -38q-37 37 -37 93q0 47 23 83.5t67 52.5q-5 29 -18 50h-112v109h525q22 -15 36 -31q70 40 153 40q75 0 128 -29t82 -66l3 2
q-25 74 -25 163v23h140v-102h100v-109h-100v-637zM737 231q23 57 85 57q33 0 59 -21h3v38q0 53 -9 98l-73 -60q-26 -22 -100 -73q17 -14 31 -39h4zM408 448q55 0 55 57q0 25 -15 41t-44 16h-170q7 -21 12 -49q29 -8 82 -36.5t80 -28.5z" />
    <glyph glyph-name="bnS_P_LA" horiz-adv-x="1164" 
d="M1084 -103h-138v242q-11 35 -45 35q-24 0 -37 -21t-13 -57v-31h-114v31q0 75 -48 75q-20 0 -32.5 -20t-12.5 -56q0 -71 54 -71q11 0 23 3l6 -114q-21 -6 -48 -6q-70 0 -116 48t-46 137q0 107 63 162l96 88q-12 51 -48 79q-43 -78 -150 -78q-122 0 -171 96
q-43 -94 -147 -94q-91 0 -147 70l67 86q41 -44 80 -44q64 0 80 105h-260v109h612q5 -8 20 -35q65 44 144 44q75 0 128 -29t82 -66l3 2q-25 74 -25 163v23h140v-102h100v-109h-100v-665zM380 562q3 -47 25.5 -77t59.5 -30q28 0 42 18t14 45q0 28 -8 44h-133zM654 529
q80 -23 116 -102l106 96q-44 41 -110 41q-63 0 -112 -35zM796 218q9 33 32 53t57 20q33 0 57 -24h4v38q0 66 -15 120l-86 -82q-43 -41 -93 -76q27 -19 40 -49h4z" />
    <glyph glyph-name="bnNG_K_SSA" horiz-adv-x="1513" 
d="M364 519q28 0 42 12.5t14 32.5q0 15 -10 24.5t-28 9.5q-35 0 -35 -34v-44q6 -1 17 -1zM1276 329h-18v-345h-128q-12 61 -66.5 107.5t-128.5 58.5q-15 -43 -45 -65t-63 -22q-38 0 -64 23t-26 63q0 33 23.5 61t62.5 42q-13 55 -57 86q-33 -65 -98 -65q-21 0 -38 7
q-2 -100 -72.5 -156.5t-197.5 -56.5q-156 0 -249.5 101.5t-95.5 243.5l114 21q2 -125 69 -187t162 -62q68 0 107.5 24.5t39.5 64.5q0 21 -8 29q-74 -34 -136 -34q-66 0 -103.5 36t-37.5 96v69q-67 33 -111 93h-131v109h200q18 -56 52 -93q2 43 42 75t105 32q38 0 84.5 -28
t61.5 -70v84h1008v-109h-275v-112h10q107 0 160.5 -50t53.5 -131q0 -67 -36.5 -110t-86.5 -61l-67 101q24 6 44 25.5t20 46.5q0 31 -20 44.5t-60 13.5zM372 380q60 0 171 65q27 -17 46 -41q22 41 74 56q-10 57 -55 102h-78v-4q0 -57 -45 -90t-119 -33q-13 0 -19 1v-28
q0 -28 25 -28zM1136 172q-11 75 -13 156h-30q-100 0 -148 47.5t-48 147.5v39h-147q32 -50 36 -110q59 -21 103 -71.5t54 -119.5q68 -8 119.5 -34t73.5 -55zM1084 449h38v113h-96v-44q0 -41 15.5 -55t42.5 -14z" />
    <glyph glyph-name="bnK_SA" horiz-adv-x="969" 
d="M770 96h4q-19 77 -19 189v277h-301v-36q117 -8 175 -67t58 -130q0 -121 -125 -171l-62 100q64 21 64 75q0 30 -29.5 52t-80.5 27v-309q134 30 192 30q82 0 124 -37zM989 562h-100v-642h-131q0 56 -28.5 74.5t-92.5 18.5q-44 0 -164.5 -24t-203.5 -24q-87 0 -153 37.5
t-99 96.5l86 67q19 -25 37 -41.5t57 -32.5t89 -16q18 0 39 3v48l-270 119v124q44 44 114.5 86t155.5 60v46h-345v109h1009v-109zM329 253h5q-9 72 -9 143q-74 -25 -145 -78z" />
    <glyph glyph-name="bnN_SA" horiz-adv-x="938" 
d="M858 0h-141v244q0 17 -9 26.5t-25 9.5q-27 0 -49.5 -22.5t-57.5 -77.5q-77 -122 -193 -122q-120 0 -205 107l88 87q51 -74 116 -74q12 0 22 3l-103 108q-50 53 -103 53q-18 0 -29.5 -11t-11.5 -32q0 -31 16 -50l-119 -39q-34 39 -34 96q0 68 47.5 111t119.5 43
q113 0 202 -101l87 -97q3 12 3 27q0 27 -7.5 50.5t-23 45t-28 35t-35 34.5t-30.5 29l-42 40v39h-333v109h978v-109h-100v-562zM583 398q4 -9 8 -29q49 44 90 44q22 0 39 -7q-3 35 -3 89v67h-259v-4l33 -32q71 -67 92 -128z" />
    <glyph glyph-name="bnP_SA" horiz-adv-x="1094" 
d="M1014 0h-141v244q0 16 -9.5 26t-25.5 10q-27 0 -49.5 -22t-56.5 -78q-36 -59 -88.5 -90.5t-108.5 -31.5q-110 0 -189 57l65 98q30 -24 72 -33l-30 69q-16 36 -25 54l-280 -178l-65 92l76 47q-25 54 -74 70q-20 7 -41 8l-61 90q39 54 103 89.5t149 35.5q63 0 116 -22
t91.5 -63t65 -83t51.5 -98l45 -99q31 30 31 97q0 27 -7 50.5t-23 45.5t-27.5 35t-35 34.5t-30.5 29.5l-43 39v39h-53v109h698v-109h-100v-562zM145 419q69 -24 109 -97l112 69q-53 55 -126 55q-58 0 -95 -27zM741 393q3 -8 7 -24q49 44 89 44q22 0 39 -7q-3 35 -3 89v67
h-259v-4l33 -32q72 -69 94 -133z" />
    <glyph glyph-name="bnK_RA" horiz-adv-x="1002" 
d="M617 -70h-118q0 59 -39 79.5t-143 28.5q-144 10 -214 63.5t-70 142.5q0 63 38 114l114 -43q-25 -29 -25 -71q0 -43 39 -67t128 -31q59 -4 95.5 -11.5t51.5 -14.5t36 -21h4q-18 73 -18 172v113q0 35 -37 35q-41 0 -72.5 -26t-31.5 -64q0 -39 34 -39q22 0 39 17l39 -96
q-31 -28 -96 -28q-67 0 -102.5 38.5t-35.5 98.5q0 85 68 147.5t174 62.5q55 0 89 -23t46 -60q59 56 152 56q81 0 138 -51.5t57 -136.5q0 -82 -47 -134t-131 -52q-60 0 -113 23l30 109q33 -14 70 -14q32 0 48 19t16 49t-23 48.5t-61 18.5q-57 0 -93 -47.5t-36 -121.5v-283z
M1022 562h-1042v109h1042v-109z" />
    <glyph glyph-name="bnKH_RA" horiz-adv-x="742" 
d="M662 -133h-124q-5 43 -32 62t-85 19q-18 0 -66.5 -1t-71.5 -1q-122 0 -183.5 60t-61.5 147l131 29q0 -50 27 -85t93 -35q21 0 69 1.5t64 1.5q86 0 123 -40h4q-11 34 -13 99l-436 131v123q259 15 259 126q0 20 -6 29q-39 -83 -140 -83q-68 0 -111 39t-43 101q0 55 26 88
h127q-28 -40 -28 -79q0 -19 11.5 -31t33.5 -12q29 0 50 28.5t41 86.5h72q88 -73 88 -177q0 -68 -39.5 -110.5t-126.5 -65.5v-4l223 -67l3 2q-8 110 -8 219v305h130v-102h100v-109h-100v-695z" />
    <glyph glyph-name="bnG_RA" horiz-adv-x="659" 
d="M383 374q0 -108 -103 -185l-106 84q77 54 77 103q0 19 -16.5 31t-46.5 12q-27 0 -52 -7l-90 112q35 62 101.5 108t151.5 46q106 0 172 -69h4q-23 63 -23 146v18h127v-102h100v-109h-100v-625h-123q-9 81 -117 81q-19 0 -44 -1t-46 -1q-117 0 -177.5 60t-60.5 147l131 29
q0 -50 27 -85t93 -35q20 0 45.5 1.5t44.5 1.5q71 0 111 -40h4q-14 46 -14 122v174q0 80 -38.5 123t-108.5 43q-69 0 -115 -44q21 5 49 5q62 0 102.5 -38.5t40.5 -105.5z" />
    <glyph glyph-name="bnGH_RA" horiz-adv-x="651" 
d="M571 -132h-123q-9 81 -117 81q-19 0 -44 -1t-46 -1q-117 0 -177.5 60.5t-60.5 146.5l131 29q0 -50 27 -85t93 -35q20 0 45.5 1.5t44.5 1.5q71 0 111 -40h4q-11 37 -13 95l-356 108v115l25 15q18 11 37 20t29 12l10 3v5q-111 20 -111 113q0 28 11 50h-111v109h691v-109
h-100v-694zM448 247l3 2q-10 53 -10 137v176h-213q-11 -19 -11 -39q0 -25 19 -39t46 -14q38 0 77 27l51 -109l-148 -84z" />
    <glyph glyph-name="bnNG_RA" horiz-adv-x="674" 
d="M377 523q26 0 39.5 13t13.5 34q0 16 -10 25t-26 9q-33 0 -33 -34v-46q5 -1 16 -1zM627 307q0 -97 -85 -159v-315h-123q-5 43 -29.5 62t-77.5 19q-19 0 -37.5 -1t-39.5 -1q-111 0 -163 59.5t-52 147.5l128 29q0 -120 100 -120q20 0 40.5 1.5t36.5 1.5q61 0 101 -40h4
q-12 37 -14 111q-21 -3 -44 -3q-143 0 -232.5 94.5t-91.5 228.5l107 22q2 -121 65.5 -181.5t151.5 -60.5q63 0 101.5 29t38.5 69q0 18 -7 29q-69 -41 -130 -41t-93 34.5t-32 93.5v57q-59 31 -100 89h-170v109h231l2 1q17 -55 44 -90q1 43 37 74.5t96 31.5q63 0 102.5 -31.5
t39.5 -88.5q0 -60 -42 -92.5t-113 -32.5h-16v-27q0 -28 26 -28q49 0 158 71q82 -56 82 -152z" />
    <glyph glyph-name="bnC_RA" horiz-adv-x="605" 
d="M298 300q0 -31 39 -31q34 0 68 27t34 70q0 21 -10.5 30.5t-37.5 18.5l-34 12q-38 13 -61 33h-4q6 -43 6 -113v-47zM625 562h-308q26 -18 69 -33l42 -15q70 -25 103 -56t33 -94q0 -53 -32 -104v-365h-123q-5 43 -29.5 62t-77.5 19q-19 0 -37.5 -1t-39.5 -1
q-111 0 -163 59.5t-52 147.5l128 29q0 -120 100 -120q20 0 40.5 1.5t36.5 1.5q61 0 101 -40h4q-12 41 -14 109q-33 -12 -70 -12q-79 0 -122.5 41t-43.5 105v266h-190v109h645v-109z" />
    <glyph glyph-name="bnCH_RA" horiz-adv-x="690" 
d="M258 363q0 -20 21 -20q25 0 40 16t15 39q0 21 -36.5 33t-39.5 15v-83zM453 395q0 -65 -49.5 -112t-125.5 -47q-70 0 -109 32t-39 88v206h-150v109h730v-109h-448q3 -11 19 -18.5t45.5 -17t47.5 -17.5q32 11 71 11q85 0 140.5 -52.5t55.5 -143.5q0 -79 -54 -135.5
t-159 -72.5v-4q48 -12 125 -47l112 -51l-83 -97q-13 6 -37 18v-198h-123q-5 43 -29.5 62t-77.5 19q-19 0 -37.5 -1t-39.5 -1q-111 0 -163 59.5t-52 147.5l128 29q0 -120 100 -120q20 0 40.5 1.5t36.5 1.5q61 0 101 -40h4q-9 30 -14 102q-118 57 -164 71.5t-121 23.5v110h146
q113 0 169 34.5t56 89.5q0 63 -52 74v-5z" />
    <glyph glyph-name="bnJ_RA" horiz-adv-x="909" 
d="M615 219q0 -79 -57 -134.5t-167 -55.5q-140 0 -236 101.5t-119 252.5l127 46q13 -119 73.5 -197t152.5 -78q91 0 91 62q0 19 -10 34l-83 10q-126 15 -126 113q0 95 119 189h-400v109h949v-109h-342q16 -45 65 -75t130 -30h23l48 -104q-53 -95 -53 -235v-371h-123
q-9 81 -133 81q-12 0 -125 -1t-135 -1q-123 0 -187.5 60.5t-64.5 146.5l128 29q0 -47 34.5 -83.5t102.5 -36.5q22 0 134.5 1.5t117.5 1.5q93 0 135 -50h4q-14 46 -14 132v102q0 132 37 210q-164 18 -225 158q-77 -58 -77 -97q0 -23 39 -28l105 -13q62 -62 62 -140z" />
    <glyph glyph-name="bnJH_RA" horiz-adv-x="879" 
d="M799 223l-113 -55l-148 78v-351h-123q-5 43 -29.5 62t-77.5 19q-19 0 -37.5 -1t-39.5 -1q-111 0 -163 59.5t-52 147.5l128 29q0 -120 100 -120q20 0 40.5 1.5t36.5 1.5q61 0 101 -40h4q-9 30 -13 81l-298 133v125q142 100 294 151v19h-429v109h558v-284l139 -76h4
q-13 41 -13 156v306h131v-102h100v-109h-100v-339zM413 262h5q-9 77 -9 151v7q-86 -34 -163 -83z" />
    <glyph glyph-name="bnNY_RA" horiz-adv-x="870" 
d="M567 99v-265h-123q-5 43 -29.5 62t-77.5 19q-19 0 -37.5 -1t-39.5 -1q-111 0 -163 59.5t-52 147.5l128 29q0 -120 100 -120q20 0 40.5 1.5t36.5 1.5q61 0 101 -40h4q-14 46 -14 112q0 34 -33.5 46t-131.5 21q-253 22 -253 207q0 63 35 114l116 -41q-24 -28 -24 -69
t31 -64t103 -28q74 -6 105 -15t59 -30h5q-16 67 -16 165v126q0 33 -35 33q-38 0 -63 -28.5t-25 -65.5t31 -37q21 0 37 16l34 -86q-33 -30 -84 -30q-63 0 -100 37.5t-37 98.5q0 84 60.5 145.5t158.5 61.5q82 0 117 -63q49 62 135 62q66 0 107 -38.5t41 -96.5q0 -38 -18 -67
t-52 -42v-4q38 -10 60 -39t22 -71q0 -59 -39 -99.5t-106 -40.5q-32 0 -68 12t-55 33q9 -44 9 -128zM563 432q0 -63 25.5 -99t70.5 -36q22 0 34.5 12t12.5 32q0 21 -15.5 32t-41.5 11h-29v95h23q53 0 53 46q0 18 -12.5 29.5t-34.5 11.5q-37 0 -61.5 -33t-24.5 -101z" />
    <glyph glyph-name="bnTT_RA" horiz-adv-x="614" 
d="M542 689q0 -12 -1 -18h93v-109h-370v-278q0 -22 14.5 -34.5t40.5 -12.5q46 0 82 31t36 75q0 46 -44 46q-24 0 -37 -16l-57 107q17 15 46 25.5t56 10.5q72 0 120 -44.5t48 -130.5q0 -58 -35 -112v-384h-123q-5 43 -29.5 62t-77.5 19q-19 0 -37.5 -1t-39.5 -1
q-111 0 -163 59.5t-52 147.5l128 29q0 -120 100 -120q20 0 40.5 1.5t36.5 1.5q61 0 101 -40h4q-14 46 -14 122v6q-45 -16 -89 -16q-92 0 -140.5 45.5t-48.5 121.5v280h-150v109h428v9q0 39 -23.5 54.5t-74.5 15.5h-77q-119 0 -175.5 52t-56.5 127q0 9 2 25l133 21
q-3 -13 -3 -27q0 -82 106 -82h98q87 0 146 -46.5t59 -130.5z" />
    <glyph glyph-name="bnTTH_RA" horiz-adv-x="598" 
d="M595 286q0 -87 -48 -149v-360h-123q-5 43 -29.5 62t-77.5 19q-19 0 -37.5 -1t-39.5 -1q-111 0 -163 59.5t-52 147.5l128 29q0 -120 100 -120q20 0 40.5 1.5t36.5 1.5q61 0 101 -40h4q-14 46 -14 122q-36 -9 -77 -9q-126 0 -200.5 84.5t-74.5 205.5q194 50 194 199v19
l-5 6h-278v109h200q-43 62 -43 124q0 80 52.5 129t140.5 44l26 -120q-39 5 -60 -11.5t-21 -48.5q0 -53 47 -117h330v-109h-228q16 -17 53.5 -55.5t50.5 -54.5t33 -45.5t27 -57.5t7 -63zM217 270q6 -35 39 -68.5t90 -33.5q51 0 83.5 31.5t32.5 85.5q0 26 -9 49.5t-18 36
t-32.5 38.5t-33.5 38q-9 -71 -54 -115t-98 -62z" />
    <glyph glyph-name="bnDD_RA" horiz-adv-x="726" 
d="M746 562h-348v-101q0 -33 25 -33q34 0 152 83q42 -26 71 -77.5t29 -110.5q0 -98 -63 -161v-355h-123q-5 43 -29.5 62t-77.5 19q-19 0 -57.5 -1t-59.5 -1q-111 0 -163 59.5t-52 147.5l128 29q0 -120 100 -120q20 0 60.5 1.5t56.5 1.5q61 0 101 -40h4q-14 46 -14 122v7
q-40 -10 -90 -10q-161 0 -256.5 107t-97.5 266l131 30q0 -144 64.5 -211.5t158.5 -67.5q66 0 106 28.5t40 78.5q0 22 -9 40q-67 -52 -132 -52q-68 0 -105 41.5t-37 111.5v106h-279v109h766v-109z" />
    <glyph glyph-name="bnDDH_RA" horiz-adv-x="614" 
d="M569 341q0 -58 -35 -112v-392h-123q-5 43 -29.5 62t-77.5 19q-19 0 -37.5 -1t-39.5 -1q-111 0 -163 59.5t-52 147.5l128 29q0 -120 100 -120q20 0 40.5 1.5t36.5 1.5q61 0 101 -40h4q-14 46 -14 122v14q-45 -16 -89 -16q-92 0 -140.5 45.5t-48.5 121.5v280h-150v109h654
v-109h-370v-278q0 -22 14.5 -34.5t40.5 -12.5q46 0 82 31t36 75q0 46 -44 46q-24 0 -37 -16l-57 107q17 15 46 25.5t56 10.5q72 0 120 -44.5t48 -130.5z" />
    <glyph glyph-name="bnNN_RA" horiz-adv-x="584" 
d="M504 -58h-115q-5 45 -25 63t-72 18q-14 0 -37 -1t-39 -1q-110 0 -158 58.5t-48 148.5l128 29q0 -49 21.5 -84.5t72.5 -35.5q16 0 37 1.5t36 1.5q51 0 91 -40h4q-14 46 -14 122v135q0 212 -129 212q-43 0 -67.5 -22.5t-24.5 -60.5q0 -31 19.5 -49.5t52.5 -18.5q32 0 62 24
l37 -99q-39 -30 -101 -30q-87 0 -135.5 49.5t-48.5 123.5q0 82 51.5 133t141.5 51q105 0 158 -74l4 3q-16 38 -16 132v42h114v-102h100v-109h-100v-620z" />
    <glyph glyph-name="bnT_RA" horiz-adv-x="686" 
d="M606 -70h-118q0 59 -39 79.5t-143 28.5q-144 10 -214 63.5t-70 142.5q0 63 38 114l114 -43q-25 -29 -25 -71q0 -43 39 -67t128 -31q59 -4 95.5 -11.5t51.5 -14.5t36 -21h4q-18 73 -18 172v113q0 35 -37 35q-41 0 -72.5 -26t-31.5 -64q0 -39 34 -39q22 0 39 17l39 -96
q-31 -28 -96 -28q-67 0 -102.5 38.5t-35.5 98.5q0 85 68 147.5t174 62.5q70 0 106 -36.5t36 -89.5v-474zM706 562h-726v109h726v-109z" />
    <glyph glyph-name="bnTH_RA" horiz-adv-x="666" 
d="M586 -93h-123q-5 43 -29.5 62t-77.5 19q-19 0 -62 -1t-64 -1q-111 0 -163 59.5t-52 147.5l128 29q0 -120 100 -120q20 0 65 1.5t61 1.5q61 0 101 -40h4q-9 27 -13 90l-391 131v112q224 3 224 107q0 27 -17 45t-44 18q-25 0 -40 -15t-15 -39q0 -21 12 -39l-112 -38
q-26 36 -26 83q0 71 49.5 115t129.5 44q77 0 131 -47.5t54 -129.5q0 -121 -133 -168v-4l174 -59h4q-5 46 -5 138v364h130v-102h100v-109h-100v-655z" />
    <glyph glyph-name="bnD_RA" horiz-adv-x="625" 
d="M645 562h-395v-167q70 69 217 123l101 -62q-41 -107 -41 -284v-272h-123q-5 43 -29.5 62t-77.5 19q-19 0 -37.5 -1t-39.5 -1q-111 0 -163 59.5t-52 147.5l128 29q0 -120 100 -120q20 0 40.5 1.5t36.5 1.5q61 0 101 -40h4q-14 46 -14 122v21q0 105 25 161
q-97 -56 -184 -147l-127 47v300h-135v109h665v-109z" />
    <glyph glyph-name="bnDH_RA" horiz-adv-x="624" 
d="M544 -143h-123q-5 43 -29.5 62t-77.5 19q-19 0 -37.5 -1t-39.5 -1q-111 0 -163 59.5t-52 147.5l128 29q0 -120 100 -120q20 0 40.5 1.5t36.5 1.5q61 0 101 -40h4q-12 39 -14 106l-333 104v120l18 10q18 10 37 19t29 12l10 4v5q-46 8 -78.5 41t-32.5 87q0 74 48.5 118
t125.5 44q73 0 113 -32l-34 -102q-30 17 -61 17q-24 0 -39.5 -12.5t-15.5 -36.5q0 -25 20.5 -37t46.5 -12q62 0 141 48v153h231v-109h-100v-705zM420 246l3 2q-10 53 -10 135l-167 -85z" />
    <glyph glyph-name="bnN_RA" horiz-adv-x="610" 
d="M630 562h-101v-643h-123q-5 43 -29.5 62t-77.5 19q-19 0 -37.5 -1t-39.5 -1q-111 0 -163 59.5t-52 147.5l128 29q0 -120 100 -120q20 0 40.5 1.5t36.5 1.5q61 0 101 -40h4q-14 46 -14 122v52q-44 66 -82.5 102t-82.5 36q-24 0 -38.5 -12t-14.5 -33q0 -24 18 -46l-108 -39
q-34 39 -34 93q0 69 45 111t121 42q113 0 176 -84l4 1q-8 51 -8 122v18h-419v109h650v-109z" />
    <glyph glyph-name="bnP_RA" horiz-adv-x="676" 
d="M185 529q75 -21 112 -92l115 73q-43 54 -115 54q-63 0 -112 -35zM596 -83h-126q-5 43 -29.5 62t-77.5 19q-19 0 -67.5 -1t-69.5 -1q-111 0 -163 59.5t-52 147.5l128 29q0 -120 100 -120q20 0 70.5 1.5t66.5 1.5q61 0 101 -40h4q-14 46 -14 122v108q0 47 -8 95l-284 -183
l-65 100l85 54q-17 35 -47 54q-26 17 -55 21l-60 103q41 54 109 92.5t145 38.5q127 0 200 -95l3 2q-25 61 -25 163v23h131v-102h100v-109h-100v-645z" />
    <glyph glyph-name="bnPH_RA" horiz-adv-x="849" 
d="M569 -155h-123q-5 43 -29.5 62t-77.5 19q-19 0 -37.5 -1t-39.5 -1q-111 0 -163 59.5t-52 147.5l128 29q0 -120 100 -120q20 0 40.5 1.5t36.5 1.5q61 0 101 -40h4q-11 35 -13 91l-339 121v116l120 91l-120 101v39h-125v109h889v-109h-624v-4l111 -93v-94l-110 -82l194 -70
h4q-12 86 -12 195v66q69 38 165 38q97 0 160 -53t63 -147q0 -136 -131 -190l-69 108q28 7 49.5 28t21.5 56q0 38 -23 58t-60 20q-18 0 -39 -7v-546z" />
    <glyph glyph-name="bnB_RA" horiz-adv-x="618" 
d="M413 262h5q-9 77 -9 151v7q-92 -37 -163 -83zM638 562h-100v-665h-123q-5 43 -29.5 62t-77.5 19q-19 0 -37.5 -1t-39.5 -1q-111 0 -163 59.5t-52 147.5l128 29q0 -120 100 -120q20 0 40.5 1.5t36.5 1.5q61 0 101 -40h4q-10 32 -12 79l-299 133v125q142 100 294 151v19
h-429v109h658v-109z" />
    <glyph glyph-name="bnBH_RA" horiz-adv-x="635" 
d="M557 -85h-123q-5 43 -29.5 62t-77.5 19q-19 0 -37.5 -1t-39.5 -1q-111 0 -163 59.5t-52 147.5l128 29q0 -120 100 -120q20 0 40.5 1.5t36.5 1.5q61 0 101 -40h4q-14 46 -14 122v63q0 67 -18 92h-4q-12 -40 -51.5 -73.5t-105.5 -33.5q-76 0 -119 42.5t-43 105.5
q0 43 19 81l129 -17q-15 -25 -15 -54q0 -41 41 -41q60 0 95 133h109q89 -83 89 -239v-339zM655 562h-675v109h675v-109z" />
    <glyph glyph-name="bnM_RA" horiz-adv-x="640" 
d="M415 450q28 0 43 15.5t15 40.5t-15 40.5t-43 15.5h-183q5 -15 11 -45q35 -8 90 -37.5t82 -29.5zM659 562h-77q19 -30 19 -79q0 -73 -46 -116v-422h-123q-5 43 -29.5 62t-77.5 19q-19 0 -37.5 -1t-39.5 -1q-106 0 -158.5 54.5t-56.5 137.5l129 29q1 -44 24 -74.5t75 -30.5
q20 0 40.5 1.5t36.5 1.5q61 0 101 -40h4q-14 46 -14 122v102q-46 1 -89 20t-76.5 37.5t-58.5 18.5q-24 0 -36.5 -12.5t-12.5 -32.5t11 -36l-109 -40q-28 35 -28 86q0 100 79 139q-5 32 -19 55h-110v109h679v-109z" />
    <glyph glyph-name="bnSH_RA" horiz-adv-x="667" 
d="M226 345q-58 -60 -141 -60q-23 0 -45 6v111q18 -3 38 -3q87 0 87 82q0 81 -92 81h-93v109h100q89 0 145 -51q54 54 131 54q75 0 115 -43h4q-13 52 -13 105v37h125v-102h100v-109h-100v-626h-126q-5 43 -29.5 62t-77.5 19q-19 0 -55 -1t-57 -1q-111 0 -165.5 60t-54.5 147
l128 29q0 -50 23.5 -85t81.5 -35q20 0 58 1.5t54 1.5q61 0 101 -40h4q-14 46 -14 122v233q0 112 -92 112q-38 0 -59.5 -20.5t-21.5 -60.5q0 -38 25 -58.5t63 -20.5q15 0 30 3v-112q-16 -4 -37 -4q-85 0 -140 57z" />
    <glyph glyph-name="bnS_RA" horiz-adv-x="716" 
d="M657 506q0 -102 -81 -144v-362h-123q-5 43 -29.5 62t-77.5 19q-19 0 -37.5 -1t-39.5 -1q-111 0 -163 59.5t-52 147.5l128 29q0 -120 100 -120q20 0 40.5 1.5t36.5 1.5q61 0 101 -40h4q-14 46 -14 122v65q-94 10 -134 94q-43 -94 -147 -94q-91 0 -147 70l67 86
q41 -44 80 -44q64 0 80 105h-269v109h756v-109h-85q6 -30 6 -56zM389 562q3 -47 25.5 -77t59.5 -30q28 0 42 18t14 45q0 28 -8 44h-133z" />
    <glyph glyph-name="bnSS_RA" horiz-adv-x="597" 
d="M321 565q-27 0 -47 -10l144 -139q8 22 8 46q0 47 -29 75t-76 28zM518 -43h-123q-5 43 -29.5 62t-77.5 19q-11 0 -29.5 -0.5t-28.5 -0.5q-111 0 -163 60t-52 148l128 29q0 -120 100 -120q13 0 31.5 0.5t26.5 0.5q61 0 101 -40h4q-14 46 -14 122v8q-33 -9 -71 -9
q-103 0 -167 60.5t-64 165.5q0 57 23 100h-133v109h637v-109h-87q23 -43 23 -100q0 -73 -35 -129v-376zM321 351q29 0 52 12l-147 139q-7 -17 -7 -40q0 -49 28.5 -80t73.5 -31z" />
    <glyph glyph-name="bnY_RA" horiz-adv-x="649" 
d="M440 219h2v2h2q-12 86 -12 193v148h-187v-4l111 -93v-94l-110 -82zM569 140l-1 -1v-302h-123q-5 43 -29.5 62t-77.5 19q-11 0 -44.5 -0.5t-43.5 -0.5q-111 0 -163 60t-52 148l128 29q0 -120 100 -120q13 0 46.5 0.5t41.5 0.5q61 0 101 -40h4q-11 34 -13 99l-338 121v116
l120 91l-120 101v39h-125v109h689v-109h-100v-422z" />
    <glyph glyph-name="bnL_RA" horiz-adv-x="706" 
d="M726 562h-100v-747h-124q-5 43 -29.5 62t-77.5 19q-19 0 -37.5 -1t-39.5 -1q-111 0 -163 59.5t-52 147.5l128 29q0 -120 100 -120q20 0 40.5 1.5t36.5 1.5q61 0 101 -40h4q-14 46 -14 122v275q-6 14 -22 24t-36 10q-29 0 -46 -20.5t-17 -56.5v-21h-117v21q0 74 -56 74
q-25 0 -43.5 -20t-18.5 -55q0 -63 73 -63q12 0 26 3l8 -113q-26 -6 -52 -6q-76 0 -128 44.5t-52 131.5q0 89 51.5 142t123.5 53q51 0 83.5 -23.5t42.5 -53.5h5q8 33 36 56t65 23q48 0 69 -24h5v66h-519v109h746v-109z" />
    <glyph glyph-name="bnH_RA" horiz-adv-x="577" 
d="M579 83l-75 -86q-9 4 -25 12v-184h-123q-5 44 -26 62.5t-73 18.5q-11 0 -24.5 -0.5t-23.5 -0.5q-98 0 -148.5 49t-55.5 128l126 31q4 -43 23.5 -67t67.5 -24q13 0 26.5 0.5t21.5 0.5q59 0 93 -38h4q-9 31 -13 87q-91 45 -136 62t-87 18v106h60q168 0 168 101
q0 30 -15 47.5t-43 17.5q-19 0 -32 -11t-13 -29q0 -29 30 -43l-88 -61q-66 37 -66 108q0 63 44 103t121 40q82 0 133.5 -47t51.5 -124q0 -73 -46 -116t-115 -53v-4q77 -18 132 -44zM597 562h-617v109h617v-109z" />
    </font>
</defs>
</svg>
